  0
SECTION
  2
BLOCKS
  0
ENDSEC
  0
SECTION
  2
ENTITIES
  0
LINE
  8
0
 10
35.884
 20
3.57394
 11
36.1628
 21
3.71599
  0
LINE
  8
0
 10
36.1628
 20
3.71599
 11
36.384
 21
3.93721
  0
LINE
  8
0
 10
36.384
 20
3.93721
 11
36.526
 21
4.21599
  0
LINE
  8
0
 10
36.526
 20
4.21599
 11
36.575
 21
4.52499
  0
LINE
  8
0
 10
36.575
 20
4.52499
 11
36.575
 21
7.28749
  0
LINE
  8
0
 10
36.575
 20
7.28749
 11
36.6239
 21
7.59651
  0
LINE
  8
0
 10
36.6239
 20
7.59651
 11
36.766
 21
7.87527
  0
LINE
  8
0
 10
36.766
 20
7.87527
 11
36.9872
 21
8.09651
  0
LINE
  8
0
 10
36.9872
 20
8.09651
 11
37.266
 21
8.23854
  0
LINE
  8
0
 10
37.266
 20
8.23854
 11
37.575
 21
8.28749
  0
LINE
  8
0
 10
37.575
 20
8.28749
 11
54.625
 21
8.28749
  0
LINE
  8
0
 10
54.625
 20
8.28749
 11
54.934
 21
8.33644
  0
LINE
  8
0
 10
54.934
 20
8.33644
 11
55.2128
 21
8.47849
  0
LINE
  8
0
 10
55.2128
 20
8.47849
 11
55.434
 21
8.69971
  0
LINE
  8
0
 10
55.434
 20
8.69971
 11
55.576
 21
8.97849
  0
LINE
  8
0
 10
55.576
 20
8.97849
 11
55.625
 21
9.28749
  0
LINE
  8
0
 10
55.625
 20
9.28749
 11
55.625
 21
9.57349
  0
LINE
  8
0
 10
55.625
 20
9.57349
 11
55.674
 21
9.88251
  0
LINE
  8
0
 10
55.674
 20
9.88251
 11
55.816
 21
10.1613
  0
LINE
  8
0
 10
55.816
 20
10.1613
 11
56.0372
 21
10.3825
  0
LINE
  8
0
 10
56.0372
 20
10.3825
 11
56.316
 21
10.5245
  0
LINE
  8
0
 10
56.316
 20
10.5245
 11
56.625
 21
10.5735
  0
LINE
  8
0
 10
56.625
 20
10.5735
 11
78.725
 21
10.5735
  0
LINE
  8
0
 10
78.725
 20
10.5735
 11
79.034
 21
10.5245
  0
LINE
  8
0
 10
79.034
 20
10.5245
 11
79.3128
 21
10.3825
  0
LINE
  8
0
 10
79.3128
 20
10.3825
 11
79.534
 21
10.1613
  0
LINE
  8
0
 10
79.534
 20
10.1613
 11
79.676
 21
9.88251
  0
LINE
  8
0
 10
79.676
 20
9.88251
 11
79.725
 21
9.57349
  0
LINE
  8
0
 10
79.725
 20
9.57349
 11
79.725
 21
9.28749
  0
LINE
  8
0
 10
79.725
 20
9.28749
 11
79.7739
 21
8.97849
  0
LINE
  8
0
 10
79.7739
 20
8.97849
 11
79.916
 21
8.69971
  0
LINE
  8
0
 10
79.916
 20
8.69971
 11
80.1372
 21
8.47849
  0
LINE
  8
0
 10
80.1372
 20
8.47849
 11
80.416
 21
8.33644
  0
LINE
  8
0
 10
80.416
 20
8.33644
 11
80.725
 21
8.28749
  0
LINE
  8
0
 10
80.725
 20
8.28749
 11
97.775
 21
8.28749
  0
LINE
  8
0
 10
97.775
 20
8.28749
 11
98.084
 21
8.23854
  0
LINE
  8
0
 10
98.084
 20
8.23854
 11
98.3628
 21
8.09651
  0
LINE
  8
0
 10
98.3628
 20
8.09651
 11
98.584
 21
7.87527
  0
LINE
  8
0
 10
98.584
 20
7.87527
 11
98.726
 21
7.59651
  0
LINE
  8
0
 10
98.726
 20
7.59651
 11
98.775
 21
7.28749
  0
LINE
  8
0
 10
98.775
 20
7.28749
 11
98.775
 21
6.81099
  0
LINE
  8
0
 10
98.775
 20
6.81099
 11
98.8239
 21
6.50198
  0
LINE
  8
0
 10
98.8239
 20
6.50198
 11
98.966
 21
6.22321
  0
LINE
  8
0
 10
98.966
 20
6.22321
 11
99.1872
 21
6.00198
  0
LINE
  8
0
 10
99.1872
 20
6.00198
 11
99.466
 21
5.85994
  0
LINE
  8
0
 10
99.466
 20
5.85994
 11
99.775
 21
5.81099
  0
LINE
  8
0
 10
99.775
 20
5.81099
 11
111.775
 21
5.81099
  0
LINE
  8
0
 10
111.775
 20
5.81099
 11
112.084
 21
5.85994
  0
LINE
  8
0
 10
112.084
 20
5.85994
 11
112.363
 21
6.00198
  0
LINE
  8
0
 10
112.363
 20
6.00198
 11
112.584
 21
6.22321
  0
LINE
  8
0
 10
112.584
 20
6.22321
 11
112.726
 21
6.50198
  0
LINE
  8
0
 10
112.726
 20
6.50198
 11
112.775
 21
6.81099
  0
LINE
  8
0
 10
112.775
 20
6.81099
 11
112.775
 21
56.911
  0
LINE
  8
0
 10
112.775
 20
56.911
 11
112.726
 21
57.22
  0
LINE
  8
0
 10
112.726
 20
57.22
 11
112.584
 21
57.4988
  0
LINE
  8
0
 10
112.584
 20
57.4988
 11
112.363
 21
57.72
  0
LINE
  8
0
 10
112.363
 20
57.72
 11
112.084
 21
57.862
  0
LINE
  8
0
 10
112.084
 20
57.862
 11
111.775
 21
57.911
  0
LINE
  8
0
 10
111.775
 20
57.911
 11
94.725
 21
57.911
  0
LINE
  8
0
 10
94.725
 20
57.911
 11
94.416
 21
57.9599
  0
LINE
  8
0
 10
94.416
 20
57.9599
 11
94.1372
 21
58.102
  0
LINE
  8
0
 10
94.1372
 20
58.102
 11
93.916
 21
58.3232
  0
LINE
  8
0
 10
93.916
 20
58.3232
 11
93.774
 21
58.602
  0
LINE
  8
0
 10
93.774
 20
58.602
 11
93.725
 21
58.911
  0
LINE
  8
0
 10
93.725
 20
58.911
 11
93.725
 21
59.3875
  0
LINE
  8
0
 10
93.725
 20
59.3875
 11
93.6761
 21
59.6965
  0
LINE
  8
0
 10
93.6761
 20
59.6965
 11
93.534
 21
59.9753
  0
LINE
  8
0
 10
93.534
 20
59.9753
 11
93.3128
 21
60.1965
  0
LINE
  8
0
 10
93.3128
 20
60.1965
 11
93.034
 21
60.3385
  0
LINE
  8
0
 10
93.034
 20
60.3385
 11
92.725
 21
60.3875
  0
LINE
  8
0
 10
92.725
 20
60.3875
 11
75.675
 21
60.3875
  0
LINE
  8
0
 10
75.675
 20
60.3875
 11
75.366
 21
60.4364
  0
LINE
  8
0
 10
75.366
 20
60.4364
 11
75.0872
 21
60.5785
  0
LINE
  8
0
 10
75.0872
 20
60.5785
 11
74.866
 21
60.7997
  0
LINE
  8
0
 10
74.866
 20
60.7997
 11
74.724
 21
61.0785
  0
LINE
  8
0
 10
74.724
 20
61.0785
 11
74.675
 21
61.3875
  0
LINE
  8
0
 10
74.675
 20
61.3875
 11
74.675
 21
61.6735
  0
LINE
  8
0
 10
74.675
 20
61.6735
 11
74.6261
 21
61.9825
  0
LINE
  8
0
 10
74.6261
 20
61.9825
 11
74.484
 21
62.2613
  0
LINE
  8
0
 10
74.484
 20
62.2613
 11
74.2628
 21
62.4825
  0
LINE
  8
0
 10
74.2628
 20
62.4825
 11
73.984
 21
62.6245
  0
LINE
  8
0
 10
73.984
 20
62.6245
 11
73.675
 21
62.6735
  0
LINE
  8
0
 10
73.675
 20
62.6735
 11
61.675
 21
62.6735
  0
LINE
  8
0
 10
61.675
 20
62.6735
 11
61.366
 21
62.6245
  0
LINE
  8
0
 10
61.366
 20
62.6245
 11
61.0872
 21
62.4825
  0
LINE
  8
0
 10
61.0872
 20
62.4825
 11
60.866
 21
62.2613
  0
LINE
  8
0
 10
60.866
 20
62.2613
 11
60.7239
 21
61.9825
  0
LINE
  8
0
 10
60.7239
 20
61.9825
 11
60.675
 21
61.6735
  0
LINE
  8
0
 10
60.675
 20
61.6735
 11
60.675
 21
61.3875
  0
LINE
  8
0
 10
60.675
 20
61.3875
 11
60.626
 21
61.0785
  0
LINE
  8
0
 10
60.626
 20
61.0785
 11
60.484
 21
60.7997
  0
LINE
  8
0
 10
60.484
 20
60.7997
 11
60.2628
 21
60.5785
  0
LINE
  8
0
 10
60.2628
 20
60.5785
 11
59.984
 21
60.4364
  0
LINE
  8
0
 10
59.984
 20
60.4364
 11
59.675
 21
60.3875
  0
LINE
  8
0
 10
59.675
 20
60.3875
 11
42.625
 21
60.3875
  0
LINE
  8
0
 10
42.625
 20
60.3875
 11
42.316
 21
60.3385
  0
LINE
  8
0
 10
42.316
 20
60.3385
 11
42.0372
 21
60.1965
  0
LINE
  8
0
 10
42.0372
 20
60.1965
 11
41.816
 21
59.9753
  0
LINE
  8
0
 10
41.816
 20
59.9753
 11
41.6739
 21
59.6965
  0
LINE
  8
0
 10
41.6739
 20
59.6965
 11
41.625
 21
59.3875
  0
LINE
  8
0
 10
41.625
 20
59.3875
 11
41.625
 21
56.625
  0
LINE
  8
0
 10
41.625
 20
56.625
 11
41.576
 21
56.316
  0
LINE
  8
0
 10
41.576
 20
56.316
 11
41.434
 21
56.0372
  0
LINE
  8
0
 10
41.434
 20
56.0372
 11
41.2128
 21
55.816
  0
LINE
  8
0
 10
41.2128
 20
55.816
 11
40.934
 21
55.674
  0
LINE
  8
0
 10
40.934
 20
55.674
 11
40.625
 21
55.625
  0
LINE
  8
0
 10
40.625
 20
55.625
 11
4.52499
 21
55.625
  0
LINE
  8
0
 10
4.52499
 20
55.625
 11
4.21599
 21
55.576
  0
LINE
  8
0
 10
4.21599
 20
55.576
 11
3.93721
 21
55.434
  0
LINE
  8
0
 10
3.93721
 20
55.434
 11
3.71599
 21
55.2128
  0
LINE
  8
0
 10
3.71599
 20
55.2128
 11
3.57394
 21
54.934
  0
LINE
  8
0
 10
3.57394
 20
54.934
 11
3.52499
 21
54.625
  0
LINE
  8
0
 10
3.52499
 20
54.625
 11
3.52499
 21
4.52499
  0
LINE
  8
0
 10
3.52499
 20
4.52499
 11
3.57394
 21
4.21599
  0
LINE
  8
0
 10
3.57394
 20
4.21599
 11
3.71599
 21
3.93721
  0
LINE
  8
0
 10
3.71599
 20
3.93721
 11
3.93721
 21
3.71599
  0
LINE
  8
0
 10
3.93721
 20
3.71599
 11
4.21599
 21
3.57394
  0
LINE
  8
0
 10
4.21599
 20
3.57394
 11
4.52499
 21
3.52499
  0
LINE
  8
0
 10
4.52499
 20
3.52499
 11
35.575
 21
3.52499
  0
LINE
  8
0
 10
35.575
 20
3.52499
 11
35.884
 21
3.57394
  0
LINE
  8
0
 10
95.0757
 20
39.0102
 11
94.0164
 21
39.55
  0
LINE
  8
0
 10
94.0164
 20
39.55
 11
93.1757
 21
40.3907
  0
LINE
  8
0
 10
93.1757
 20
40.3907
 11
92.636
 21
41.45
  0
LINE
  8
0
 10
92.636
 20
41.45
 11
92.45
 21
42.6242
  0
LINE
  8
0
 10
92.45
 20
42.6242
 11
92.636
 21
43.7985
  0
LINE
  8
0
 10
92.636
 20
43.7985
 11
93.1757
 21
44.8578
  0
LINE
  8
0
 10
93.1757
 20
44.8578
 11
94.0164
 21
45.6985
  0
LINE
  8
0
 10
94.0164
 20
45.6985
 11
95.0757
 21
46.2383
  0
LINE
  8
0
 10
95.0757
 20
46.2383
 11
96.25
 21
46.4242
  0
LINE
  8
0
 10
96.25
 20
46.4242
 11
97.4243
 21
46.2383
  0
LINE
  8
0
 10
97.4243
 20
46.2383
 11
98.4836
 21
45.6985
  0
LINE
  8
0
 10
98.4836
 20
45.6985
 11
99.3243
 21
44.8578
  0
LINE
  8
0
 10
99.3243
 20
44.8578
 11
99.864
 21
43.7985
  0
LINE
  8
0
 10
99.864
 20
43.7985
 11
100.05
 21
42.6242
  0
LINE
  8
0
 10
100.05
 20
42.6242
 11
99.864
 21
41.45
  0
LINE
  8
0
 10
99.864
 20
41.45
 11
99.3243
 21
40.3907
  0
LINE
  8
0
 10
99.3243
 20
40.3907
 11
98.4836
 21
39.55
  0
LINE
  8
0
 10
98.4836
 20
39.55
 11
97.4243
 21
39.0102
  0
LINE
  8
0
 10
97.4243
 20
39.0102
 11
96.25
 21
38.8242
  0
LINE
  8
0
 10
96.25
 20
38.8242
 11
95.0757
 21
39.0102
  0
LINE
  8
0
 10
18.8757
 20
35.486
 11
17.8164
 21
36.0257
  0
LINE
  8
0
 10
17.8164
 20
36.0257
 11
16.9757
 21
36.8664
  0
LINE
  8
0
 10
16.9757
 20
36.8664
 11
16.436
 21
37.9257
  0
LINE
  8
0
 10
16.436
 20
37.9257
 11
16.25
 21
39.1
  0
LINE
  8
0
 10
16.25
 20
39.1
 11
16.436
 21
40.2743
  0
LINE
  8
0
 10
16.436
 20
40.2743
 11
16.9757
 21
41.3336
  0
LINE
  8
0
 10
16.9757
 20
41.3336
 11
17.8164
 21
42.1743
  0
LINE
  8
0
 10
17.8164
 20
42.1743
 11
18.8757
 21
42.714
  0
LINE
  8
0
 10
18.8757
 20
42.714
 11
20.05
 21
42.9
  0
LINE
  8
0
 10
20.05
 20
42.9
 11
21.2243
 21
42.714
  0
LINE
  8
0
 10
21.2243
 20
42.714
 11
22.2836
 21
42.1743
  0
LINE
  8
0
 10
22.2836
 20
42.1743
 11
23.1243
 21
41.3336
  0
LINE
  8
0
 10
23.1243
 20
41.3336
 11
23.664
 21
40.2743
  0
LINE
  8
0
 10
23.664
 20
40.2743
 11
23.85
 21
39.1
  0
LINE
  8
0
 10
23.85
 20
39.1
 11
23.664
 21
37.9257
  0
LINE
  8
0
 10
23.664
 20
37.9257
 11
23.1243
 21
36.8664
  0
LINE
  8
0
 10
23.1243
 20
36.8664
 11
22.2836
 21
36.0257
  0
LINE
  8
0
 10
22.2836
 20
36.0257
 11
21.2243
 21
35.486
  0
LINE
  8
0
 10
21.2243
 20
35.486
 11
20.05
 21
35.3
  0
LINE
  8
0
 10
20.05
 20
35.3
 11
18.8757
 21
35.486
  0
LINE
  8
0
 10
95.0757
 20
19.9602
 11
94.0164
 21
20.5
  0
LINE
  8
0
 10
94.0164
 20
20.5
 11
93.1757
 21
21.3407
  0
LINE
  8
0
 10
93.1757
 20
21.3407
 11
92.636
 21
22.4
  0
LINE
  8
0
 10
92.636
 20
22.4
 11
92.45
 21
23.5742
  0
LINE
  8
0
 10
92.45
 20
23.5742
 11
92.636
 21
24.7485
  0
LINE
  8
0
 10
92.636
 20
24.7485
 11
93.1757
 21
25.8078
  0
LINE
  8
0
 10
93.1757
 20
25.8078
 11
94.0164
 21
26.6485
  0
LINE
  8
0
 10
94.0164
 20
26.6485
 11
95.0757
 21
27.1883
  0
LINE
  8
0
 10
95.0757
 20
27.1883
 11
96.25
 21
27.3742
  0
LINE
  8
0
 10
96.25
 20
27.3742
 11
97.4243
 21
27.1883
  0
LINE
  8
0
 10
97.4243
 20
27.1883
 11
98.4836
 21
26.6485
  0
LINE
  8
0
 10
98.4836
 20
26.6485
 11
99.3243
 21
25.8078
  0
LINE
  8
0
 10
99.3243
 20
25.8078
 11
99.864
 21
24.7485
  0
LINE
  8
0
 10
99.864
 20
24.7485
 11
100.05
 21
23.5742
  0
LINE
  8
0
 10
100.05
 20
23.5742
 11
99.864
 21
22.4
  0
LINE
  8
0
 10
99.864
 20
22.4
 11
99.3243
 21
21.3407
  0
LINE
  8
0
 10
99.3243
 20
21.3407
 11
98.4836
 21
20.5
  0
LINE
  8
0
 10
98.4836
 20
20.5
 11
97.4243
 21
19.9602
  0
LINE
  8
0
 10
97.4243
 20
19.9602
 11
96.25
 21
19.7742
  0
LINE
  8
0
 10
96.25
 20
19.7742
 11
95.0757
 21
19.9602
  0
LINE
  8
0
 10
18.8757
 20
16.436
 11
17.8164
 21
16.9757
  0
LINE
  8
0
 10
17.8164
 20
16.9757
 11
16.9757
 21
17.8164
  0
LINE
  8
0
 10
16.9757
 20
17.8164
 11
16.436
 21
18.8757
  0
LINE
  8
0
 10
16.436
 20
18.8757
 11
16.25
 21
20.05
  0
LINE
  8
0
 10
16.25
 20
20.05
 11
16.436
 21
21.2243
  0
LINE
  8
0
 10
16.436
 20
21.2243
 11
16.9757
 21
22.2836
  0
LINE
  8
0
 10
16.9757
 20
22.2836
 11
17.8164
 21
23.1243
  0
LINE
  8
0
 10
17.8164
 20
23.1243
 11
18.8757
 21
23.664
  0
LINE
  8
0
 10
18.8757
 20
23.664
 11
20.05
 21
23.85
  0
LINE
  8
0
 10
20.05
 20
23.85
 11
21.2243
 21
23.664
  0
LINE
  8
0
 10
21.2243
 20
23.664
 11
22.2836
 21
23.1243
  0
LINE
  8
0
 10
22.2836
 20
23.1243
 11
23.1243
 21
22.2836
  0
LINE
  8
0
 10
23.1243
 20
22.2836
 11
23.664
 21
21.2243
  0
LINE
  8
0
 10
23.664
 20
21.2243
 11
23.85
 21
20.05
  0
LINE
  8
0
 10
23.85
 20
20.05
 11
23.664
 21
18.8757
  0
LINE
  8
0
 10
23.664
 20
18.8757
 11
23.1243
 21
17.8164
  0
LINE
  8
0
 10
23.1243
 20
17.8164
 11
22.2836
 21
16.9757
  0
LINE
  8
0
 10
22.2836
 20
16.9757
 11
21.2243
 21
16.436
  0
LINE
  8
0
 10
21.2243
 20
16.436
 11
20.05
 21
16.25
  0
LINE
  8
0
 10
20.05
 20
16.25
 11
18.8757
 21
16.436
  0
ENDSEC
  0
SECTION
  2
OBJECTS
  0
DICTIONARY
  0
ENDSEC
  0
EOF
