  0
SECTION
  2
BLOCKS
  0
ENDSEC
  0
SECTION
  2
ENTITIES
  0
LINE
  8
0
 10
1.06279
 20
-1.90302
 11
1.12532
 21
-1.89711
  0
LINE
  8
0
 10
1.12532
 20
-1.89711
 11
1.18738
 21
-1.88728
  0
LINE
  8
0
 10
1.18738
 20
-1.88728
 11
1.24869
 21
-1.87358
  0
LINE
  8
0
 10
1.24869
 20
-1.87358
 11
1.30901
 21
-1.85605
  0
LINE
  8
0
 10
1.30901
 20
-1.85605
 11
1.36812
 21
-1.83476
  0
LINE
  8
0
 10
1.36812
 20
-1.83476
 11
1.42577
 21
-1.80981
  0
LINE
  8
0
 10
1.42577
 20
-1.80981
 11
1.48175
 21
-1.7813
  0
LINE
  8
0
 10
1.48175
 20
-1.7813
 11
1.53581
 21
-1.74931
  0
LINE
  8
0
 10
1.53581
 20
-1.74931
 11
1.58778
 21
-1.714
  0
LINE
  8
0
 10
1.58778
 20
-1.714
 11
1.63742
 21
-1.67551
  0
LINE
  8
0
 10
1.63742
 20
-1.67551
 11
1.68454
 21
-1.63396
  0
LINE
  8
0
 10
1.68454
 20
-1.63396
 11
1.72896
 21
-1.58954
  0
LINE
  8
0
 10
1.72896
 20
-1.58954
 11
1.77051
 21
-1.54242
  0
LINE
  8
0
 10
1.77051
 20
-1.54242
 11
1.80901
 21
-1.49278
  0
LINE
  8
0
 10
1.80901
 20
-1.49278
 11
1.84431
 21
-1.44081
  0
LINE
  8
0
 10
1.84431
 20
-1.44081
 11
1.8763
 21
-1.38675
  0
LINE
  8
0
 10
1.8763
 20
-1.38675
 11
1.90482
 21
-1.33076
  0
LINE
  8
0
 10
1.90482
 20
-1.33076
 11
1.92976
 21
-1.27312
  0
LINE
  8
0
 10
1.92976
 20
-1.27312
 11
1.95105
 21
-1.214
  0
LINE
  8
0
 10
1.95105
 20
-1.214
 11
1.96858
 21
-1.15369
  0
LINE
  8
0
 10
1.96858
 20
-1.15369
 11
1.98228
 21
-1.09238
  0
LINE
  8
0
 10
1.98228
 20
-1.09238
 11
1.99211
 21
-1.03032
  0
LINE
  8
0
 10
1.99211
 20
-1.03032
 11
1.99802
 21
-0.967789
  0
LINE
  8
0
 10
1.99802
 20
-0.967789
 11
2
 21
-0.904999
  0
LINE
  8
0
 10
2
 20
-0.904999
 11
2
 21
0
  0
LINE
  8
0
 10
2
 20
0
 11
20.05
 21
0
  0
LINE
  8
0
 10
20.05
 20
0
 11
20.1128
 21
0.00198364
  0
LINE
  8
0
 10
20.1128
 20
0.00198364
 11
20.1753
 21
0.00788879
  0
LINE
  8
0
 10
20.1753
 20
0.00788879
 11
20.2374
 21
0.0177155
  0
LINE
  8
0
 10
20.2374
 20
0.0177155
 11
20.2987
 21
0.0314178
  0
LINE
  8
0
 10
20.2987
 20
0.0314178
 11
20.359
 21
0.0489502
  0
LINE
  8
0
 10
20.359
 20
0.0489502
 11
20.4181
 21
0.0702362
  0
LINE
  8
0
 10
20.4181
 20
0.0702362
 11
20.4758
 21
0.0951843
  0
LINE
  8
0
 10
20.4758
 20
0.0951843
 11
20.5317
 21
0.123703
  0
LINE
  8
0
 10
20.5317
 20
0.123703
 11
20.5858
 21
0.155685
  0
LINE
  8
0
 10
20.5858
 20
0.155685
 11
20.6378
 21
0.190994
  0
LINE
  8
0
 10
20.6378
 20
0.190994
 11
20.6874
 21
0.229492
  0
LINE
  8
0
 10
20.6874
 20
0.229492
 11
20.7345
 21
0.271042
  0
LINE
  8
0
 10
20.7345
 20
0.271042
 11
20.7789
 21
0.31546
  0
LINE
  8
0
 10
20.7789
 20
0.31546
 11
20.8205
 21
0.362579
  0
LINE
  8
0
 10
20.8205
 20
0.362579
 11
20.859
 21
0.412216
  0
LINE
  8
0
 10
20.859
 20
0.412216
 11
20.8943
 21
0.464188
  0
LINE
  8
0
 10
20.8943
 20
0.464188
 11
20.9263
 21
0.51825
  0
LINE
  8
0
 10
20.9263
 20
0.51825
 11
20.9548
 21
0.574234
  0
LINE
  8
0
 10
20.9548
 20
0.574234
 11
20.9798
 21
0.631882
  0
LINE
  8
0
 10
20.9798
 20
0.631882
 11
21.001
 21
0.690994
  0
LINE
  8
0
 10
21.001
 20
0.690994
 11
21.0186
 21
0.751312
  0
LINE
  8
0
 10
21.0186
 20
0.751312
 11
21.0323
 21
0.812622
  0
LINE
  8
0
 10
21.0323
 20
0.812622
 11
21.0421
 21
0.87468
  0
LINE
  8
0
 10
21.0421
 20
0.87468
 11
21.048
 21
0.93721
  0
LINE
  8
0
 10
21.048
 20
0.93721
 11
21.05
 21
1
  0
LINE
  8
0
 10
21.05
 20
1
 11
21.05
 21
1.905
  0
LINE
  8
0
 10
21.05
 20
1.905
 11
39.1
 21
1.905
  0
LINE
  8
0
 10
39.1
 20
1.905
 11
39.1628
 21
1.90698
  0
LINE
  8
0
 10
39.1628
 20
1.90698
 11
39.2253
 21
1.91289
  0
LINE
  8
0
 10
39.2253
 20
1.91289
 11
39.2874
 21
1.92271
  0
LINE
  8
0
 10
39.2874
 20
1.92271
 11
39.3487
 21
1.93642
  0
LINE
  8
0
 10
39.3487
 20
1.93642
 11
39.409
 21
1.95395
  0
LINE
  8
0
 10
39.409
 20
1.95395
 11
39.4681
 21
1.97523
  0
LINE
  8
0
 10
39.4681
 20
1.97523
 11
39.5258
 21
2.00018
  0
LINE
  8
0
 10
39.5258
 20
2.00018
 11
39.5817
 21
2.0287
  0
LINE
  8
0
 10
39.5817
 20
2.0287
 11
39.6358
 21
2.06068
  0
LINE
  8
0
 10
39.6358
 20
2.06068
 11
39.6878
 21
2.09599
  0
LINE
  8
0
 10
39.6878
 20
2.09599
 11
39.7374
 21
2.13449
  0
LINE
  8
0
 10
39.7374
 20
2.13449
 11
39.7845
 21
2.17604
  0
LINE
  8
0
 10
39.7845
 20
2.17604
 11
39.8289
 21
2.22046
  0
LINE
  8
0
 10
39.8289
 20
2.22046
 11
39.8705
 21
2.26758
  0
LINE
  8
0
 10
39.8705
 20
2.26758
 11
39.909
 21
2.31721
  0
LINE
  8
0
 10
39.909
 20
2.31721
 11
39.9443
 21
2.36919
  0
LINE
  8
0
 10
39.9443
 20
2.36919
 11
39.9763
 21
2.42325
  0
LINE
  8
0
 10
39.9763
 20
2.42325
 11
40.0048
 21
2.47923
  0
LINE
  8
0
 10
40.0048
 20
2.47923
 11
40.0298
 21
2.53688
  0
LINE
  8
0
 10
40.0298
 20
2.53688
 11
40.051
 21
2.59599
  0
LINE
  8
0
 10
40.051
 20
2.59599
 11
40.0686
 21
2.65631
  0
LINE
  8
0
 10
40.0686
 20
2.65631
 11
40.0823
 21
2.71762
  0
LINE
  8
0
 10
40.0823
 20
2.71762
 11
40.0921
 21
2.77968
  0
LINE
  8
0
 10
40.0921
 20
2.77968
 11
40.098
 21
2.84221
  0
LINE
  8
0
 10
40.098
 20
2.84221
 11
40.1
 21
2.905
  0
LINE
  8
0
 10
40.1
 20
2.905
 11
40.1
 21
21.955
  0
LINE
  8
0
 10
40.1
 20
21.955
 11
40.098
 21
22.0178
  0
LINE
  8
0
 10
40.098
 20
22.0178
 11
40.0921
 21
22.0803
  0
LINE
  8
0
 10
40.0921
 20
22.0803
 11
40.0823
 21
22.1424
  0
LINE
  8
0
 10
40.0823
 20
22.1424
 11
40.0686
 21
22.2037
  0
LINE
  8
0
 10
40.0686
 20
22.2037
 11
40.051
 21
22.264
  0
LINE
  8
0
 10
40.051
 20
22.264
 11
40.0298
 21
22.3231
  0
LINE
  8
0
 10
40.0298
 20
22.3231
 11
40.0048
 21
22.3808
  0
LINE
  8
0
 10
40.0048
 20
22.3808
 11
39.9763
 21
22.4367
  0
LINE
  8
0
 10
39.9763
 20
22.4367
 11
39.9443
 21
22.4908
  0
LINE
  8
0
 10
39.9443
 20
22.4908
 11
39.909
 21
22.5428
  0
LINE
  8
0
 10
39.909
 20
22.5428
 11
39.8705
 21
22.5924
  0
LINE
  8
0
 10
39.8705
 20
22.5924
 11
39.8289
 21
22.6395
  0
LINE
  8
0
 10
39.8289
 20
22.6395
 11
39.7845
 21
22.6839
  0
LINE
  8
0
 10
39.7845
 20
22.6839
 11
39.7374
 21
22.7255
  0
LINE
  8
0
 10
39.7374
 20
22.7255
 11
39.6878
 21
22.764
  0
LINE
  8
0
 10
39.6878
 20
22.764
 11
39.6358
 21
22.7993
  0
LINE
  8
0
 10
39.6358
 20
22.7993
 11
39.5817
 21
22.8313
  0
LINE
  8
0
 10
39.5817
 20
22.8313
 11
39.5258
 21
22.8598
  0
LINE
  8
0
 10
39.5258
 20
22.8598
 11
39.4681
 21
22.8848
  0
LINE
  8
0
 10
39.4681
 20
22.8848
 11
39.409
 21
22.906
  0
LINE
  8
0
 10
39.409
 20
22.906
 11
39.3487
 21
22.9236
  0
LINE
  8
0
 10
39.3487
 20
22.9236
 11
39.2874
 21
22.9373
  0
LINE
  8
0
 10
39.2874
 20
22.9373
 11
39.2253
 21
22.9471
  0
LINE
  8
0
 10
39.2253
 20
22.9471
 11
39.1628
 21
22.953
  0
LINE
  8
0
 10
39.1628
 20
22.953
 11
39.1
 21
22.955
  0
LINE
  8
0
 10
39.1
 20
22.955
 11
20.05
 21
22.955
  0
LINE
  8
0
 10
20.05
 20
22.955
 11
19.9872
 21
22.953
  0
LINE
  8
0
 10
19.9872
 20
22.953
 11
19.9247
 21
22.9471
  0
LINE
  8
0
 10
19.9247
 20
22.9471
 11
19.8626
 21
22.9373
  0
LINE
  8
0
 10
19.8626
 20
22.9373
 11
19.8013
 21
22.9236
  0
LINE
  8
0
 10
19.8013
 20
22.9236
 11
19.741
 21
22.906
  0
LINE
  8
0
 10
19.741
 20
22.906
 11
19.6819
 21
22.8848
  0
LINE
  8
0
 10
19.6819
 20
22.8848
 11
19.6242
 21
22.8598
  0
LINE
  8
0
 10
19.6242
 20
22.8598
 11
19.5682
 21
22.8313
  0
LINE
  8
0
 10
19.5682
 20
22.8313
 11
19.5142
 21
22.7993
  0
LINE
  8
0
 10
19.5142
 20
22.7993
 11
19.4622
 21
22.764
  0
LINE
  8
0
 10
19.4622
 20
22.764
 11
19.4126
 21
22.7255
  0
LINE
  8
0
 10
19.4126
 20
22.7255
 11
19.3654
 21
22.6839
  0
LINE
  8
0
 10
19.3654
 20
22.6839
 11
19.321
 21
22.6395
  0
LINE
  8
0
 10
19.321
 20
22.6395
 11
19.2795
 21
22.5924
  0
LINE
  8
0
 10
19.2795
 20
22.5924
 11
19.241
 21
22.5428
  0
LINE
  8
0
 10
19.241
 20
22.5428
 11
19.2057
 21
22.4908
  0
LINE
  8
0
 10
19.2057
 20
22.4908
 11
19.1737
 21
22.4367
  0
LINE
  8
0
 10
19.1737
 20
22.4367
 11
19.1452
 21
22.3808
  0
LINE
  8
0
 10
19.1452
 20
22.3808
 11
19.1202
 21
22.3231
  0
LINE
  8
0
 10
19.1202
 20
22.3231
 11
19.0989
 21
22.264
  0
LINE
  8
0
 10
19.0989
 20
22.264
 11
19.0814
 21
22.2037
  0
LINE
  8
0
 10
19.0814
 20
22.2037
 11
19.0677
 21
22.1424
  0
LINE
  8
0
 10
19.0677
 20
22.1424
 11
19.0579
 21
22.0803
  0
LINE
  8
0
 10
19.0579
 20
22.0803
 11
19.052
 21
22.0178
  0
LINE
  8
0
 10
19.052
 20
22.0178
 11
19.05
 21
21.955
  0
LINE
  8
0
 10
19.05
 20
21.955
 11
19.05
 21
21.05
  0
LINE
  8
0
 10
19.05
 20
21.05
 11
1
 21
21.05
  0
LINE
  8
0
 10
1
 20
21.05
 11
0.93721
 21
21.048
  0
LINE
  8
0
 10
0.93721
 20
21.048
 11
0.87468
 21
21.0421
  0
LINE
  8
0
 10
0.87468
 20
21.0421
 11
0.812622
 21
21.0323
  0
LINE
  8
0
 10
0.812622
 20
21.0323
 11
0.751312
 21
21.0186
  0
LINE
  8
0
 10
0.751312
 20
21.0186
 11
0.690994
 21
21.001
  0
LINE
  8
0
 10
0.690994
 20
21.001
 11
0.631882
 21
20.9798
  0
LINE
  8
0
 10
0.631882
 20
20.9798
 11
0.574234
 21
20.9548
  0
LINE
  8
0
 10
0.574234
 20
20.9548
 11
0.51825
 21
20.9263
  0
LINE
  8
0
 10
0.51825
 20
20.9263
 11
0.464188
 21
20.8943
  0
LINE
  8
0
 10
0.464188
 20
20.8943
 11
0.412216
 21
20.859
  0
LINE
  8
0
 10
0.412216
 20
20.859
 11
0.362579
 21
20.8205
  0
LINE
  8
0
 10
0.362579
 20
20.8205
 11
0.31546
 21
20.7789
  0
LINE
  8
0
 10
0.31546
 20
20.7789
 11
0.271042
 21
20.7345
  0
LINE
  8
0
 10
0.271042
 20
20.7345
 11
0.229492
 21
20.6874
  0
LINE
  8
0
 10
0.229492
 20
20.6874
 11
0.190994
 21
20.6378
  0
LINE
  8
0
 10
0.190994
 20
20.6378
 11
0.155685
 21
20.5858
  0
LINE
  8
0
 10
0.155685
 20
20.5858
 11
0.123703
 21
20.5317
  0
LINE
  8
0
 10
0.123703
 20
20.5317
 11
0.0951843
 21
20.4758
  0
LINE
  8
0
 10
0.0951843
 20
20.4758
 11
0.0702362
 21
20.4181
  0
LINE
  8
0
 10
0.0702362
 20
20.4181
 11
0.0489502
 21
20.359
  0
LINE
  8
0
 10
0.0489502
 20
20.359
 11
0.0314178
 21
20.2987
  0
LINE
  8
0
 10
0.0314178
 20
20.2987
 11
0.0177155
 21
20.2374
  0
LINE
  8
0
 10
0.0177155
 20
20.2374
 11
0.00788879
 21
20.1753
  0
LINE
  8
0
 10
0.00788879
 20
20.1753
 11
0.00198364
 21
20.1128
  0
LINE
  8
0
 10
0.00198364
 20
20.1128
 11
0
 21
20.05
  0
LINE
  8
0
 10
0
 20
20.05
 11
0
 21
19.145
  0
LINE
  8
0
 10
0
 20
19.145
 11
-18.05
 21
19.145
  0
LINE
  8
0
 10
-18.05
 20
19.145
 11
-18.1128
 21
19.143
  0
LINE
  8
0
 10
-18.1128
 20
19.143
 11
-18.1753
 21
19.1371
  0
LINE
  8
0
 10
-18.1753
 20
19.1371
 11
-18.2374
 21
19.1273
  0
LINE
  8
0
 10
-18.2374
 20
19.1273
 11
-18.2987
 21
19.1136
  0
LINE
  8
0
 10
-18.2987
 20
19.1136
 11
-18.359
 21
19.096
  0
LINE
  8
0
 10
-18.359
 20
19.096
 11
-18.4181
 21
19.0748
  0
LINE
  8
0
 10
-18.4181
 20
19.0748
 11
-18.4758
 21
19.0498
  0
LINE
  8
0
 10
-18.4758
 20
19.0498
 11
-18.5317
 21
19.0213
  0
LINE
  8
0
 10
-18.5317
 20
19.0213
 11
-18.5858
 21
18.9893
  0
LINE
  8
0
 10
-18.5858
 20
18.9893
 11
-18.6378
 21
18.954
  0
LINE
  8
0
 10
-18.6378
 20
18.954
 11
-18.6874
 21
18.9155
  0
LINE
  8
0
 10
-18.6874
 20
18.9155
 11
-18.7345
 21
18.8739
  0
LINE
  8
0
 10
-18.7345
 20
18.8739
 11
-18.7789
 21
18.8295
  0
LINE
  8
0
 10
-18.7789
 20
18.8295
 11
-18.8205
 21
18.7824
  0
LINE
  8
0
 10
-18.8205
 20
18.7824
 11
-18.859
 21
18.7328
  0
LINE
  8
0
 10
-18.859
 20
18.7328
 11
-18.8943
 21
18.6808
  0
LINE
  8
0
 10
-18.8943
 20
18.6808
 11
-18.9263
 21
18.6267
  0
LINE
  8
0
 10
-18.9263
 20
18.6267
 11
-18.9548
 21
18.5708
  0
LINE
  8
0
 10
-18.9548
 20
18.5708
 11
-18.9798
 21
18.5131
  0
LINE
  8
0
 10
-18.9798
 20
18.5131
 11
-19.001
 21
18.454
  0
LINE
  8
0
 10
-19.001
 20
18.454
 11
-19.0186
 21
18.3937
  0
LINE
  8
0
 10
-19.0186
 20
18.3937
 11
-19.0323
 21
18.3324
  0
LINE
  8
0
 10
-19.0323
 20
18.3324
 11
-19.0421
 21
18.2703
  0
LINE
  8
0
 10
-19.0421
 20
18.2703
 11
-19.048
 21
18.2078
  0
LINE
  8
0
 10
-19.048
 20
18.2078
 11
-19.05
 21
18.145
  0
LINE
  8
0
 10
-19.05
 20
18.145
 11
-19.05
 21
-0.904999
  0
LINE
  8
0
 10
-19.05
 20
-0.904999
 11
-19.048
 21
-0.967789
  0
LINE
  8
0
 10
-19.048
 20
-0.967789
 11
-19.0421
 21
-1.03032
  0
LINE
  8
0
 10
-19.0421
 20
-1.03032
 11
-19.0323
 21
-1.09238
  0
LINE
  8
0
 10
-19.0323
 20
-1.09238
 11
-19.0186
 21
-1.15369
  0
LINE
  8
0
 10
-19.0186
 20
-1.15369
 11
-19.001
 21
-1.214
  0
LINE
  8
0
 10
-19.001
 20
-1.214
 11
-18.9798
 21
-1.27312
  0
LINE
  8
0
 10
-18.9798
 20
-1.27312
 11
-18.9548
 21
-1.33076
  0
LINE
  8
0
 10
-18.9548
 20
-1.33076
 11
-18.9263
 21
-1.38675
  0
LINE
  8
0
 10
-18.9263
 20
-1.38675
 11
-18.8943
 21
-1.44081
  0
LINE
  8
0
 10
-18.8943
 20
-1.44081
 11
-18.859
 21
-1.49278
  0
LINE
  8
0
 10
-18.859
 20
-1.49278
 11
-18.8205
 21
-1.54242
  0
LINE
  8
0
 10
-18.8205
 20
-1.54242
 11
-18.7789
 21
-1.58954
  0
LINE
  8
0
 10
-18.7789
 20
-1.58954
 11
-18.7345
 21
-1.63396
  0
LINE
  8
0
 10
-18.7345
 20
-1.63396
 11
-18.6874
 21
-1.67551
  0
LINE
  8
0
 10
-18.6874
 20
-1.67551
 11
-18.6378
 21
-1.714
  0
LINE
  8
0
 10
-18.6378
 20
-1.714
 11
-18.5858
 21
-1.74931
  0
LINE
  8
0
 10
-18.5858
 20
-1.74931
 11
-18.5317
 21
-1.7813
  0
LINE
  8
0
 10
-18.5317
 20
-1.7813
 11
-18.4758
 21
-1.80981
  0
LINE
  8
0
 10
-18.4758
 20
-1.80981
 11
-18.4181
 21
-1.83476
  0
LINE
  8
0
 10
-18.4181
 20
-1.83476
 11
-18.359
 21
-1.85605
  0
LINE
  8
0
 10
-18.359
 20
-1.85605
 11
-18.2987
 21
-1.87358
  0
LINE
  8
0
 10
-18.2987
 20
-1.87358
 11
-18.2374
 21
-1.88728
  0
LINE
  8
0
 10
-18.2374
 20
-1.88728
 11
-18.1753
 21
-1.89711
  0
LINE
  8
0
 10
-18.1753
 20
-1.89711
 11
-18.1128
 21
-1.90302
  0
LINE
  8
0
 10
-18.1128
 20
-1.90302
 11
-18.05
 21
-1.905
  0
LINE
  8
0
 10
-18.05
 20
-1.905
 11
1
 21
-1.905
  0
LINE
  8
0
 10
1
 20
-1.905
 11
1.06279
 21
-1.90302
  0
LINE
  8
0
 10
19.0159
 20
17.3238
 11
18.9346
 21
17.3315
  0
LINE
  8
0
 10
18.9346
 20
17.3315
 11
18.8539
 21
17.3443
  0
LINE
  8
0
 10
18.8539
 20
17.3443
 11
18.7742
 21
17.3621
  0
LINE
  8
0
 10
18.7742
 20
17.3621
 11
18.6958
 21
17.3849
  0
LINE
  8
0
 10
18.6958
 20
17.3849
 11
18.6189
 21
17.4125
  0
LINE
  8
0
 10
18.6189
 20
17.4125
 11
18.544
 21
17.445
  0
LINE
  8
0
 10
18.544
 20
17.445
 11
18.4712
 21
17.482
  0
LINE
  8
0
 10
18.4712
 20
17.482
 11
18.4009
 21
17.5236
  0
LINE
  8
0
 10
18.4009
 20
17.5236
 11
18.3334
 21
17.5695
  0
LINE
  8
0
 10
18.3334
 20
17.5695
 11
18.2688
 21
17.6196
  0
LINE
  8
0
 10
18.2688
 20
17.6196
 11
18.2076
 21
17.6736
  0
LINE
  8
0
 10
18.2076
 20
17.6736
 11
18.1498
 21
17.7313
  0
LINE
  8
0
 10
18.1498
 20
17.7313
 11
18.0958
 21
17.7926
  0
LINE
  8
0
 10
18.0958
 20
17.7926
 11
18.0458
 21
17.8571
  0
LINE
  8
0
 10
18.0458
 20
17.8571
 11
17.9999
 21
17.9247
  0
LINE
  8
0
 10
17.9999
 20
17.9247
 11
17.9583
 21
17.995
  0
LINE
  8
0
 10
17.9583
 20
17.995
 11
17.9212
 21
18.0677
  0
LINE
  8
0
 10
17.9212
 20
18.0677
 11
17.8888
 21
18.1427
  0
LINE
  8
0
 10
17.8888
 20
18.1427
 11
17.8611
 21
18.2195
  0
LINE
  8
0
 10
17.8611
 20
18.2195
 11
17.8383
 21
18.2979
  0
LINE
  8
0
 10
17.8383
 20
18.2979
 11
17.8205
 21
18.3776
  0
LINE
  8
0
 10
17.8205
 20
18.3776
 11
17.8077
 21
18.4583
  0
LINE
  8
0
 10
17.8077
 20
18.4583
 11
17.8001
 21
18.5396
  0
LINE
  8
0
 10
17.8001
 20
18.5396
 11
17.7975
 21
18.6212
  0
LINE
  8
0
 10
17.7975
 20
18.6212
 11
17.8001
 21
18.7029
  0
LINE
  8
0
 10
17.8001
 20
18.7029
 11
17.8077
 21
18.7842
  0
LINE
  8
0
 10
17.8077
 20
18.7842
 11
17.8205
 21
18.8648
  0
LINE
  8
0
 10
17.8205
 20
18.8648
 11
17.8383
 21
18.9445
  0
LINE
  8
0
 10
17.8383
 20
18.9445
 11
17.8611
 21
19.023
  0
LINE
  8
0
 10
17.8611
 20
19.023
 11
17.8888
 21
19.0998
  0
LINE
  8
0
 10
17.8888
 20
19.0998
 11
17.9212
 21
19.1748
  0
LINE
  8
0
 10
17.9212
 20
19.1748
 11
17.9583
 21
19.2475
  0
LINE
  8
0
 10
17.9583
 20
19.2475
 11
17.9999
 21
19.3178
  0
LINE
  8
0
 10
17.9999
 20
19.3178
 11
18.0458
 21
19.3854
  0
LINE
  8
0
 10
18.0458
 20
19.3854
 11
18.0958
 21
19.4499
  0
LINE
  8
0
 10
18.0958
 20
19.4499
 11
18.1498
 21
19.5112
  0
LINE
  8
0
 10
18.1498
 20
19.5112
 11
18.2076
 21
19.5689
  0
LINE
  8
0
 10
18.2076
 20
19.5689
 11
18.2688
 21
19.6229
  0
LINE
  8
0
 10
18.2688
 20
19.6229
 11
18.3334
 21
19.673
  0
LINE
  8
0
 10
18.3334
 20
19.673
 11
18.4009
 21
19.7189
  0
LINE
  8
0
 10
18.4009
 20
19.7189
 11
18.4712
 21
19.7604
  0
LINE
  8
0
 10
18.4712
 20
19.7604
 11
18.544
 21
19.7975
  0
LINE
  8
0
 10
18.544
 20
19.7975
 11
18.6189
 21
19.83
  0
LINE
  8
0
 10
18.6189
 20
19.83
 11
18.6958
 21
19.8576
  0
LINE
  8
0
 10
18.6958
 20
19.8576
 11
18.7742
 21
19.8804
  0
LINE
  8
0
 10
18.7742
 20
19.8804
 11
18.8539
 21
19.8982
  0
LINE
  8
0
 10
18.8539
 20
19.8982
 11
18.9346
 21
19.911
  0
LINE
  8
0
 10
18.9346
 20
19.911
 11
19.0159
 21
19.9187
  0
LINE
  8
0
 10
19.0159
 20
19.9187
 11
19.0975
 21
19.9212
  0
LINE
  8
0
 10
19.0975
 20
19.9212
 11
19.1791
 21
19.9187
  0
LINE
  8
0
 10
19.1791
 20
19.9187
 11
19.2604
 21
19.911
  0
LINE
  8
0
 10
19.2604
 20
19.911
 11
19.3411
 21
19.8982
  0
LINE
  8
0
 10
19.3411
 20
19.8982
 11
19.4208
 21
19.8804
  0
LINE
  8
0
 10
19.4208
 20
19.8804
 11
19.4992
 21
19.8576
  0
LINE
  8
0
 10
19.4992
 20
19.8576
 11
19.576
 21
19.83
  0
LINE
  8
0
 10
19.576
 20
19.83
 11
19.651
 21
19.7975
  0
LINE
  8
0
 10
19.651
 20
19.7975
 11
19.7238
 21
19.7604
  0
LINE
  8
0
 10
19.7238
 20
19.7604
 11
19.7941
 21
19.7189
  0
LINE
  8
0
 10
19.7941
 20
19.7189
 11
19.8616
 21
19.673
  0
LINE
  8
0
 10
19.8616
 20
19.673
 11
19.9261
 21
19.6229
  0
LINE
  8
0
 10
19.9261
 20
19.6229
 11
19.9874
 21
19.5689
  0
LINE
  8
0
 10
19.9874
 20
19.5689
 11
20.0452
 21
19.5112
  0
LINE
  8
0
 10
20.0452
 20
19.5112
 11
20.0992
 21
19.4499
  0
LINE
  8
0
 10
20.0992
 20
19.4499
 11
20.1492
 21
19.3854
  0
LINE
  8
0
 10
20.1492
 20
19.3854
 11
20.1951
 21
19.3178
  0
LINE
  8
0
 10
20.1951
 20
19.3178
 11
20.2367
 21
19.2475
  0
LINE
  8
0
 10
20.2367
 20
19.2475
 11
20.2738
 21
19.1748
  0
LINE
  8
0
 10
20.2738
 20
19.1748
 11
20.3062
 21
19.0998
  0
LINE
  8
0
 10
20.3062
 20
19.0998
 11
20.3339
 21
19.023
  0
LINE
  8
0
 10
20.3339
 20
19.023
 11
20.3566
 21
18.9445
  0
LINE
  8
0
 10
20.3566
 20
18.9445
 11
20.3745
 21
18.8648
  0
LINE
  8
0
 10
20.3745
 20
18.8648
 11
20.3872
 21
18.7842
  0
LINE
  8
0
 10
20.3872
 20
18.7842
 11
20.3949
 21
18.7029
  0
LINE
  8
0
 10
20.3949
 20
18.7029
 11
20.3975
 21
18.6212
  0
LINE
  8
0
 10
20.3975
 20
18.6212
 11
20.3949
 21
18.5396
  0
LINE
  8
0
 10
20.3949
 20
18.5396
 11
20.3872
 21
18.4583
  0
LINE
  8
0
 10
20.3872
 20
18.4583
 11
20.3745
 21
18.3776
  0
LINE
  8
0
 10
20.3745
 20
18.3776
 11
20.3566
 21
18.2979
  0
LINE
  8
0
 10
20.3566
 20
18.2979
 11
20.3339
 21
18.2195
  0
LINE
  8
0
 10
20.3339
 20
18.2195
 11
20.3062
 21
18.1427
  0
LINE
  8
0
 10
20.3062
 20
18.1427
 11
20.2738
 21
18.0677
  0
LINE
  8
0
 10
20.2738
 20
18.0677
 11
20.2367
 21
17.995
  0
LINE
  8
0
 10
20.2367
 20
17.995
 11
20.1951
 21
17.9247
  0
LINE
  8
0
 10
20.1951
 20
17.9247
 11
20.1492
 21
17.8571
  0
LINE
  8
0
 10
20.1492
 20
17.8571
 11
20.0992
 21
17.7926
  0
LINE
  8
0
 10
20.0992
 20
17.7926
 11
20.0452
 21
17.7313
  0
LINE
  8
0
 10
20.0452
 20
17.7313
 11
19.9874
 21
17.6736
  0
LINE
  8
0
 10
19.9874
 20
17.6736
 11
19.9261
 21
17.6196
  0
LINE
  8
0
 10
19.9261
 20
17.6196
 11
19.8616
 21
17.5695
  0
LINE
  8
0
 10
19.8616
 20
17.5695
 11
19.7941
 21
17.5236
  0
LINE
  8
0
 10
19.7941
 20
17.5236
 11
19.7238
 21
17.482
  0
LINE
  8
0
 10
19.7238
 20
17.482
 11
19.651
 21
17.445
  0
LINE
  8
0
 10
19.651
 20
17.445
 11
19.576
 21
17.4125
  0
LINE
  8
0
 10
19.576
 20
17.4125
 11
19.4992
 21
17.3849
  0
LINE
  8
0
 10
19.4992
 20
17.3849
 11
19.4208
 21
17.3621
  0
LINE
  8
0
 10
19.4208
 20
17.3621
 11
19.3411
 21
17.3443
  0
LINE
  8
0
 10
19.3411
 20
17.3443
 11
19.2604
 21
17.3315
  0
LINE
  8
0
 10
19.2604
 20
17.3315
 11
19.1791
 21
17.3238
  0
LINE
  8
0
 10
19.1791
 20
17.3238
 11
19.0975
 21
17.3212
  0
LINE
  8
0
 10
19.0975
 20
17.3212
 11
19.0159
 21
17.3238
  0
LINE
  8
0
 10
22.575
 20
5.42999
 11
22.575
 21
19.43
  0
LINE
  8
0
 10
22.575
 20
19.43
 11
36.575
 21
19.43
  0
LINE
  8
0
 10
36.575
 20
19.43
 11
36.575
 21
5.42999
  0
LINE
  8
0
 10
36.575
 20
5.42999
 11
22.575
 21
5.42999
  0
LINE
  8
0
 10
0.442123
 20
15.4188
 11
0.360825
 21
15.4265
  0
LINE
  8
0
 10
0.360825
 20
15.4265
 11
0.280167
 21
15.4393
  0
LINE
  8
0
 10
0.280167
 20
15.4393
 11
0.200455
 21
15.4571
  0
LINE
  8
0
 10
0.200455
 20
15.4571
 11
0.12204
 21
15.4799
  0
LINE
  8
0
 10
0.12204
 20
15.4799
 11
0.0451965
 21
15.5075
  0
LINE
  8
0
 10
0.0451965
 20
15.5075
 11
-0.0297546
 21
15.54
  0
LINE
  8
0
 10
-0.0297546
 20
15.54
 11
-0.102524
 21
15.577
  0
LINE
  8
0
 10
-0.102524
 20
15.577
 11
-0.172821
 21
15.6186
  0
LINE
  8
0
 10
-0.172821
 20
15.6186
 11
-0.240356
 21
15.6645
  0
LINE
  8
0
 10
-0.240356
 20
15.6645
 11
-0.304901
 21
15.7146
  0
LINE
  8
0
 10
-0.304901
 20
15.7146
 11
-0.36615
 21
15.7686
  0
LINE
  8
0
 10
-0.36615
 20
15.7686
 11
-0.423904
 21
15.8263
  0
LINE
  8
0
 10
-0.423904
 20
15.8263
 11
-0.477905
 21
15.8876
  0
LINE
  8
0
 10
-0.477905
 20
15.8876
 11
-0.527969
 21
15.9521
  0
LINE
  8
0
 10
-0.527969
 20
15.9521
 11
-0.573868
 21
16.0197
  0
LINE
  8
0
 10
-0.573868
 20
16.0197
 11
-0.615448
 21
16.09
  0
LINE
  8
0
 10
-0.615448
 20
16.09
 11
-0.652512
 21
16.1627
  0
LINE
  8
0
 10
-0.652512
 20
16.1627
 11
-0.684952
 21
16.2377
  0
LINE
  8
0
 10
-0.684952
 20
16.2377
 11
-0.712616
 21
16.3145
  0
LINE
  8
0
 10
-0.712616
 20
16.3145
 11
-0.735397
 21
16.3929
  0
LINE
  8
0
 10
-0.735397
 20
16.3929
 11
-0.75322
 21
16.4726
  0
LINE
  8
0
 10
-0.75322
 20
16.4726
 11
-0.765991
 21
16.5533
  0
LINE
  8
0
 10
-0.765991
 20
16.5533
 11
-0.773682
 21
16.6346
  0
LINE
  8
0
 10
-0.773682
 20
16.6346
 11
-0.776245
 21
16.7162
  0
LINE
  8
0
 10
-0.776245
 20
16.7162
 11
-0.773682
 21
16.7979
  0
LINE
  8
0
 10
-0.773682
 20
16.7979
 11
-0.765991
 21
16.8792
  0
LINE
  8
0
 10
-0.765991
 20
16.8792
 11
-0.75322
 21
16.9598
  0
LINE
  8
0
 10
-0.75322
 20
16.9598
 11
-0.735397
 21
17.0395
  0
LINE
  8
0
 10
-0.735397
 20
17.0395
 11
-0.712616
 21
17.118
  0
LINE
  8
0
 10
-0.712616
 20
17.118
 11
-0.684952
 21
17.1948
  0
LINE
  8
0
 10
-0.684952
 20
17.1948
 11
-0.652512
 21
17.2698
  0
LINE
  8
0
 10
-0.652512
 20
17.2698
 11
-0.615448
 21
17.3425
  0
LINE
  8
0
 10
-0.615448
 20
17.3425
 11
-0.573868
 21
17.4128
  0
LINE
  8
0
 10
-0.573868
 20
17.4128
 11
-0.527969
 21
17.4804
  0
LINE
  8
0
 10
-0.527969
 20
17.4804
 11
-0.477905
 21
17.5449
  0
LINE
  8
0
 10
-0.477905
 20
17.5449
 11
-0.423904
 21
17.6062
  0
LINE
  8
0
 10
-0.423904
 20
17.6062
 11
-0.36615
 21
17.6639
  0
LINE
  8
0
 10
-0.36615
 20
17.6639
 11
-0.304901
 21
17.7179
  0
LINE
  8
0
 10
-0.304901
 20
17.7179
 11
-0.240356
 21
17.768
  0
LINE
  8
0
 10
-0.240356
 20
17.768
 11
-0.172821
 21
17.8139
  0
LINE
  8
0
 10
-0.172821
 20
17.8139
 11
-0.102524
 21
17.8554
  0
LINE
  8
0
 10
-0.102524
 20
17.8554
 11
-0.0297546
 21
17.8925
  0
LINE
  8
0
 10
-0.0297546
 20
17.8925
 11
0.0451965
 21
17.925
  0
LINE
  8
0
 10
0.0451965
 20
17.925
 11
0.12204
 21
17.9526
  0
LINE
  8
0
 10
0.12204
 20
17.9526
 11
0.200455
 21
17.9754
  0
LINE
  8
0
 10
0.200455
 20
17.9754
 11
0.280167
 21
17.9932
  0
LINE
  8
0
 10
0.280167
 20
17.9932
 11
0.360825
 21
18.006
  0
LINE
  8
0
 10
0.360825
 20
18.006
 11
0.442123
 21
18.0137
  0
LINE
  8
0
 10
0.442123
 20
18.0137
 11
0.523758
 21
18.0162
  0
LINE
  8
0
 10
0.523758
 20
18.0162
 11
0.605392
 21
18.0137
  0
LINE
  8
0
 10
0.605392
 20
18.0137
 11
0.686691
 21
18.006
  0
LINE
  8
0
 10
0.686691
 20
18.006
 11
0.767349
 21
17.9932
  0
LINE
  8
0
 10
0.767349
 20
17.9932
 11
0.847061
 21
17.9754
  0
LINE
  8
0
 10
0.847061
 20
17.9754
 11
0.925476
 21
17.9526
  0
LINE
  8
0
 10
0.925476
 20
17.9526
 11
1.0023
 21
17.925
  0
LINE
  8
0
 10
1.0023
 20
17.925
 11
1.07726
 21
17.8925
  0
LINE
  8
0
 10
1.07726
 20
17.8925
 11
1.15002
 21
17.8554
  0
LINE
  8
0
 10
1.15002
 20
17.8554
 11
1.22032
 21
17.8139
  0
LINE
  8
0
 10
1.22032
 20
17.8139
 11
1.28786
 21
17.768
  0
LINE
  8
0
 10
1.28786
 20
17.768
 11
1.35239
 21
17.7179
  0
LINE
  8
0
 10
1.35239
 20
17.7179
 11
1.41365
 21
17.6639
  0
LINE
  8
0
 10
1.41365
 20
17.6639
 11
1.47141
 21
17.6062
  0
LINE
  8
0
 10
1.47141
 20
17.6062
 11
1.52541
 21
17.5449
  0
LINE
  8
0
 10
1.52541
 20
17.5449
 11
1.57547
 21
17.4804
  0
LINE
  8
0
 10
1.57547
 20
17.4804
 11
1.62137
 21
17.4128
  0
LINE
  8
0
 10
1.62137
 20
17.4128
 11
1.66295
 21
17.3425
  0
LINE
  8
0
 10
1.66295
 20
17.3425
 11
1.70001
 21
17.2698
  0
LINE
  8
0
 10
1.70001
 20
17.2698
 11
1.73245
 21
17.1948
  0
LINE
  8
0
 10
1.73245
 20
17.1948
 11
1.76012
 21
17.118
  0
LINE
  8
0
 10
1.76012
 20
17.118
 11
1.7829
 21
17.0395
  0
LINE
  8
0
 10
1.7829
 20
17.0395
 11
1.80072
 21
16.9598
  0
LINE
  8
0
 10
1.80072
 20
16.9598
 11
1.81349
 21
16.8792
  0
LINE
  8
0
 10
1.81349
 20
16.8792
 11
1.82118
 21
16.7979
  0
LINE
  8
0
 10
1.82118
 20
16.7979
 11
1.82375
 21
16.7162
  0
LINE
  8
0
 10
1.82375
 20
16.7162
 11
1.82118
 21
16.6346
  0
LINE
  8
0
 10
1.82118
 20
16.6346
 11
1.81349
 21
16.5533
  0
LINE
  8
0
 10
1.81349
 20
16.5533
 11
1.80072
 21
16.4726
  0
LINE
  8
0
 10
1.80072
 20
16.4726
 11
1.7829
 21
16.3929
  0
LINE
  8
0
 10
1.7829
 20
16.3929
 11
1.76012
 21
16.3145
  0
LINE
  8
0
 10
1.76012
 20
16.3145
 11
1.73245
 21
16.2377
  0
LINE
  8
0
 10
1.73245
 20
16.2377
 11
1.70001
 21
16.1627
  0
LINE
  8
0
 10
1.70001
 20
16.1627
 11
1.66295
 21
16.09
  0
LINE
  8
0
 10
1.66295
 20
16.09
 11
1.62137
 21
16.0197
  0
LINE
  8
0
 10
1.62137
 20
16.0197
 11
1.57547
 21
15.9521
  0
LINE
  8
0
 10
1.57547
 20
15.9521
 11
1.52541
 21
15.8876
  0
LINE
  8
0
 10
1.52541
 20
15.8876
 11
1.47141
 21
15.8263
  0
LINE
  8
0
 10
1.47141
 20
15.8263
 11
1.41365
 21
15.7686
  0
LINE
  8
0
 10
1.41365
 20
15.7686
 11
1.35239
 21
15.7146
  0
LINE
  8
0
 10
1.35239
 20
15.7146
 11
1.28786
 21
15.6645
  0
LINE
  8
0
 10
1.28786
 20
15.6645
 11
1.22032
 21
15.6186
  0
LINE
  8
0
 10
1.22032
 20
15.6186
 11
1.15002
 21
15.577
  0
LINE
  8
0
 10
1.15002
 20
15.577
 11
1.07726
 21
15.54
  0
LINE
  8
0
 10
1.07726
 20
15.54
 11
1.0023
 21
15.5075
  0
LINE
  8
0
 10
1.0023
 20
15.5075
 11
0.925476
 21
15.4799
  0
LINE
  8
0
 10
0.925476
 20
15.4799
 11
0.847061
 21
15.4571
  0
LINE
  8
0
 10
0.847061
 20
15.4571
 11
0.767349
 21
15.4393
  0
LINE
  8
0
 10
0.767349
 20
15.4393
 11
0.686691
 21
15.4265
  0
LINE
  8
0
 10
0.686691
 20
15.4265
 11
0.605392
 21
15.4188
  0
LINE
  8
0
 10
0.605392
 20
15.4188
 11
0.523758
 21
15.4162
  0
LINE
  8
0
 10
0.523758
 20
15.4162
 11
0.442123
 21
15.4188
  0
LINE
  8
0
 10
3.52499
 20
3.52499
 11
3.52499
 21
17.525
  0
LINE
  8
0
 10
3.52499
 20
17.525
 11
17.525
 21
17.525
  0
LINE
  8
0
 10
17.525
 20
17.525
 11
17.525
 21
3.52499
  0
LINE
  8
0
 10
17.525
 20
3.52499
 11
3.52499
 21
3.52499
  0
LINE
  8
0
 10
-15.525
 20
1.62
 11
-15.525
 21
15.62
  0
LINE
  8
0
 10
-15.525
 20
15.62
 11
-1.52499
 21
15.62
  0
LINE
  8
0
 10
-1.52499
 20
15.62
 11
-1.52499
 21
1.62
  0
LINE
  8
0
 10
-1.52499
 20
1.62
 11
-15.525
 21
1.62
  0
LINE
  8
0
 10
19.0159
 20
1.1313
 11
18.9346
 21
1.13899
  0
LINE
  8
0
 10
18.9346
 20
1.13899
 11
18.8539
 21
1.15176
  0
LINE
  8
0
 10
18.8539
 20
1.15176
 11
18.7742
 21
1.16959
  0
LINE
  8
0
 10
18.7742
 20
1.16959
 11
18.6958
 21
1.19237
  0
LINE
  8
0
 10
18.6958
 20
1.19237
 11
18.6189
 21
1.22003
  0
LINE
  8
0
 10
18.6189
 20
1.22003
 11
18.544
 21
1.25247
  0
LINE
  8
0
 10
18.544
 20
1.25247
 11
18.4712
 21
1.28955
  0
LINE
  8
0
 10
18.4712
 20
1.28955
 11
18.4009
 21
1.33112
  0
LINE
  8
0
 10
18.4009
 20
1.33112
 11
18.3334
 21
1.37701
  0
LINE
  8
0
 10
18.3334
 20
1.37701
 11
18.2688
 21
1.42708
  0
LINE
  8
0
 10
18.2688
 20
1.42708
 11
18.2076
 21
1.48108
  0
LINE
  8
0
 10
18.2076
 20
1.48108
 11
18.1498
 21
1.53883
  0
LINE
  8
0
 10
18.1498
 20
1.53883
 11
18.0958
 21
1.6001
  0
LINE
  8
0
 10
18.0958
 20
1.6001
 11
18.0458
 21
1.66463
  0
LINE
  8
0
 10
18.0458
 20
1.66463
 11
17.9999
 21
1.73216
  0
LINE
  8
0
 10
17.9999
 20
1.73216
 11
17.9583
 21
1.80246
  0
LINE
  8
0
 10
17.9583
 20
1.80246
 11
17.9212
 21
1.87523
  0
LINE
  8
0
 10
17.9212
 20
1.87523
 11
17.8888
 21
1.95018
  0
LINE
  8
0
 10
17.8888
 20
1.95018
 11
17.8611
 21
2.02702
  0
LINE
  8
0
 10
17.8611
 20
2.02702
 11
17.8383
 21
2.10544
  0
LINE
  8
0
 10
17.8383
 20
2.10544
 11
17.8205
 21
2.18515
  0
LINE
  8
0
 10
17.8205
 20
2.18515
 11
17.8077
 21
2.26581
  0
LINE
  8
0
 10
17.8077
 20
2.26581
 11
17.8001
 21
2.34712
  0
LINE
  8
0
 10
17.8001
 20
2.34712
 11
17.7975
 21
2.42874
  0
LINE
  8
0
 10
17.7975
 20
2.42874
 11
17.8001
 21
2.51038
  0
LINE
  8
0
 10
17.8001
 20
2.51038
 11
17.8077
 21
2.59167
  0
LINE
  8
0
 10
17.8077
 20
2.59167
 11
17.8205
 21
2.67233
  0
LINE
  8
0
 10
17.8205
 20
2.67233
 11
17.8383
 21
2.75204
  0
LINE
  8
0
 10
17.8383
 20
2.75204
 11
17.8611
 21
2.83046
  0
LINE
  8
0
 10
17.8611
 20
2.83046
 11
17.8888
 21
2.9073
  0
LINE
  8
0
 10
17.8888
 20
2.9073
 11
17.9212
 21
2.98225
  0
LINE
  8
0
 10
17.9212
 20
2.98225
 11
17.9583
 21
3.05502
  0
LINE
  8
0
 10
17.9583
 20
3.05502
 11
17.9999
 21
3.12532
  0
LINE
  8
0
 10
17.9999
 20
3.12532
 11
18.0458
 21
3.19286
  0
LINE
  8
0
 10
18.0458
 20
3.19286
 11
18.0958
 21
3.2574
  0
LINE
  8
0
 10
18.0958
 20
3.2574
 11
18.1498
 21
3.31865
  0
LINE
  8
0
 10
18.1498
 20
3.31865
 11
18.2076
 21
3.3764
  0
LINE
  8
0
 10
18.2076
 20
3.3764
 11
18.2688
 21
3.4304
  0
LINE
  8
0
 10
18.2688
 20
3.4304
 11
18.3334
 21
3.48047
  0
LINE
  8
0
 10
18.3334
 20
3.48047
 11
18.4009
 21
3.52637
  0
LINE
  8
0
 10
18.4009
 20
3.52637
 11
18.4712
 21
3.56795
  0
LINE
  8
0
 10
18.4712
 20
3.56795
 11
18.544
 21
3.60501
  0
LINE
  8
0
 10
18.544
 20
3.60501
 11
18.6189
 21
3.63745
  0
LINE
  8
0
 10
18.6189
 20
3.63745
 11
18.6958
 21
3.66512
  0
LINE
  8
0
 10
18.6958
 20
3.66512
 11
18.7742
 21
3.6879
  0
LINE
  8
0
 10
18.7742
 20
3.6879
 11
18.8539
 21
3.70572
  0
LINE
  8
0
 10
18.8539
 20
3.70572
 11
18.9346
 21
3.71849
  0
LINE
  8
0
 10
18.9346
 20
3.71849
 11
19.0159
 21
3.72618
  0
LINE
  8
0
 10
19.0159
 20
3.72618
 11
19.0975
 21
3.72874
  0
LINE
  8
0
 10
19.0975
 20
3.72874
 11
19.1791
 21
3.72618
  0
LINE
  8
0
 10
19.1791
 20
3.72618
 11
19.2604
 21
3.71849
  0
LINE
  8
0
 10
19.2604
 20
3.71849
 11
19.3411
 21
3.70572
  0
LINE
  8
0
 10
19.3411
 20
3.70572
 11
19.4208
 21
3.6879
  0
LINE
  8
0
 10
19.4208
 20
3.6879
 11
19.4992
 21
3.66512
  0
LINE
  8
0
 10
19.4992
 20
3.66512
 11
19.576
 21
3.63745
  0
LINE
  8
0
 10
19.576
 20
3.63745
 11
19.651
 21
3.60501
  0
LINE
  8
0
 10
19.651
 20
3.60501
 11
19.7238
 21
3.56795
  0
LINE
  8
0
 10
19.7238
 20
3.56795
 11
19.7941
 21
3.52637
  0
LINE
  8
0
 10
19.7941
 20
3.52637
 11
19.8616
 21
3.48047
  0
LINE
  8
0
 10
19.8616
 20
3.48047
 11
19.9261
 21
3.4304
  0
LINE
  8
0
 10
19.9261
 20
3.4304
 11
19.9874
 21
3.3764
  0
LINE
  8
0
 10
19.9874
 20
3.3764
 11
20.0452
 21
3.31865
  0
LINE
  8
0
 10
20.0452
 20
3.31865
 11
20.0992
 21
3.2574
  0
LINE
  8
0
 10
20.0992
 20
3.2574
 11
20.1492
 21
3.19286
  0
LINE
  8
0
 10
20.1492
 20
3.19286
 11
20.1951
 21
3.12532
  0
LINE
  8
0
 10
20.1951
 20
3.12532
 11
20.2367
 21
3.05502
  0
LINE
  8
0
 10
20.2367
 20
3.05502
 11
20.2738
 21
2.98225
  0
LINE
  8
0
 10
20.2738
 20
2.98225
 11
20.3062
 21
2.9073
  0
LINE
  8
0
 10
20.3062
 20
2.9073
 11
20.3339
 21
2.83046
  0
LINE
  8
0
 10
20.3339
 20
2.83046
 11
20.3566
 21
2.75204
  0
LINE
  8
0
 10
20.3566
 20
2.75204
 11
20.3745
 21
2.67233
  0
LINE
  8
0
 10
20.3745
 20
2.67233
 11
20.3872
 21
2.59167
  0
LINE
  8
0
 10
20.3872
 20
2.59167
 11
20.3949
 21
2.51038
  0
LINE
  8
0
 10
20.3949
 20
2.51038
 11
20.3975
 21
2.42874
  0
LINE
  8
0
 10
20.3975
 20
2.42874
 11
20.3949
 21
2.34712
  0
LINE
  8
0
 10
20.3949
 20
2.34712
 11
20.3872
 21
2.26581
  0
LINE
  8
0
 10
20.3872
 20
2.26581
 11
20.3745
 21
2.18515
  0
LINE
  8
0
 10
20.3745
 20
2.18515
 11
20.3566
 21
2.10544
  0
LINE
  8
0
 10
20.3566
 20
2.10544
 11
20.3339
 21
2.02702
  0
LINE
  8
0
 10
20.3339
 20
2.02702
 11
20.3062
 21
1.95018
  0
LINE
  8
0
 10
20.3062
 20
1.95018
 11
20.2738
 21
1.87523
  0
LINE
  8
0
 10
20.2738
 20
1.87523
 11
20.2367
 21
1.80246
  0
LINE
  8
0
 10
20.2367
 20
1.80246
 11
20.1951
 21
1.73216
  0
LINE
  8
0
 10
20.1951
 20
1.73216
 11
20.1492
 21
1.66463
  0
LINE
  8
0
 10
20.1492
 20
1.66463
 11
20.0992
 21
1.6001
  0
LINE
  8
0
 10
20.0992
 20
1.6001
 11
20.0452
 21
1.53883
  0
LINE
  8
0
 10
20.0452
 20
1.53883
 11
19.9874
 21
1.48108
  0
LINE
  8
0
 10
19.9874
 20
1.48108
 11
19.9261
 21
1.42708
  0
LINE
  8
0
 10
19.9261
 20
1.42708
 11
19.8616
 21
1.37701
  0
LINE
  8
0
 10
19.8616
 20
1.37701
 11
19.7941
 21
1.33112
  0
LINE
  8
0
 10
19.7941
 20
1.33112
 11
19.7238
 21
1.28955
  0
LINE
  8
0
 10
19.7238
 20
1.28955
 11
19.651
 21
1.25247
  0
LINE
  8
0
 10
19.651
 20
1.25247
 11
19.576
 21
1.22003
  0
LINE
  8
0
 10
19.576
 20
1.22003
 11
19.4992
 21
1.19237
  0
LINE
  8
0
 10
19.4992
 20
1.19237
 11
19.4208
 21
1.16959
  0
LINE
  8
0
 10
19.4208
 20
1.16959
 11
19.3411
 21
1.15176
  0
LINE
  8
0
 10
19.3411
 20
1.15176
 11
19.2604
 21
1.13899
  0
LINE
  8
0
 10
19.2604
 20
1.13899
 11
19.1791
 21
1.1313
  0
LINE
  8
0
 10
19.1791
 20
1.1313
 11
19.0975
 21
1.12874
  0
LINE
  8
0
 10
19.0975
 20
1.12874
 11
19.0159
 21
1.1313
  0
LINE
  8
0
 10
0.442123
 20
1.1313
 11
0.360825
 21
1.13899
  0
LINE
  8
0
 10
0.360825
 20
1.13899
 11
0.280167
 21
1.15176
  0
LINE
  8
0
 10
0.280167
 20
1.15176
 11
0.200455
 21
1.16959
  0
LINE
  8
0
 10
0.200455
 20
1.16959
 11
0.12204
 21
1.19237
  0
LINE
  8
0
 10
0.12204
 20
1.19237
 11
0.0451965
 21
1.22003
  0
LINE
  8
0
 10
0.0451965
 20
1.22003
 11
-0.0297546
 21
1.25247
  0
LINE
  8
0
 10
-0.0297546
 20
1.25247
 11
-0.102524
 21
1.28955
  0
LINE
  8
0
 10
-0.102524
 20
1.28955
 11
-0.172821
 21
1.33112
  0
LINE
  8
0
 10
-0.172821
 20
1.33112
 11
-0.240356
 21
1.37701
  0
LINE
  8
0
 10
-0.240356
 20
1.37701
 11
-0.304901
 21
1.42708
  0
LINE
  8
0
 10
-0.304901
 20
1.42708
 11
-0.36615
 21
1.48108
  0
LINE
  8
0
 10
-0.36615
 20
1.48108
 11
-0.423904
 21
1.53883
  0
LINE
  8
0
 10
-0.423904
 20
1.53883
 11
-0.477905
 21
1.6001
  0
LINE
  8
0
 10
-0.477905
 20
1.6001
 11
-0.527969
 21
1.66463
  0
LINE
  8
0
 10
-0.527969
 20
1.66463
 11
-0.573868
 21
1.73216
  0
LINE
  8
0
 10
-0.573868
 20
1.73216
 11
-0.615448
 21
1.80246
  0
LINE
  8
0
 10
-0.615448
 20
1.80246
 11
-0.652512
 21
1.87523
  0
LINE
  8
0
 10
-0.652512
 20
1.87523
 11
-0.684952
 21
1.95018
  0
LINE
  8
0
 10
-0.684952
 20
1.95018
 11
-0.712616
 21
2.02702
  0
LINE
  8
0
 10
-0.712616
 20
2.02702
 11
-0.735397
 21
2.10544
  0
LINE
  8
0
 10
-0.735397
 20
2.10544
 11
-0.75322
 21
2.18515
  0
LINE
  8
0
 10
-0.75322
 20
2.18515
 11
-0.765991
 21
2.26581
  0
LINE
  8
0
 10
-0.765991
 20
2.26581
 11
-0.773682
 21
2.34712
  0
LINE
  8
0
 10
-0.773682
 20
2.34712
 11
-0.776245
 21
2.42874
  0
LINE
  8
0
 10
-0.776245
 20
2.42874
 11
-0.773682
 21
2.51038
  0
LINE
  8
0
 10
-0.773682
 20
2.51038
 11
-0.765991
 21
2.59167
  0
LINE
  8
0
 10
-0.765991
 20
2.59167
 11
-0.75322
 21
2.67233
  0
LINE
  8
0
 10
-0.75322
 20
2.67233
 11
-0.735397
 21
2.75204
  0
LINE
  8
0
 10
-0.735397
 20
2.75204
 11
-0.712616
 21
2.83046
  0
LINE
  8
0
 10
-0.712616
 20
2.83046
 11
-0.684952
 21
2.9073
  0
LINE
  8
0
 10
-0.684952
 20
2.9073
 11
-0.652512
 21
2.98225
  0
LINE
  8
0
 10
-0.652512
 20
2.98225
 11
-0.615448
 21
3.05502
  0
LINE
  8
0
 10
-0.615448
 20
3.05502
 11
-0.573868
 21
3.12532
  0
LINE
  8
0
 10
-0.573868
 20
3.12532
 11
-0.527969
 21
3.19286
  0
LINE
  8
0
 10
-0.527969
 20
3.19286
 11
-0.477905
 21
3.2574
  0
LINE
  8
0
 10
-0.477905
 20
3.2574
 11
-0.423904
 21
3.31865
  0
LINE
  8
0
 10
-0.423904
 20
3.31865
 11
-0.36615
 21
3.3764
  0
LINE
  8
0
 10
-0.36615
 20
3.3764
 11
-0.304901
 21
3.4304
  0
LINE
  8
0
 10
-0.304901
 20
3.4304
 11
-0.240356
 21
3.48047
  0
LINE
  8
0
 10
-0.240356
 20
3.48047
 11
-0.172821
 21
3.52637
  0
LINE
  8
0
 10
-0.172821
 20
3.52637
 11
-0.102524
 21
3.56795
  0
LINE
  8
0
 10
-0.102524
 20
3.56795
 11
-0.0297546
 21
3.60501
  0
LINE
  8
0
 10
-0.0297546
 20
3.60501
 11
0.0451965
 21
3.63745
  0
LINE
  8
0
 10
0.0451965
 20
3.63745
 11
0.12204
 21
3.66512
  0
LINE
  8
0
 10
0.12204
 20
3.66512
 11
0.200455
 21
3.6879
  0
LINE
  8
0
 10
0.200455
 20
3.6879
 11
0.280167
 21
3.70572
  0
LINE
  8
0
 10
0.280167
 20
3.70572
 11
0.360825
 21
3.71849
  0
LINE
  8
0
 10
0.360825
 20
3.71849
 11
0.442123
 21
3.72618
  0
LINE
  8
0
 10
0.442123
 20
3.72618
 11
0.523758
 21
3.72874
  0
LINE
  8
0
 10
0.523758
 20
3.72874
 11
0.605392
 21
3.72618
  0
LINE
  8
0
 10
0.605392
 20
3.72618
 11
0.686691
 21
3.71849
  0
LINE
  8
0
 10
0.686691
 20
3.71849
 11
0.767349
 21
3.70572
  0
LINE
  8
0
 10
0.767349
 20
3.70572
 11
0.847061
 21
3.6879
  0
LINE
  8
0
 10
0.847061
 20
3.6879
 11
0.925476
 21
3.66512
  0
LINE
  8
0
 10
0.925476
 20
3.66512
 11
1.0023
 21
3.63745
  0
LINE
  8
0
 10
1.0023
 20
3.63745
 11
1.07726
 21
3.60501
  0
LINE
  8
0
 10
1.07726
 20
3.60501
 11
1.15002
 21
3.56795
  0
LINE
  8
0
 10
1.15002
 20
3.56795
 11
1.22032
 21
3.52637
  0
LINE
  8
0
 10
1.22032
 20
3.52637
 11
1.28786
 21
3.48047
  0
LINE
  8
0
 10
1.28786
 20
3.48047
 11
1.35239
 21
3.4304
  0
LINE
  8
0
 10
1.35239
 20
3.4304
 11
1.41365
 21
3.3764
  0
LINE
  8
0
 10
1.41365
 20
3.3764
 11
1.47141
 21
3.31865
  0
LINE
  8
0
 10
1.47141
 20
3.31865
 11
1.52541
 21
3.2574
  0
LINE
  8
0
 10
1.52541
 20
3.2574
 11
1.57547
 21
3.19286
  0
LINE
  8
0
 10
1.57547
 20
3.19286
 11
1.62137
 21
3.12532
  0
LINE
  8
0
 10
1.62137
 20
3.12532
 11
1.66295
 21
3.05502
  0
LINE
  8
0
 10
1.66295
 20
3.05502
 11
1.70001
 21
2.98225
  0
LINE
  8
0
 10
1.70001
 20
2.98225
 11
1.73245
 21
2.9073
  0
LINE
  8
0
 10
1.73245
 20
2.9073
 11
1.76012
 21
2.83046
  0
LINE
  8
0
 10
1.76012
 20
2.83046
 11
1.7829
 21
2.75204
  0
LINE
  8
0
 10
1.7829
 20
2.75204
 11
1.80072
 21
2.67233
  0
LINE
  8
0
 10
1.80072
 20
2.67233
 11
1.81349
 21
2.59167
  0
LINE
  8
0
 10
1.81349
 20
2.59167
 11
1.82118
 21
2.51038
  0
LINE
  8
0
 10
1.82118
 20
2.51038
 11
1.82375
 21
2.42874
  0
LINE
  8
0
 10
1.82375
 20
2.42874
 11
1.82118
 21
2.34712
  0
LINE
  8
0
 10
1.82118
 20
2.34712
 11
1.81349
 21
2.26581
  0
LINE
  8
0
 10
1.81349
 20
2.26581
 11
1.80072
 21
2.18515
  0
LINE
  8
0
 10
1.80072
 20
2.18515
 11
1.7829
 21
2.10544
  0
LINE
  8
0
 10
1.7829
 20
2.10544
 11
1.76012
 21
2.02702
  0
LINE
  8
0
 10
1.76012
 20
2.02702
 11
1.73245
 21
1.95018
  0
LINE
  8
0
 10
1.73245
 20
1.95018
 11
1.70001
 21
1.87523
  0
LINE
  8
0
 10
1.70001
 20
1.87523
 11
1.66295
 21
1.80246
  0
LINE
  8
0
 10
1.66295
 20
1.80246
 11
1.62137
 21
1.73216
  0
LINE
  8
0
 10
1.62137
 20
1.73216
 11
1.57547
 21
1.66463
  0
LINE
  8
0
 10
1.57547
 20
1.66463
 11
1.52541
 21
1.6001
  0
LINE
  8
0
 10
1.52541
 20
1.6001
 11
1.47141
 21
1.53883
  0
LINE
  8
0
 10
1.47141
 20
1.53883
 11
1.41365
 21
1.48108
  0
LINE
  8
0
 10
1.41365
 20
1.48108
 11
1.35239
 21
1.42708
  0
LINE
  8
0
 10
1.35239
 20
1.42708
 11
1.28786
 21
1.37701
  0
LINE
  8
0
 10
1.28786
 20
1.37701
 11
1.22032
 21
1.33112
  0
LINE
  8
0
 10
1.22032
 20
1.33112
 11
1.15002
 21
1.28955
  0
LINE
  8
0
 10
1.15002
 20
1.28955
 11
1.07726
 21
1.25247
  0
LINE
  8
0
 10
1.07726
 20
1.25247
 11
1.0023
 21
1.22003
  0
LINE
  8
0
 10
1.0023
 20
1.22003
 11
0.925476
 21
1.19237
  0
LINE
  8
0
 10
0.925476
 20
1.19237
 11
0.847061
 21
1.16959
  0
LINE
  8
0
 10
0.847061
 20
1.16959
 11
0.767349
 21
1.15176
  0
LINE
  8
0
 10
0.767349
 20
1.15176
 11
0.686691
 21
1.13899
  0
LINE
  8
0
 10
0.686691
 20
1.13899
 11
0.605392
 21
1.1313
  0
LINE
  8
0
 10
0.605392
 20
1.1313
 11
0.523758
 21
1.12874
  0
LINE
  8
0
 10
0.523758
 20
1.12874
 11
0.442123
 21
1.1313
  0
ENDSEC
  0
SECTION
  2
OBJECTS
  0
DICTIONARY
  0
ENDSEC
  0
EOF
