  0
SECTION
  2
BLOCKS
  0
ENDSEC
  0
SECTION
  2
ENTITIES
  0
LINE
  8
0
 10
93.034
 20
25.4814
 11
93.3128
 21
25.6235
  0
LINE
  8
0
 10
93.3128
 20
25.6235
 11
93.534
 21
25.8447
  0
LINE
  8
0
 10
93.534
 20
25.8447
 11
93.6761
 21
26.1235
  0
LINE
  8
0
 10
93.6761
 20
26.1235
 11
93.725
 21
26.4325
  0
LINE
  8
0
 10
93.725
 20
26.4325
 11
93.725
 21
59.3875
  0
LINE
  8
0
 10
93.725
 20
59.3875
 11
93.6761
 21
59.6965
  0
LINE
  8
0
 10
93.6761
 20
59.6965
 11
93.534
 21
59.9753
  0
LINE
  8
0
 10
93.534
 20
59.9753
 11
93.3128
 21
60.1965
  0
LINE
  8
0
 10
93.3128
 20
60.1965
 11
93.034
 21
60.3385
  0
LINE
  8
0
 10
93.034
 20
60.3385
 11
92.725
 21
60.3875
  0
LINE
  8
0
 10
92.725
 20
60.3875
 11
75.675
 21
60.3875
  0
LINE
  8
0
 10
75.675
 20
60.3875
 11
75.366
 21
60.4364
  0
LINE
  8
0
 10
75.366
 20
60.4364
 11
75.0872
 21
60.5785
  0
LINE
  8
0
 10
75.0872
 20
60.5785
 11
74.866
 21
60.7997
  0
LINE
  8
0
 10
74.866
 20
60.7997
 11
74.724
 21
61.0785
  0
LINE
  8
0
 10
74.724
 20
61.0785
 11
74.675
 21
61.3875
  0
LINE
  8
0
 10
74.675
 20
61.3875
 11
74.675
 21
61.6735
  0
LINE
  8
0
 10
74.675
 20
61.6735
 11
74.6261
 21
61.9825
  0
LINE
  8
0
 10
74.6261
 20
61.9825
 11
74.484
 21
62.2613
  0
LINE
  8
0
 10
74.484
 20
62.2613
 11
74.2628
 21
62.4825
  0
LINE
  8
0
 10
74.2628
 20
62.4825
 11
73.984
 21
62.6245
  0
LINE
  8
0
 10
73.984
 20
62.6245
 11
73.675
 21
62.6735
  0
LINE
  8
0
 10
73.675
 20
62.6735
 11
61.675
 21
62.6735
  0
LINE
  8
0
 10
61.675
 20
62.6735
 11
61.366
 21
62.6245
  0
LINE
  8
0
 10
61.366
 20
62.6245
 11
61.0872
 21
62.4825
  0
LINE
  8
0
 10
61.0872
 20
62.4825
 11
60.866
 21
62.2613
  0
LINE
  8
0
 10
60.866
 20
62.2613
 11
60.7239
 21
61.9825
  0
LINE
  8
0
 10
60.7239
 20
61.9825
 11
60.675
 21
61.6735
  0
LINE
  8
0
 10
60.675
 20
61.6735
 11
60.675
 21
26.4325
  0
LINE
  8
0
 10
60.675
 20
26.4325
 11
60.7239
 21
26.1235
  0
LINE
  8
0
 10
60.7239
 20
26.1235
 11
60.866
 21
25.8447
  0
LINE
  8
0
 10
60.866
 20
25.8447
 11
61.0872
 21
25.6235
  0
LINE
  8
0
 10
61.0872
 20
25.6235
 11
61.366
 21
25.4814
  0
LINE
  8
0
 10
61.366
 20
25.4814
 11
61.675
 21
25.4325
  0
LINE
  8
0
 10
61.675
 20
25.4325
 11
92.725
 21
25.4325
  0
LINE
  8
0
 10
92.725
 20
25.4325
 11
93.034
 21
25.4814
  0
LINE
  8
0
 10
76.0257
 20
40.2485
 11
74.9664
 21
40.7882
  0
LINE
  8
0
 10
74.9664
 20
40.7882
 11
74.1257
 21
41.6289
  0
LINE
  8
0
 10
74.1257
 20
41.6289
 11
73.586
 21
42.6882
  0
LINE
  8
0
 10
73.586
 20
42.6882
 11
73.4
 21
43.8625
  0
LINE
  8
0
 10
73.4
 20
43.8625
 11
73.586
 21
45.0368
  0
LINE
  8
0
 10
73.586
 20
45.0368
 11
74.1257
 21
46.0961
  0
LINE
  8
0
 10
74.1257
 20
46.0961
 11
74.9664
 21
46.9368
  0
LINE
  8
0
 10
74.9664
 20
46.9368
 11
76.0257
 21
47.4765
  0
LINE
  8
0
 10
76.0257
 20
47.4765
 11
77.2
 21
47.6625
  0
LINE
  8
0
 10
77.2
 20
47.6625
 11
78.3743
 21
47.4765
  0
LINE
  8
0
 10
78.3743
 20
47.4765
 11
79.4336
 21
46.9368
  0
LINE
  8
0
 10
79.4336
 20
46.9368
 11
80.2743
 21
46.0961
  0
LINE
  8
0
 10
80.2743
 20
46.0961
 11
80.814
 21
45.0368
  0
LINE
  8
0
 10
80.814
 20
45.0368
 11
81
 21
43.8625
  0
LINE
  8
0
 10
81
 20
43.8625
 11
80.814
 21
42.6882
  0
LINE
  8
0
 10
80.814
 20
42.6882
 11
80.2743
 21
41.6289
  0
LINE
  8
0
 10
80.2743
 20
41.6289
 11
79.4336
 21
40.7882
  0
LINE
  8
0
 10
79.4336
 20
40.7882
 11
78.3743
 21
40.2485
  0
LINE
  8
0
 10
78.3743
 20
40.2485
 11
77.2
 21
40.0625
  0
LINE
  8
0
 10
77.2
 20
40.0625
 11
76.0257
 21
40.2485
  0
ENDSEC
  0
SECTION
  2
OBJECTS
  0
DICTIONARY
  0
ENDSEC
  0
EOF
