  0
SECTION
  2
BLOCKS
  0
ENDSEC
  0
SECTION
  2
ENTITIES
  0
LINE
  8
0
 10
-36.6527
 20
-7.17764
 11
-35.5434
 21
-7.0728
  0
LINE
  8
0
 10
-35.5434
 20
-7.0728
 11
18.1753
 21
-1.89711
  0
LINE
  8
0
 10
18.1753
 20
-1.89711
 11
18.2374
 21
-1.88728
  0
LINE
  8
0
 10
18.2374
 20
-1.88728
 11
18.2987
 21
-1.87358
  0
LINE
  8
0
 10
18.2987
 20
-1.87358
 11
18.359
 21
-1.85605
  0
LINE
  8
0
 10
18.359
 20
-1.85605
 11
18.4181
 21
-1.83476
  0
LINE
  8
0
 10
18.4181
 20
-1.83476
 11
18.4758
 21
-1.80981
  0
LINE
  8
0
 10
18.4758
 20
-1.80981
 11
18.5317
 21
-1.7813
  0
LINE
  8
0
 10
18.5317
 20
-1.7813
 11
18.5858
 21
-1.74931
  0
LINE
  8
0
 10
18.5858
 20
-1.74931
 11
18.6378
 21
-1.714
  0
LINE
  8
0
 10
18.6378
 20
-1.714
 11
18.6874
 21
-1.67551
  0
LINE
  8
0
 10
18.6874
 20
-1.67551
 11
18.7345
 21
-1.63396
  0
LINE
  8
0
 10
18.7345
 20
-1.63396
 11
18.7789
 21
-1.58954
  0
LINE
  8
0
 10
18.7789
 20
-1.58954
 11
18.8205
 21
-1.54242
  0
LINE
  8
0
 10
18.8205
 20
-1.54242
 11
18.859
 21
-1.49278
  0
LINE
  8
0
 10
18.859
 20
-1.49278
 11
18.8943
 21
-1.44081
  0
LINE
  8
0
 10
18.8943
 20
-1.44081
 11
18.9263
 21
-1.38675
  0
LINE
  8
0
 10
18.9263
 20
-1.38675
 11
18.9548
 21
-1.33076
  0
LINE
  8
0
 10
18.9548
 20
-1.33076
 11
18.9798
 21
-1.27312
  0
LINE
  8
0
 10
18.9798
 20
-1.27312
 11
19.001
 21
-1.214
  0
LINE
  8
0
 10
19.001
 20
-1.214
 11
19.0186
 21
-1.15369
  0
LINE
  8
0
 10
19.0186
 20
-1.15369
 11
19.0323
 21
-1.09238
  0
LINE
  8
0
 10
19.0323
 20
-1.09238
 11
19.0421
 21
-1.03032
  0
LINE
  8
0
 10
19.0421
 20
-1.03032
 11
19.048
 21
-0.967789
  0
LINE
  8
0
 10
19.048
 20
-0.967789
 11
19.05
 21
-0.904999
  0
LINE
  8
0
 10
19.05
 20
-0.904999
 11
19.05
 21
18.145
  0
LINE
  8
0
 10
19.05
 20
18.145
 11
19.048
 21
18.2078
  0
LINE
  8
0
 10
19.048
 20
18.2078
 11
19.0421
 21
18.2703
  0
LINE
  8
0
 10
19.0421
 20
18.2703
 11
19.0323
 21
18.3324
  0
LINE
  8
0
 10
19.0323
 20
18.3324
 11
19.0186
 21
18.3937
  0
LINE
  8
0
 10
19.0186
 20
18.3937
 11
19.001
 21
18.454
  0
LINE
  8
0
 10
19.001
 20
18.454
 11
18.9798
 21
18.5131
  0
LINE
  8
0
 10
18.9798
 20
18.5131
 11
18.9548
 21
18.5708
  0
LINE
  8
0
 10
18.9548
 20
18.5708
 11
18.9263
 21
18.6267
  0
LINE
  8
0
 10
18.9263
 20
18.6267
 11
18.8943
 21
18.6808
  0
LINE
  8
0
 10
18.8943
 20
18.6808
 11
18.859
 21
18.7328
  0
LINE
  8
0
 10
18.859
 20
18.7328
 11
18.8205
 21
18.7824
  0
LINE
  8
0
 10
18.8205
 20
18.7824
 11
18.7789
 21
18.8295
  0
LINE
  8
0
 10
18.7789
 20
18.8295
 11
18.7345
 21
18.8739
  0
LINE
  8
0
 10
18.7345
 20
18.8739
 11
18.6874
 21
18.9155
  0
LINE
  8
0
 10
18.6874
 20
18.9155
 11
18.6378
 21
18.954
  0
LINE
  8
0
 10
18.6378
 20
18.954
 11
18.5858
 21
18.9893
  0
LINE
  8
0
 10
18.5858
 20
18.9893
 11
18.5317
 21
19.0213
  0
LINE
  8
0
 10
18.5317
 20
19.0213
 11
18.4758
 21
19.0498
  0
LINE
  8
0
 10
18.4758
 20
19.0498
 11
18.4181
 21
19.0748
  0
LINE
  8
0
 10
18.4181
 20
19.0748
 11
18.359
 21
19.096
  0
LINE
  8
0
 10
18.359
 20
19.096
 11
18.2987
 21
19.1136
  0
LINE
  8
0
 10
18.2987
 20
19.1136
 11
18.2374
 21
19.1273
  0
LINE
  8
0
 10
18.2374
 20
19.1273
 11
-34.4428
 21
27.9485
  0
LINE
  8
0
 10
-34.4428
 20
27.9485
 11
-35.5434
 21
28.1228
  0
LINE
  8
0
 10
-35.5434
 20
28.1228
 11
-36.6527
 21
28.2276
  0
LINE
  8
0
 10
-36.6527
 20
28.2276
 11
-37.7665
 21
28.2626
  0
LINE
  8
0
 10
-37.7665
 20
28.2626
 11
-38.8803
 21
28.2276
  0
LINE
  8
0
 10
-38.8803
 20
28.2276
 11
-39.9896
 21
28.1228
  0
LINE
  8
0
 10
-39.9896
 20
28.1228
 11
-41.0901
 21
27.9485
  0
LINE
  8
0
 10
-41.0901
 20
27.9485
 11
-42.1777
 21
27.7054
  0
LINE
  8
0
 10
-42.1777
 20
27.7054
 11
-43.2476
 21
27.3946
  0
LINE
  8
0
 10
-43.2476
 20
27.3946
 11
-44.2962
 21
27.017
  0
LINE
  8
0
 10
-44.2962
 20
27.017
 11
-45.3189
 21
26.5745
  0
LINE
  8
0
 10
-45.3189
 20
26.5745
 11
-46.3118
 21
26.0686
  0
LINE
  8
0
 10
-46.3118
 20
26.0686
 11
-47.2707
 21
25.5014
  0
LINE
  8
0
 10
-47.2707
 20
25.5014
 11
-48.1924
 21
24.8751
  0
LINE
  8
0
 10
-48.1924
 20
24.8751
 11
-49.0729
 21
24.1921
  0
LINE
  8
0
 10
-49.0729
 20
24.1921
 11
-49.9087
 21
23.4552
  0
LINE
  8
0
 10
-49.9087
 20
23.4552
 11
-50.6967
 21
22.6672
  0
LINE
  8
0
 10
-50.6967
 20
22.6672
 11
-51.4336
 21
21.8314
  0
LINE
  8
0
 10
-51.4336
 20
21.8314
 11
-52.1166
 21
20.9509
  0
LINE
  8
0
 10
-52.1166
 20
20.9509
 11
-52.7429
 21
20.0292
  0
LINE
  8
0
 10
-52.7429
 20
20.0292
 11
-53.3101
 21
19.0703
  0
LINE
  8
0
 10
-53.3101
 20
19.0703
 11
-53.816
 21
18.0774
  0
LINE
  8
0
 10
-53.816
 20
18.0774
 11
-54.2585
 21
17.0547
  0
LINE
  8
0
 10
-54.2585
 20
17.0547
 11
-54.6361
 21
16.0061
  0
LINE
  8
0
 10
-54.6361
 20
16.0061
 11
-54.9469
 21
14.9362
  0
LINE
  8
0
 10
-54.9469
 20
14.9362
 11
-55.19
 21
13.8486
  0
LINE
  8
0
 10
-55.19
 20
13.8486
 11
-55.3643
 21
12.7481
  0
LINE
  8
0
 10
-55.3643
 20
12.7481
 11
-55.4691
 21
11.6388
  0
LINE
  8
0
 10
-55.4691
 20
11.6388
 11
-55.5042
 21
10.525
  0
LINE
  8
0
 10
-55.5042
 20
10.525
 11
-55.4691
 21
9.41116
  0
LINE
  8
0
 10
-55.4691
 20
9.41116
 11
-55.3643
 21
8.30193
  0
LINE
  8
0
 10
-55.3643
 20
8.30193
 11
-55.19
 21
7.20134
  0
LINE
  8
0
 10
-55.19
 20
7.20134
 11
-54.9469
 21
6.11377
  0
LINE
  8
0
 10
-54.9469
 20
6.11377
 11
-54.6361
 21
5.04391
  0
LINE
  8
0
 10
-54.6361
 20
5.04391
 11
-54.2585
 21
3.99527
  0
LINE
  8
0
 10
-54.2585
 20
3.99527
 11
-53.816
 21
2.97261
  0
LINE
  8
0
 10
-53.816
 20
2.97261
 11
-53.3101
 21
1.97971
  0
LINE
  8
0
 10
-53.3101
 20
1.97971
 11
-52.7429
 21
1.02077
  0
LINE
  8
0
 10
-52.7429
 20
1.02077
 11
-52.1166
 21
0.0990448
  0
LINE
  8
0
 10
-52.1166
 20
0.0990448
 11
-51.4337
 21
-0.781326
  0
LINE
  8
0
 10
-51.4337
 20
-0.781326
 11
-50.6967
 21
-1.61723
  0
LINE
  8
0
 10
-50.6967
 20
-1.61723
 11
-49.9087
 21
-2.40521
  0
LINE
  8
0
 10
-49.9087
 20
-2.40521
 11
-49.0729
 21
-3.14214
  0
LINE
  8
0
 10
-49.0729
 20
-3.14214
 11
-48.1924
 21
-3.82507
  0
LINE
  8
0
 10
-48.1924
 20
-3.82507
 11
-47.2707
 21
-4.45143
  0
LINE
  8
0
 10
-47.2707
 20
-4.45143
 11
-46.3118
 21
-5.01855
  0
LINE
  8
0
 10
-46.3118
 20
-5.01855
 11
-45.3189
 21
-5.52448
  0
LINE
  8
0
 10
-45.3189
 20
-5.52448
 11
-44.2962
 21
-5.96703
  0
LINE
  8
0
 10
-44.2962
 20
-5.96703
 11
-43.2476
 21
-6.34457
  0
LINE
  8
0
 10
-43.2476
 20
-6.34457
 11
-42.1777
 21
-6.65538
  0
LINE
  8
0
 10
-42.1777
 20
-6.65538
 11
-41.0901
 21
-6.89848
  0
LINE
  8
0
 10
-41.0901
 20
-6.89848
 11
-39.9896
 21
-7.0728
  0
LINE
  8
0
 10
-39.9896
 20
-7.0728
 11
-38.8803
 21
-7.17764
  0
LINE
  8
0
 10
-38.8803
 20
-7.17764
 11
-37.7665
 21
-7.21265
  0
LINE
  8
0
 10
-37.7665
 20
-7.21265
 11
-36.6527
 21
-7.17764
  0
LINE
  8
0
 10
-37.8481
 20
22.7276
 11
-37.9294
 21
22.7352
  0
LINE
  8
0
 10
-37.9294
 20
22.7352
 11
-38.0101
 21
22.748
  0
LINE
  8
0
 10
-38.0101
 20
22.748
 11
-38.0898
 21
22.7658
  0
LINE
  8
0
 10
-38.0898
 20
22.7658
 11
-38.1682
 21
22.7886
  0
LINE
  8
0
 10
-38.1682
 20
22.7886
 11
-38.2451
 21
22.8163
  0
LINE
  8
0
 10
-38.2451
 20
22.8163
 11
-38.32
 21
22.8487
  0
LINE
  8
0
 10
-38.32
 20
22.8487
 11
-38.3928
 21
22.8858
  0
LINE
  8
0
 10
-38.3928
 20
22.8858
 11
-38.4631
 21
22.9274
  0
LINE
  8
0
 10
-38.4631
 20
22.9274
 11
-38.5306
 21
22.9733
  0
LINE
  8
0
 10
-38.5306
 20
22.9733
 11
-38.5951
 21
23.0233
  0
LINE
  8
0
 10
-38.5951
 20
23.0233
 11
-38.6564
 21
23.0773
  0
LINE
  8
0
 10
-38.6564
 20
23.0773
 11
-38.7141
 21
23.1351
  0
LINE
  8
0
 10
-38.7141
 20
23.1351
 11
-38.7682
 21
23.1963
  0
LINE
  8
0
 10
-38.7682
 20
23.1963
 11
-38.8182
 21
23.2609
  0
LINE
  8
0
 10
-38.8182
 20
23.2609
 11
-38.8641
 21
23.3284
  0
LINE
  8
0
 10
-38.8641
 20
23.3284
 11
-38.9057
 21
23.3987
  0
LINE
  8
0
 10
-38.9057
 20
23.3987
 11
-38.9428
 21
23.4715
  0
LINE
  8
0
 10
-38.9428
 20
23.4715
 11
-38.9752
 21
23.5464
  0
LINE
  8
0
 10
-38.9752
 20
23.5464
 11
-39.0029
 21
23.6233
  0
LINE
  8
0
 10
-39.0029
 20
23.6233
 11
-39.0257
 21
23.7017
  0
LINE
  8
0
 10
-39.0257
 20
23.7017
 11
-39.0435
 21
23.7814
  0
LINE
  8
0
 10
-39.0435
 20
23.7814
 11
-39.0562
 21
23.8621
  0
LINE
  8
0
 10
-39.0562
 20
23.8621
 11
-39.0639
 21
23.9434
  0
LINE
  8
0
 10
-39.0639
 20
23.9434
 11
-39.0665
 21
24.025
  0
LINE
  8
0
 10
-39.0665
 20
24.025
 11
-39.0639
 21
24.1066
  0
LINE
  8
0
 10
-39.0639
 20
24.1066
 11
-39.0562
 21
24.1879
  0
LINE
  8
0
 10
-39.0562
 20
24.1879
 11
-39.0435
 21
24.2686
  0
LINE
  8
0
 10
-39.0435
 20
24.2686
 11
-39.0257
 21
24.3483
  0
LINE
  8
0
 10
-39.0257
 20
24.3483
 11
-39.0029
 21
24.4267
  0
LINE
  8
0
 10
-39.0029
 20
24.4267
 11
-38.9752
 21
24.5036
  0
LINE
  8
0
 10
-38.9752
 20
24.5036
 11
-38.9428
 21
24.5785
  0
LINE
  8
0
 10
-38.9428
 20
24.5785
 11
-38.9057
 21
24.6513
  0
LINE
  8
0
 10
-38.9057
 20
24.6513
 11
-38.8641
 21
24.7216
  0
LINE
  8
0
 10
-38.8641
 20
24.7216
 11
-38.8182
 21
24.7891
  0
LINE
  8
0
 10
-38.8182
 20
24.7891
 11
-38.7682
 21
24.8536
  0
LINE
  8
0
 10
-38.7682
 20
24.8536
 11
-38.7141
 21
24.9149
  0
LINE
  8
0
 10
-38.7141
 20
24.9149
 11
-38.6564
 21
24.9726
  0
LINE
  8
0
 10
-38.6564
 20
24.9726
 11
-38.5951
 21
25.0267
  0
LINE
  8
0
 10
-38.5951
 20
25.0267
 11
-38.5306
 21
25.0767
  0
LINE
  8
0
 10
-38.5306
 20
25.0767
 11
-38.4631
 21
25.1226
  0
LINE
  8
0
 10
-38.4631
 20
25.1226
 11
-38.3928
 21
25.1642
  0
LINE
  8
0
 10
-38.3928
 20
25.1642
 11
-38.32
 21
25.2013
  0
LINE
  8
0
 10
-38.32
 20
25.2013
 11
-38.2451
 21
25.2337
  0
LINE
  8
0
 10
-38.2451
 20
25.2337
 11
-38.1682
 21
25.2614
  0
LINE
  8
0
 10
-38.1682
 20
25.2614
 11
-38.0898
 21
25.2841
  0
LINE
  8
0
 10
-38.0898
 20
25.2841
 11
-38.0101
 21
25.302
  0
LINE
  8
0
 10
-38.0101
 20
25.302
 11
-37.9294
 21
25.3147
  0
LINE
  8
0
 10
-37.9294
 20
25.3147
 11
-37.8481
 21
25.3224
  0
LINE
  8
0
 10
-37.8481
 20
25.3224
 11
-37.7665
 21
25.325
  0
LINE
  8
0
 10
-37.7665
 20
25.325
 11
-37.6849
 21
25.3224
  0
LINE
  8
0
 10
-37.6849
 20
25.3224
 11
-37.6036
 21
25.3147
  0
LINE
  8
0
 10
-37.6036
 20
25.3147
 11
-37.5229
 21
25.302
  0
LINE
  8
0
 10
-37.5229
 20
25.302
 11
-37.4432
 21
25.2841
  0
LINE
  8
0
 10
-37.4432
 20
25.2841
 11
-37.3648
 21
25.2614
  0
LINE
  8
0
 10
-37.3648
 20
25.2614
 11
-37.2879
 21
25.2337
  0
LINE
  8
0
 10
-37.2879
 20
25.2337
 11
-37.213
 21
25.2013
  0
LINE
  8
0
 10
-37.213
 20
25.2013
 11
-37.1402
 21
25.1642
  0
LINE
  8
0
 10
-37.1402
 20
25.1642
 11
-37.0699
 21
25.1226
  0
LINE
  8
0
 10
-37.0699
 20
25.1226
 11
-37.0024
 21
25.0767
  0
LINE
  8
0
 10
-37.0024
 20
25.0767
 11
-36.9379
 21
25.0267
  0
LINE
  8
0
 10
-36.9379
 20
25.0267
 11
-36.8766
 21
24.9726
  0
LINE
  8
0
 10
-36.8766
 20
24.9726
 11
-36.8188
 21
24.9149
  0
LINE
  8
0
 10
-36.8188
 20
24.9149
 11
-36.7648
 21
24.8536
  0
LINE
  8
0
 10
-36.7648
 20
24.8536
 11
-36.7148
 21
24.7891
  0
LINE
  8
0
 10
-36.7148
 20
24.7891
 11
-36.6689
 21
24.7216
  0
LINE
  8
0
 10
-36.6689
 20
24.7216
 11
-36.6273
 21
24.6513
  0
LINE
  8
0
 10
-36.6273
 20
24.6513
 11
-36.5902
 21
24.5785
  0
LINE
  8
0
 10
-36.5902
 20
24.5785
 11
-36.5578
 21
24.5036
  0
LINE
  8
0
 10
-36.5578
 20
24.5036
 11
-36.5301
 21
24.4267
  0
LINE
  8
0
 10
-36.5301
 20
24.4267
 11
-36.5073
 21
24.3483
  0
LINE
  8
0
 10
-36.5073
 20
24.3483
 11
-36.4895
 21
24.2686
  0
LINE
  8
0
 10
-36.4895
 20
24.2686
 11
-36.4768
 21
24.1879
  0
LINE
  8
0
 10
-36.4768
 20
24.1879
 11
-36.4691
 21
24.1066
  0
LINE
  8
0
 10
-36.4691
 20
24.1066
 11
-36.4665
 21
24.025
  0
LINE
  8
0
 10
-36.4665
 20
24.025
 11
-36.4691
 21
23.9434
  0
LINE
  8
0
 10
-36.4691
 20
23.9434
 11
-36.4768
 21
23.8621
  0
LINE
  8
0
 10
-36.4768
 20
23.8621
 11
-36.4895
 21
23.7814
  0
LINE
  8
0
 10
-36.4895
 20
23.7814
 11
-36.5073
 21
23.7017
  0
LINE
  8
0
 10
-36.5073
 20
23.7017
 11
-36.5301
 21
23.6233
  0
LINE
  8
0
 10
-36.5301
 20
23.6233
 11
-36.5578
 21
23.5464
  0
LINE
  8
0
 10
-36.5578
 20
23.5464
 11
-36.5902
 21
23.4715
  0
LINE
  8
0
 10
-36.5902
 20
23.4715
 11
-36.6273
 21
23.3987
  0
LINE
  8
0
 10
-36.6273
 20
23.3987
 11
-36.6689
 21
23.3284
  0
LINE
  8
0
 10
-36.6689
 20
23.3284
 11
-36.7148
 21
23.2609
  0
LINE
  8
0
 10
-36.7148
 20
23.2609
 11
-36.7648
 21
23.1963
  0
LINE
  8
0
 10
-36.7648
 20
23.1963
 11
-36.8188
 21
23.1351
  0
LINE
  8
0
 10
-36.8188
 20
23.1351
 11
-36.8766
 21
23.0773
  0
LINE
  8
0
 10
-36.8766
 20
23.0773
 11
-36.9379
 21
23.0233
  0
LINE
  8
0
 10
-36.9379
 20
23.0233
 11
-37.0024
 21
22.9733
  0
LINE
  8
0
 10
-37.0024
 20
22.9733
 11
-37.0699
 21
22.9274
  0
LINE
  8
0
 10
-37.0699
 20
22.9274
 11
-37.1402
 21
22.8858
  0
LINE
  8
0
 10
-37.1402
 20
22.8858
 11
-37.213
 21
22.8487
  0
LINE
  8
0
 10
-37.213
 20
22.8487
 11
-37.2879
 21
22.8163
  0
LINE
  8
0
 10
-37.2879
 20
22.8163
 11
-37.3648
 21
22.7886
  0
LINE
  8
0
 10
-37.3648
 20
22.7886
 11
-37.4432
 21
22.7658
  0
LINE
  8
0
 10
-37.4432
 20
22.7658
 11
-37.5229
 21
22.748
  0
LINE
  8
0
 10
-37.5229
 20
22.748
 11
-37.6036
 21
22.7352
  0
LINE
  8
0
 10
-37.6036
 20
22.7352
 11
-37.6849
 21
22.7276
  0
LINE
  8
0
 10
-37.6849
 20
22.7276
 11
-37.7665
 21
22.725
  0
LINE
  8
0
 10
-37.7665
 20
22.725
 11
-37.8481
 21
22.7276
  0
LINE
  8
0
 10
-38.4405
 20
-0.188522
 11
-39.1119
 21
-0.125061
  0
LINE
  8
0
 10
-39.1119
 20
-0.125061
 11
-39.778
 21
-0.0195618
  0
LINE
  8
0
 10
-39.778
 20
-0.0195618
 11
-40.4361
 21
0.127548
  0
LINE
  8
0
 10
-40.4361
 20
0.127548
 11
-41.0837
 21
0.315689
  0
LINE
  8
0
 10
-41.0837
 20
0.315689
 11
-41.7182
 21
0.544113
  0
LINE
  8
0
 10
-41.7182
 20
0.544113
 11
-42.3371
 21
0.811951
  0
LINE
  8
0
 10
-42.3371
 20
0.811951
 11
-42.938
 21
1.11809
  0
LINE
  8
0
 10
-42.938
 20
1.11809
 11
-43.5184
 21
1.46136
  0
LINE
  8
0
 10
-43.5184
 20
1.46136
 11
-44.0762
 21
1.84042
  0
LINE
  8
0
 10
-44.0762
 20
1.84042
 11
-44.6091
 21
2.25375
  0
LINE
  8
0
 10
-44.6091
 20
2.25375
 11
-45.1149
 21
2.69972
  0
LINE
  8
0
 10
-45.1149
 20
2.69972
 11
-45.5918
 21
3.17657
  0
LINE
  8
0
 10
-45.5918
 20
3.17657
 11
-46.0377
 21
3.68242
  0
LINE
  8
0
 10
-46.0377
 20
3.68242
 11
-46.4511
 21
4.21529
  0
LINE
  8
0
 10
-46.4511
 20
4.21529
 11
-46.8301
 21
4.77304
  0
LINE
  8
0
 10
-46.8301
 20
4.77304
 11
-47.1734
 21
5.3535
  0
LINE
  8
0
 10
-47.1734
 20
5.3535
 11
-47.4796
 21
5.95438
  0
LINE
  8
0
 10
-47.4796
 20
5.95438
 11
-47.7474
 21
6.57327
  0
LINE
  8
0
 10
-47.7474
 20
6.57327
 11
-47.9758
 21
7.20778
  0
LINE
  8
0
 10
-47.9758
 20
7.20778
 11
-48.164
 21
7.85538
  0
LINE
  8
0
 10
-48.164
 20
7.85538
 11
-48.3111
 21
8.5135
  0
LINE
  8
0
 10
-48.3111
 20
8.5135
 11
-48.4166
 21
9.17958
  0
LINE
  8
0
 10
-48.4166
 20
9.17958
 11
-48.48
 21
9.85095
  0
LINE
  8
0
 10
-48.48
 20
9.85095
 11
-48.5012
 21
10.525
  0
LINE
  8
0
 10
-48.5012
 20
10.525
 11
-48.48
 21
11.199
  0
LINE
  8
0
 10
-48.48
 20
11.199
 11
-48.4166
 21
11.8704
  0
LINE
  8
0
 10
-48.4166
 20
11.8704
 11
-48.3111
 21
12.5365
  0
LINE
  8
0
 10
-48.3111
 20
12.5365
 11
-48.164
 21
13.1946
  0
LINE
  8
0
 10
-48.164
 20
13.1946
 11
-47.9758
 21
13.8422
  0
LINE
  8
0
 10
-47.9758
 20
13.8422
 11
-47.7474
 21
14.4767
  0
LINE
  8
0
 10
-47.7474
 20
14.4767
 11
-47.4796
 21
15.0956
  0
LINE
  8
0
 10
-47.4796
 20
15.0956
 11
-47.1734
 21
15.6965
  0
LINE
  8
0
 10
-47.1734
 20
15.6965
 11
-46.8301
 21
16.2769
  0
LINE
  8
0
 10
-46.8301
 20
16.2769
 11
-46.4511
 21
16.8347
  0
LINE
  8
0
 10
-46.4511
 20
16.8347
 11
-46.0377
 21
17.3676
  0
LINE
  8
0
 10
-46.0377
 20
17.3676
 11
-45.5918
 21
17.8734
  0
LINE
  8
0
 10
-45.5918
 20
17.8734
 11
-45.1149
 21
18.3503
  0
LINE
  8
0
 10
-45.1149
 20
18.3503
 11
-44.6091
 21
18.7962
  0
LINE
  8
0
 10
-44.6091
 20
18.7962
 11
-44.0762
 21
19.2096
  0
LINE
  8
0
 10
-44.0762
 20
19.2096
 11
-43.5184
 21
19.5886
  0
LINE
  8
0
 10
-43.5184
 20
19.5886
 11
-42.938
 21
19.9319
  0
LINE
  8
0
 10
-42.938
 20
19.9319
 11
-42.3371
 21
20.2381
  0
LINE
  8
0
 10
-42.3371
 20
20.2381
 11
-41.7182
 21
20.5059
  0
LINE
  8
0
 10
-41.7182
 20
20.5059
 11
-41.0837
 21
20.7343
  0
LINE
  8
0
 10
-41.0837
 20
20.7343
 11
-40.4361
 21
20.9225
  0
LINE
  8
0
 10
-40.4361
 20
20.9225
 11
-39.778
 21
21.0696
  0
LINE
  8
0
 10
-39.778
 20
21.0696
 11
-39.1119
 21
21.1751
  0
LINE
  8
0
 10
-39.1119
 20
21.1751
 11
-38.4405
 21
21.2385
  0
LINE
  8
0
 10
-38.4405
 20
21.2385
 11
-37.7665
 21
21.2597
  0
LINE
  8
0
 10
-37.7665
 20
21.2597
 11
-37.0925
 21
21.2385
  0
LINE
  8
0
 10
-37.0925
 20
21.2385
 11
-36.4211
 21
21.1751
  0
LINE
  8
0
 10
-36.4211
 20
21.1751
 11
-35.755
 21
21.0696
  0
LINE
  8
0
 10
-35.755
 20
21.0696
 11
-35.0969
 21
20.9225
  0
LINE
  8
0
 10
-35.0969
 20
20.9225
 11
-34.4493
 21
20.7343
  0
LINE
  8
0
 10
-34.4493
 20
20.7343
 11
-33.8148
 21
20.5059
  0
LINE
  8
0
 10
-33.8148
 20
20.5059
 11
-33.1959
 21
20.2381
  0
LINE
  8
0
 10
-33.1959
 20
20.2381
 11
-32.595
 21
19.9319
  0
LINE
  8
0
 10
-32.595
 20
19.9319
 11
-32.0145
 21
19.5886
  0
LINE
  8
0
 10
-32.0145
 20
19.5886
 11
-31.4568
 21
19.2096
  0
LINE
  8
0
 10
-31.4568
 20
19.2096
 11
-30.9239
 21
18.7962
  0
LINE
  8
0
 10
-30.9239
 20
18.7962
 11
-30.4181
 21
18.3503
  0
LINE
  8
0
 10
-30.4181
 20
18.3503
 11
-29.9412
 21
17.8734
  0
LINE
  8
0
 10
-29.9412
 20
17.8734
 11
-29.4953
 21
17.3676
  0
LINE
  8
0
 10
-29.4953
 20
17.3676
 11
-29.0819
 21
16.8347
  0
LINE
  8
0
 10
-29.0819
 20
16.8347
 11
-28.7029
 21
16.2769
  0
LINE
  8
0
 10
-28.7029
 20
16.2769
 11
-28.3596
 21
15.6965
  0
LINE
  8
0
 10
-28.3596
 20
15.6965
 11
-28.0534
 21
15.0956
  0
LINE
  8
0
 10
-28.0534
 20
15.0956
 11
-27.7856
 21
14.4767
  0
LINE
  8
0
 10
-27.7856
 20
14.4767
 11
-27.5572
 21
13.8422
  0
LINE
  8
0
 10
-27.5572
 20
13.8422
 11
-27.369
 21
13.1946
  0
LINE
  8
0
 10
-27.369
 20
13.1946
 11
-27.2219
 21
12.5365
  0
LINE
  8
0
 10
-27.2219
 20
12.5365
 11
-27.1164
 21
11.8704
  0
LINE
  8
0
 10
-27.1164
 20
11.8704
 11
-27.053
 21
11.199
  0
LINE
  8
0
 10
-27.053
 20
11.199
 11
-27.0318
 21
10.525
  0
LINE
  8
0
 10
-27.0318
 20
10.525
 11
-27.053
 21
9.85095
  0
LINE
  8
0
 10
-27.053
 20
9.85095
 11
-27.1164
 21
9.17958
  0
LINE
  8
0
 10
-27.1164
 20
9.17958
 11
-27.2219
 21
8.5135
  0
LINE
  8
0
 10
-27.2219
 20
8.5135
 11
-27.369
 21
7.85538
  0
LINE
  8
0
 10
-27.369
 20
7.85538
 11
-27.5572
 21
7.20778
  0
LINE
  8
0
 10
-27.5572
 20
7.20778
 11
-27.7856
 21
6.57327
  0
LINE
  8
0
 10
-27.7856
 20
6.57327
 11
-28.0534
 21
5.95438
  0
LINE
  8
0
 10
-28.0534
 20
5.95438
 11
-28.3596
 21
5.3535
  0
LINE
  8
0
 10
-28.3596
 20
5.3535
 11
-28.7029
 21
4.77304
  0
LINE
  8
0
 10
-28.7029
 20
4.77304
 11
-29.0819
 21
4.21529
  0
LINE
  8
0
 10
-29.0819
 20
4.21529
 11
-29.4953
 21
3.68242
  0
LINE
  8
0
 10
-29.4953
 20
3.68242
 11
-29.9412
 21
3.17657
  0
LINE
  8
0
 10
-29.9412
 20
3.17657
 11
-30.4181
 21
2.69972
  0
LINE
  8
0
 10
-30.4181
 20
2.69972
 11
-30.9239
 21
2.25375
  0
LINE
  8
0
 10
-30.9239
 20
2.25375
 11
-31.4568
 21
1.84042
  0
LINE
  8
0
 10
-31.4568
 20
1.84042
 11
-32.0145
 21
1.46136
  0
LINE
  8
0
 10
-32.0145
 20
1.46136
 11
-32.595
 21
1.11809
  0
LINE
  8
0
 10
-32.595
 20
1.11809
 11
-33.1959
 21
0.811951
  0
LINE
  8
0
 10
-33.1959
 20
0.811951
 11
-33.8148
 21
0.544113
  0
LINE
  8
0
 10
-33.8148
 20
0.544113
 11
-34.4493
 21
0.315689
  0
LINE
  8
0
 10
-34.4493
 20
0.315689
 11
-35.0969
 21
0.127548
  0
LINE
  8
0
 10
-35.0969
 20
0.127548
 11
-35.755
 21
-0.0195618
  0
LINE
  8
0
 10
-35.755
 20
-0.0195618
 11
-36.4211
 21
-0.125061
  0
LINE
  8
0
 10
-36.4211
 20
-0.125061
 11
-37.0925
 21
-0.188522
  0
LINE
  8
0
 10
-37.0925
 20
-0.188522
 11
-37.7665
 21
-0.209717
  0
LINE
  8
0
 10
-37.7665
 20
-0.209717
 11
-38.4405
 21
-0.188522
  0
LINE
  8
0
 10
-19.1791
 20
17.3238
 11
-19.2604
 21
17.3315
  0
LINE
  8
0
 10
-19.2604
 20
17.3315
 11
-19.3411
 21
17.3443
  0
LINE
  8
0
 10
-19.3411
 20
17.3443
 11
-19.4208
 21
17.3621
  0
LINE
  8
0
 10
-19.4208
 20
17.3621
 11
-19.4992
 21
17.3849
  0
LINE
  8
0
 10
-19.4992
 20
17.3849
 11
-19.576
 21
17.4125
  0
LINE
  8
0
 10
-19.576
 20
17.4125
 11
-19.651
 21
17.445
  0
LINE
  8
0
 10
-19.651
 20
17.445
 11
-19.7238
 21
17.482
  0
LINE
  8
0
 10
-19.7238
 20
17.482
 11
-19.7941
 21
17.5236
  0
LINE
  8
0
 10
-19.7941
 20
17.5236
 11
-19.8616
 21
17.5695
  0
LINE
  8
0
 10
-19.8616
 20
17.5695
 11
-19.9261
 21
17.6196
  0
LINE
  8
0
 10
-19.9261
 20
17.6196
 11
-19.9874
 21
17.6736
  0
LINE
  8
0
 10
-19.9874
 20
17.6736
 11
-20.0452
 21
17.7313
  0
LINE
  8
0
 10
-20.0452
 20
17.7313
 11
-20.0992
 21
17.7926
  0
LINE
  8
0
 10
-20.0992
 20
17.7926
 11
-20.1492
 21
17.8571
  0
LINE
  8
0
 10
-20.1492
 20
17.8571
 11
-20.1951
 21
17.9247
  0
LINE
  8
0
 10
-20.1951
 20
17.9247
 11
-20.2367
 21
17.995
  0
LINE
  8
0
 10
-20.2367
 20
17.995
 11
-20.2738
 21
18.0677
  0
LINE
  8
0
 10
-20.2738
 20
18.0677
 11
-20.3062
 21
18.1427
  0
LINE
  8
0
 10
-20.3062
 20
18.1427
 11
-20.3339
 21
18.2195
  0
LINE
  8
0
 10
-20.3339
 20
18.2195
 11
-20.3566
 21
18.2979
  0
LINE
  8
0
 10
-20.3566
 20
18.2979
 11
-20.3745
 21
18.3776
  0
LINE
  8
0
 10
-20.3745
 20
18.3776
 11
-20.3872
 21
18.4583
  0
LINE
  8
0
 10
-20.3872
 20
18.4583
 11
-20.3949
 21
18.5396
  0
LINE
  8
0
 10
-20.3949
 20
18.5396
 11
-20.3975
 21
18.6212
  0
LINE
  8
0
 10
-20.3975
 20
18.6212
 11
-20.3949
 21
18.7029
  0
LINE
  8
0
 10
-20.3949
 20
18.7029
 11
-20.3872
 21
18.7842
  0
LINE
  8
0
 10
-20.3872
 20
18.7842
 11
-20.3745
 21
18.8648
  0
LINE
  8
0
 10
-20.3745
 20
18.8648
 11
-20.3566
 21
18.9445
  0
LINE
  8
0
 10
-20.3566
 20
18.9445
 11
-20.3339
 21
19.023
  0
LINE
  8
0
 10
-20.3339
 20
19.023
 11
-20.3062
 21
19.0998
  0
LINE
  8
0
 10
-20.3062
 20
19.0998
 11
-20.2738
 21
19.1748
  0
LINE
  8
0
 10
-20.2738
 20
19.1748
 11
-20.2367
 21
19.2475
  0
LINE
  8
0
 10
-20.2367
 20
19.2475
 11
-20.1951
 21
19.3178
  0
LINE
  8
0
 10
-20.1951
 20
19.3178
 11
-20.1492
 21
19.3854
  0
LINE
  8
0
 10
-20.1492
 20
19.3854
 11
-20.0992
 21
19.4499
  0
LINE
  8
0
 10
-20.0992
 20
19.4499
 11
-20.0452
 21
19.5112
  0
LINE
  8
0
 10
-20.0452
 20
19.5112
 11
-19.9874
 21
19.5689
  0
LINE
  8
0
 10
-19.9874
 20
19.5689
 11
-19.9261
 21
19.6229
  0
LINE
  8
0
 10
-19.9261
 20
19.6229
 11
-19.8616
 21
19.673
  0
LINE
  8
0
 10
-19.8616
 20
19.673
 11
-19.7941
 21
19.7189
  0
LINE
  8
0
 10
-19.7941
 20
19.7189
 11
-19.7238
 21
19.7604
  0
LINE
  8
0
 10
-19.7238
 20
19.7604
 11
-19.651
 21
19.7975
  0
LINE
  8
0
 10
-19.651
 20
19.7975
 11
-19.576
 21
19.83
  0
LINE
  8
0
 10
-19.576
 20
19.83
 11
-19.4992
 21
19.8576
  0
LINE
  8
0
 10
-19.4992
 20
19.8576
 11
-19.4208
 21
19.8804
  0
LINE
  8
0
 10
-19.4208
 20
19.8804
 11
-19.3411
 21
19.8982
  0
LINE
  8
0
 10
-19.3411
 20
19.8982
 11
-19.2604
 21
19.911
  0
LINE
  8
0
 10
-19.2604
 20
19.911
 11
-19.1791
 21
19.9187
  0
LINE
  8
0
 10
-19.1791
 20
19.9187
 11
-19.0975
 21
19.9212
  0
LINE
  8
0
 10
-19.0975
 20
19.9212
 11
-19.0159
 21
19.9187
  0
LINE
  8
0
 10
-19.0159
 20
19.9187
 11
-18.9346
 21
19.911
  0
LINE
  8
0
 10
-18.9346
 20
19.911
 11
-18.8539
 21
19.8982
  0
LINE
  8
0
 10
-18.8539
 20
19.8982
 11
-18.7742
 21
19.8804
  0
LINE
  8
0
 10
-18.7742
 20
19.8804
 11
-18.6958
 21
19.8576
  0
LINE
  8
0
 10
-18.6958
 20
19.8576
 11
-18.6189
 21
19.83
  0
LINE
  8
0
 10
-18.6189
 20
19.83
 11
-18.544
 21
19.7975
  0
LINE
  8
0
 10
-18.544
 20
19.7975
 11
-18.4712
 21
19.7604
  0
LINE
  8
0
 10
-18.4712
 20
19.7604
 11
-18.4009
 21
19.7189
  0
LINE
  8
0
 10
-18.4009
 20
19.7189
 11
-18.3334
 21
19.673
  0
LINE
  8
0
 10
-18.3334
 20
19.673
 11
-18.2688
 21
19.6229
  0
LINE
  8
0
 10
-18.2688
 20
19.6229
 11
-18.2076
 21
19.5689
  0
LINE
  8
0
 10
-18.2076
 20
19.5689
 11
-18.1498
 21
19.5112
  0
LINE
  8
0
 10
-18.1498
 20
19.5112
 11
-18.0958
 21
19.4499
  0
LINE
  8
0
 10
-18.0958
 20
19.4499
 11
-18.0458
 21
19.3854
  0
LINE
  8
0
 10
-18.0458
 20
19.3854
 11
-17.9999
 21
19.3178
  0
LINE
  8
0
 10
-17.9999
 20
19.3178
 11
-17.9583
 21
19.2475
  0
LINE
  8
0
 10
-17.9583
 20
19.2475
 11
-17.9212
 21
19.1748
  0
LINE
  8
0
 10
-17.9212
 20
19.1748
 11
-17.8888
 21
19.0998
  0
LINE
  8
0
 10
-17.8888
 20
19.0998
 11
-17.8611
 21
19.023
  0
LINE
  8
0
 10
-17.8611
 20
19.023
 11
-17.8383
 21
18.9445
  0
LINE
  8
0
 10
-17.8383
 20
18.9445
 11
-17.8205
 21
18.8648
  0
LINE
  8
0
 10
-17.8205
 20
18.8648
 11
-17.8077
 21
18.7842
  0
LINE
  8
0
 10
-17.8077
 20
18.7842
 11
-17.8001
 21
18.7029
  0
LINE
  8
0
 10
-17.8001
 20
18.7029
 11
-17.7975
 21
18.6212
  0
LINE
  8
0
 10
-17.7975
 20
18.6212
 11
-17.8001
 21
18.5396
  0
LINE
  8
0
 10
-17.8001
 20
18.5396
 11
-17.8077
 21
18.4583
  0
LINE
  8
0
 10
-17.8077
 20
18.4583
 11
-17.8205
 21
18.3776
  0
LINE
  8
0
 10
-17.8205
 20
18.3776
 11
-17.8383
 21
18.2979
  0
LINE
  8
0
 10
-17.8383
 20
18.2979
 11
-17.8611
 21
18.2195
  0
LINE
  8
0
 10
-17.8611
 20
18.2195
 11
-17.8888
 21
18.1427
  0
LINE
  8
0
 10
-17.8888
 20
18.1427
 11
-17.9212
 21
18.0677
  0
LINE
  8
0
 10
-17.9212
 20
18.0677
 11
-17.9583
 21
17.995
  0
LINE
  8
0
 10
-17.9583
 20
17.995
 11
-17.9999
 21
17.9247
  0
LINE
  8
0
 10
-17.9999
 20
17.9247
 11
-18.0458
 21
17.8571
  0
LINE
  8
0
 10
-18.0458
 20
17.8571
 11
-18.0958
 21
17.7926
  0
LINE
  8
0
 10
-18.0958
 20
17.7926
 11
-18.1498
 21
17.7313
  0
LINE
  8
0
 10
-18.1498
 20
17.7313
 11
-18.2076
 21
17.6736
  0
LINE
  8
0
 10
-18.2076
 20
17.6736
 11
-18.2688
 21
17.6196
  0
LINE
  8
0
 10
-18.2688
 20
17.6196
 11
-18.3334
 21
17.5695
  0
LINE
  8
0
 10
-18.3334
 20
17.5695
 11
-18.4009
 21
17.5236
  0
LINE
  8
0
 10
-18.4009
 20
17.5236
 11
-18.4712
 21
17.482
  0
LINE
  8
0
 10
-18.4712
 20
17.482
 11
-18.544
 21
17.445
  0
LINE
  8
0
 10
-18.544
 20
17.445
 11
-18.6189
 21
17.4125
  0
LINE
  8
0
 10
-18.6189
 20
17.4125
 11
-18.6958
 21
17.3849
  0
LINE
  8
0
 10
-18.6958
 20
17.3849
 11
-18.7742
 21
17.3621
  0
LINE
  8
0
 10
-18.7742
 20
17.3621
 11
-18.8539
 21
17.3443
  0
LINE
  8
0
 10
-18.8539
 20
17.3443
 11
-18.9346
 21
17.3315
  0
LINE
  8
0
 10
-18.9346
 20
17.3315
 11
-19.0159
 21
17.3238
  0
LINE
  8
0
 10
-19.0159
 20
17.3238
 11
-19.0975
 21
17.3212
  0
LINE
  8
0
 10
-19.0975
 20
17.3212
 11
-19.1791
 21
17.3238
  0
LINE
  8
0
 10
-0.605392
 20
15.4188
 11
-0.686691
 21
15.4265
  0
LINE
  8
0
 10
-0.686691
 20
15.4265
 11
-0.767349
 21
15.4393
  0
LINE
  8
0
 10
-0.767349
 20
15.4393
 11
-0.847061
 21
15.4571
  0
LINE
  8
0
 10
-0.847061
 20
15.4571
 11
-0.925476
 21
15.4799
  0
LINE
  8
0
 10
-0.925476
 20
15.4799
 11
-1.0023
 21
15.5075
  0
LINE
  8
0
 10
-1.0023
 20
15.5075
 11
-1.07726
 21
15.54
  0
LINE
  8
0
 10
-1.07726
 20
15.54
 11
-1.15002
 21
15.577
  0
LINE
  8
0
 10
-1.15002
 20
15.577
 11
-1.22032
 21
15.6186
  0
LINE
  8
0
 10
-1.22032
 20
15.6186
 11
-1.28786
 21
15.6645
  0
LINE
  8
0
 10
-1.28786
 20
15.6645
 11
-1.35239
 21
15.7146
  0
LINE
  8
0
 10
-1.35239
 20
15.7146
 11
-1.41365
 21
15.7686
  0
LINE
  8
0
 10
-1.41365
 20
15.7686
 11
-1.47141
 21
15.8263
  0
LINE
  8
0
 10
-1.47141
 20
15.8263
 11
-1.52541
 21
15.8876
  0
LINE
  8
0
 10
-1.52541
 20
15.8876
 11
-1.57547
 21
15.9521
  0
LINE
  8
0
 10
-1.57547
 20
15.9521
 11
-1.62137
 21
16.0197
  0
LINE
  8
0
 10
-1.62137
 20
16.0197
 11
-1.66295
 21
16.09
  0
LINE
  8
0
 10
-1.66295
 20
16.09
 11
-1.70001
 21
16.1627
  0
LINE
  8
0
 10
-1.70001
 20
16.1627
 11
-1.73245
 21
16.2377
  0
LINE
  8
0
 10
-1.73245
 20
16.2377
 11
-1.76012
 21
16.3145
  0
LINE
  8
0
 10
-1.76012
 20
16.3145
 11
-1.7829
 21
16.3929
  0
LINE
  8
0
 10
-1.7829
 20
16.3929
 11
-1.80072
 21
16.4726
  0
LINE
  8
0
 10
-1.80072
 20
16.4726
 11
-1.81349
 21
16.5533
  0
LINE
  8
0
 10
-1.81349
 20
16.5533
 11
-1.82118
 21
16.6346
  0
LINE
  8
0
 10
-1.82118
 20
16.6346
 11
-1.82375
 21
16.7162
  0
LINE
  8
0
 10
-1.82375
 20
16.7162
 11
-1.82118
 21
16.7979
  0
LINE
  8
0
 10
-1.82118
 20
16.7979
 11
-1.81349
 21
16.8792
  0
LINE
  8
0
 10
-1.81349
 20
16.8792
 11
-1.80072
 21
16.9598
  0
LINE
  8
0
 10
-1.80072
 20
16.9598
 11
-1.7829
 21
17.0395
  0
LINE
  8
0
 10
-1.7829
 20
17.0395
 11
-1.76012
 21
17.118
  0
LINE
  8
0
 10
-1.76012
 20
17.118
 11
-1.73245
 21
17.1948
  0
LINE
  8
0
 10
-1.73245
 20
17.1948
 11
-1.70001
 21
17.2698
  0
LINE
  8
0
 10
-1.70001
 20
17.2698
 11
-1.66295
 21
17.3425
  0
LINE
  8
0
 10
-1.66295
 20
17.3425
 11
-1.62137
 21
17.4128
  0
LINE
  8
0
 10
-1.62137
 20
17.4128
 11
-1.57547
 21
17.4804
  0
LINE
  8
0
 10
-1.57547
 20
17.4804
 11
-1.52541
 21
17.5449
  0
LINE
  8
0
 10
-1.52541
 20
17.5449
 11
-1.47141
 21
17.6062
  0
LINE
  8
0
 10
-1.47141
 20
17.6062
 11
-1.41365
 21
17.6639
  0
LINE
  8
0
 10
-1.41365
 20
17.6639
 11
-1.35239
 21
17.7179
  0
LINE
  8
0
 10
-1.35239
 20
17.7179
 11
-1.28786
 21
17.768
  0
LINE
  8
0
 10
-1.28786
 20
17.768
 11
-1.22032
 21
17.8139
  0
LINE
  8
0
 10
-1.22032
 20
17.8139
 11
-1.15002
 21
17.8554
  0
LINE
  8
0
 10
-1.15002
 20
17.8554
 11
-1.07726
 21
17.8925
  0
LINE
  8
0
 10
-1.07726
 20
17.8925
 11
-1.0023
 21
17.925
  0
LINE
  8
0
 10
-1.0023
 20
17.925
 11
-0.925476
 21
17.9526
  0
LINE
  8
0
 10
-0.925476
 20
17.9526
 11
-0.847061
 21
17.9754
  0
LINE
  8
0
 10
-0.847061
 20
17.9754
 11
-0.767349
 21
17.9932
  0
LINE
  8
0
 10
-0.767349
 20
17.9932
 11
-0.686691
 21
18.006
  0
LINE
  8
0
 10
-0.686691
 20
18.006
 11
-0.605392
 21
18.0137
  0
LINE
  8
0
 10
-0.605392
 20
18.0137
 11
-0.523758
 21
18.0162
  0
LINE
  8
0
 10
-0.523758
 20
18.0162
 11
-0.442123
 21
18.0137
  0
LINE
  8
0
 10
-0.442123
 20
18.0137
 11
-0.360825
 21
18.006
  0
LINE
  8
0
 10
-0.360825
 20
18.006
 11
-0.280167
 21
17.9932
  0
LINE
  8
0
 10
-0.280167
 20
17.9932
 11
-0.200455
 21
17.9754
  0
LINE
  8
0
 10
-0.200455
 20
17.9754
 11
-0.12204
 21
17.9526
  0
LINE
  8
0
 10
-0.12204
 20
17.9526
 11
-0.0451965
 21
17.925
  0
LINE
  8
0
 10
-0.0451965
 20
17.925
 11
0.0297546
 21
17.8925
  0
LINE
  8
0
 10
0.0297546
 20
17.8925
 11
0.102524
 21
17.8554
  0
LINE
  8
0
 10
0.102524
 20
17.8554
 11
0.172821
 21
17.8139
  0
LINE
  8
0
 10
0.172821
 20
17.8139
 11
0.240356
 21
17.768
  0
LINE
  8
0
 10
0.240356
 20
17.768
 11
0.304901
 21
17.7179
  0
LINE
  8
0
 10
0.304901
 20
17.7179
 11
0.36615
 21
17.6639
  0
LINE
  8
0
 10
0.36615
 20
17.6639
 11
0.423904
 21
17.6062
  0
LINE
  8
0
 10
0.423904
 20
17.6062
 11
0.477905
 21
17.5449
  0
LINE
  8
0
 10
0.477905
 20
17.5449
 11
0.527969
 21
17.4804
  0
LINE
  8
0
 10
0.527969
 20
17.4804
 11
0.573868
 21
17.4128
  0
LINE
  8
0
 10
0.573868
 20
17.4128
 11
0.615448
 21
17.3425
  0
LINE
  8
0
 10
0.615448
 20
17.3425
 11
0.652512
 21
17.2698
  0
LINE
  8
0
 10
0.652512
 20
17.2698
 11
0.684952
 21
17.1948
  0
LINE
  8
0
 10
0.684952
 20
17.1948
 11
0.712616
 21
17.118
  0
LINE
  8
0
 10
0.712616
 20
17.118
 11
0.735397
 21
17.0395
  0
LINE
  8
0
 10
0.735397
 20
17.0395
 11
0.75322
 21
16.9598
  0
LINE
  8
0
 10
0.75322
 20
16.9598
 11
0.765991
 21
16.8792
  0
LINE
  8
0
 10
0.765991
 20
16.8792
 11
0.773682
 21
16.7979
  0
LINE
  8
0
 10
0.773682
 20
16.7979
 11
0.776245
 21
16.7162
  0
LINE
  8
0
 10
0.776245
 20
16.7162
 11
0.773682
 21
16.6346
  0
LINE
  8
0
 10
0.773682
 20
16.6346
 11
0.765991
 21
16.5533
  0
LINE
  8
0
 10
0.765991
 20
16.5533
 11
0.75322
 21
16.4726
  0
LINE
  8
0
 10
0.75322
 20
16.4726
 11
0.735397
 21
16.3929
  0
LINE
  8
0
 10
0.735397
 20
16.3929
 11
0.712616
 21
16.3145
  0
LINE
  8
0
 10
0.712616
 20
16.3145
 11
0.684952
 21
16.2377
  0
LINE
  8
0
 10
0.684952
 20
16.2377
 11
0.652512
 21
16.1627
  0
LINE
  8
0
 10
0.652512
 20
16.1627
 11
0.615448
 21
16.09
  0
LINE
  8
0
 10
0.615448
 20
16.09
 11
0.573868
 21
16.0197
  0
LINE
  8
0
 10
0.573868
 20
16.0197
 11
0.527969
 21
15.9521
  0
LINE
  8
0
 10
0.527969
 20
15.9521
 11
0.477905
 21
15.8876
  0
LINE
  8
0
 10
0.477905
 20
15.8876
 11
0.423904
 21
15.8263
  0
LINE
  8
0
 10
0.423904
 20
15.8263
 11
0.36615
 21
15.7686
  0
LINE
  8
0
 10
0.36615
 20
15.7686
 11
0.304901
 21
15.7146
  0
LINE
  8
0
 10
0.304901
 20
15.7146
 11
0.240356
 21
15.6645
  0
LINE
  8
0
 10
0.240356
 20
15.6645
 11
0.172821
 21
15.6186
  0
LINE
  8
0
 10
0.172821
 20
15.6186
 11
0.102524
 21
15.577
  0
LINE
  8
0
 10
0.102524
 20
15.577
 11
0.0297546
 21
15.54
  0
LINE
  8
0
 10
0.0297546
 20
15.54
 11
-0.0451965
 21
15.5075
  0
LINE
  8
0
 10
-0.0451965
 20
15.5075
 11
-0.12204
 21
15.4799
  0
LINE
  8
0
 10
-0.12204
 20
15.4799
 11
-0.200455
 21
15.4571
  0
LINE
  8
0
 10
-0.200455
 20
15.4571
 11
-0.280167
 21
15.4393
  0
LINE
  8
0
 10
-0.280167
 20
15.4393
 11
-0.360825
 21
15.4265
  0
LINE
  8
0
 10
-0.360825
 20
15.4265
 11
-0.442123
 21
15.4188
  0
LINE
  8
0
 10
-0.442123
 20
15.4188
 11
-0.523758
 21
15.4162
  0
LINE
  8
0
 10
-0.523758
 20
15.4162
 11
-0.605392
 21
15.4188
  0
LINE
  8
0
 10
-17.525
 20
3.52499
 11
-17.525
 21
17.525
  0
LINE
  8
0
 10
-17.525
 20
17.525
 11
-3.52499
 21
17.525
  0
LINE
  8
0
 10
-3.52499
 20
17.525
 11
-3.52499
 21
3.52499
  0
LINE
  8
0
 10
-3.52499
 20
3.52499
 11
-17.525
 21
3.52499
  0
LINE
  8
0
 10
1.52499
 20
1.62
 11
1.52499
 21
15.62
  0
LINE
  8
0
 10
1.52499
 20
15.62
 11
15.525
 21
15.62
  0
LINE
  8
0
 10
15.525
 20
15.62
 11
15.525
 21
1.62
  0
LINE
  8
0
 10
15.525
 20
1.62
 11
1.52499
 21
1.62
  0
LINE
  8
0
 10
-19.1791
 20
1.1313
 11
-19.2604
 21
1.13899
  0
LINE
  8
0
 10
-19.2604
 20
1.13899
 11
-19.3411
 21
1.15176
  0
LINE
  8
0
 10
-19.3411
 20
1.15176
 11
-19.4208
 21
1.16959
  0
LINE
  8
0
 10
-19.4208
 20
1.16959
 11
-19.4992
 21
1.19237
  0
LINE
  8
0
 10
-19.4992
 20
1.19237
 11
-19.576
 21
1.22003
  0
LINE
  8
0
 10
-19.576
 20
1.22003
 11
-19.651
 21
1.25247
  0
LINE
  8
0
 10
-19.651
 20
1.25247
 11
-19.7238
 21
1.28955
  0
LINE
  8
0
 10
-19.7238
 20
1.28955
 11
-19.7941
 21
1.33112
  0
LINE
  8
0
 10
-19.7941
 20
1.33112
 11
-19.8616
 21
1.37701
  0
LINE
  8
0
 10
-19.8616
 20
1.37701
 11
-19.9261
 21
1.42708
  0
LINE
  8
0
 10
-19.9261
 20
1.42708
 11
-19.9874
 21
1.48108
  0
LINE
  8
0
 10
-19.9874
 20
1.48108
 11
-20.0452
 21
1.53883
  0
LINE
  8
0
 10
-20.0452
 20
1.53883
 11
-20.0992
 21
1.6001
  0
LINE
  8
0
 10
-20.0992
 20
1.6001
 11
-20.1492
 21
1.66463
  0
LINE
  8
0
 10
-20.1492
 20
1.66463
 11
-20.1951
 21
1.73216
  0
LINE
  8
0
 10
-20.1951
 20
1.73216
 11
-20.2367
 21
1.80246
  0
LINE
  8
0
 10
-20.2367
 20
1.80246
 11
-20.2738
 21
1.87523
  0
LINE
  8
0
 10
-20.2738
 20
1.87523
 11
-20.3062
 21
1.95018
  0
LINE
  8
0
 10
-20.3062
 20
1.95018
 11
-20.3339
 21
2.02702
  0
LINE
  8
0
 10
-20.3339
 20
2.02702
 11
-20.3566
 21
2.10544
  0
LINE
  8
0
 10
-20.3566
 20
2.10544
 11
-20.3745
 21
2.18515
  0
LINE
  8
0
 10
-20.3745
 20
2.18515
 11
-20.3872
 21
2.26581
  0
LINE
  8
0
 10
-20.3872
 20
2.26581
 11
-20.3949
 21
2.34712
  0
LINE
  8
0
 10
-20.3949
 20
2.34712
 11
-20.3975
 21
2.42874
  0
LINE
  8
0
 10
-20.3975
 20
2.42874
 11
-20.3949
 21
2.51038
  0
LINE
  8
0
 10
-20.3949
 20
2.51038
 11
-20.3872
 21
2.59167
  0
LINE
  8
0
 10
-20.3872
 20
2.59167
 11
-20.3745
 21
2.67233
  0
LINE
  8
0
 10
-20.3745
 20
2.67233
 11
-20.3566
 21
2.75204
  0
LINE
  8
0
 10
-20.3566
 20
2.75204
 11
-20.3339
 21
2.83046
  0
LINE
  8
0
 10
-20.3339
 20
2.83046
 11
-20.3062
 21
2.9073
  0
LINE
  8
0
 10
-20.3062
 20
2.9073
 11
-20.2738
 21
2.98225
  0
LINE
  8
0
 10
-20.2738
 20
2.98225
 11
-20.2367
 21
3.05502
  0
LINE
  8
0
 10
-20.2367
 20
3.05502
 11
-20.1951
 21
3.12532
  0
LINE
  8
0
 10
-20.1951
 20
3.12532
 11
-20.1492
 21
3.19286
  0
LINE
  8
0
 10
-20.1492
 20
3.19286
 11
-20.0992
 21
3.2574
  0
LINE
  8
0
 10
-20.0992
 20
3.2574
 11
-20.0452
 21
3.31865
  0
LINE
  8
0
 10
-20.0452
 20
3.31865
 11
-19.9874
 21
3.3764
  0
LINE
  8
0
 10
-19.9874
 20
3.3764
 11
-19.9261
 21
3.4304
  0
LINE
  8
0
 10
-19.9261
 20
3.4304
 11
-19.8616
 21
3.48047
  0
LINE
  8
0
 10
-19.8616
 20
3.48047
 11
-19.7941
 21
3.52637
  0
LINE
  8
0
 10
-19.7941
 20
3.52637
 11
-19.7238
 21
3.56795
  0
LINE
  8
0
 10
-19.7238
 20
3.56795
 11
-19.651
 21
3.60501
  0
LINE
  8
0
 10
-19.651
 20
3.60501
 11
-19.576
 21
3.63745
  0
LINE
  8
0
 10
-19.576
 20
3.63745
 11
-19.4992
 21
3.66512
  0
LINE
  8
0
 10
-19.4992
 20
3.66512
 11
-19.4208
 21
3.6879
  0
LINE
  8
0
 10
-19.4208
 20
3.6879
 11
-19.3411
 21
3.70572
  0
LINE
  8
0
 10
-19.3411
 20
3.70572
 11
-19.2604
 21
3.71849
  0
LINE
  8
0
 10
-19.2604
 20
3.71849
 11
-19.1791
 21
3.72618
  0
LINE
  8
0
 10
-19.1791
 20
3.72618
 11
-19.0975
 21
3.72874
  0
LINE
  8
0
 10
-19.0975
 20
3.72874
 11
-19.0159
 21
3.72618
  0
LINE
  8
0
 10
-19.0159
 20
3.72618
 11
-18.9346
 21
3.71849
  0
LINE
  8
0
 10
-18.9346
 20
3.71849
 11
-18.8539
 21
3.70572
  0
LINE
  8
0
 10
-18.8539
 20
3.70572
 11
-18.7742
 21
3.6879
  0
LINE
  8
0
 10
-18.7742
 20
3.6879
 11
-18.6958
 21
3.66512
  0
LINE
  8
0
 10
-18.6958
 20
3.66512
 11
-18.6189
 21
3.63745
  0
LINE
  8
0
 10
-18.6189
 20
3.63745
 11
-18.544
 21
3.60501
  0
LINE
  8
0
 10
-18.544
 20
3.60501
 11
-18.4712
 21
3.56795
  0
LINE
  8
0
 10
-18.4712
 20
3.56795
 11
-18.4009
 21
3.52637
  0
LINE
  8
0
 10
-18.4009
 20
3.52637
 11
-18.3334
 21
3.48047
  0
LINE
  8
0
 10
-18.3334
 20
3.48047
 11
-18.2688
 21
3.4304
  0
LINE
  8
0
 10
-18.2688
 20
3.4304
 11
-18.2076
 21
3.3764
  0
LINE
  8
0
 10
-18.2076
 20
3.3764
 11
-18.1498
 21
3.31865
  0
LINE
  8
0
 10
-18.1498
 20
3.31865
 11
-18.0958
 21
3.2574
  0
LINE
  8
0
 10
-18.0958
 20
3.2574
 11
-18.0458
 21
3.19286
  0
LINE
  8
0
 10
-18.0458
 20
3.19286
 11
-17.9999
 21
3.12532
  0
LINE
  8
0
 10
-17.9999
 20
3.12532
 11
-17.9583
 21
3.05502
  0
LINE
  8
0
 10
-17.9583
 20
3.05502
 11
-17.9212
 21
2.98225
  0
LINE
  8
0
 10
-17.9212
 20
2.98225
 11
-17.8888
 21
2.9073
  0
LINE
  8
0
 10
-17.8888
 20
2.9073
 11
-17.8611
 21
2.83046
  0
LINE
  8
0
 10
-17.8611
 20
2.83046
 11
-17.8383
 21
2.75204
  0
LINE
  8
0
 10
-17.8383
 20
2.75204
 11
-17.8205
 21
2.67233
  0
LINE
  8
0
 10
-17.8205
 20
2.67233
 11
-17.8077
 21
2.59167
  0
LINE
  8
0
 10
-17.8077
 20
2.59167
 11
-17.8001
 21
2.51038
  0
LINE
  8
0
 10
-17.8001
 20
2.51038
 11
-17.7975
 21
2.42874
  0
LINE
  8
0
 10
-17.7975
 20
2.42874
 11
-17.8001
 21
2.34712
  0
LINE
  8
0
 10
-17.8001
 20
2.34712
 11
-17.8077
 21
2.26581
  0
LINE
  8
0
 10
-17.8077
 20
2.26581
 11
-17.8205
 21
2.18515
  0
LINE
  8
0
 10
-17.8205
 20
2.18515
 11
-17.8383
 21
2.10544
  0
LINE
  8
0
 10
-17.8383
 20
2.10544
 11
-17.8611
 21
2.02702
  0
LINE
  8
0
 10
-17.8611
 20
2.02702
 11
-17.8888
 21
1.95018
  0
LINE
  8
0
 10
-17.8888
 20
1.95018
 11
-17.9212
 21
1.87523
  0
LINE
  8
0
 10
-17.9212
 20
1.87523
 11
-17.9583
 21
1.80246
  0
LINE
  8
0
 10
-17.9583
 20
1.80246
 11
-17.9999
 21
1.73216
  0
LINE
  8
0
 10
-17.9999
 20
1.73216
 11
-18.0458
 21
1.66463
  0
LINE
  8
0
 10
-18.0458
 20
1.66463
 11
-18.0958
 21
1.6001
  0
LINE
  8
0
 10
-18.0958
 20
1.6001
 11
-18.1498
 21
1.53883
  0
LINE
  8
0
 10
-18.1498
 20
1.53883
 11
-18.2076
 21
1.48108
  0
LINE
  8
0
 10
-18.2076
 20
1.48108
 11
-18.2688
 21
1.42708
  0
LINE
  8
0
 10
-18.2688
 20
1.42708
 11
-18.3334
 21
1.37701
  0
LINE
  8
0
 10
-18.3334
 20
1.37701
 11
-18.4009
 21
1.33112
  0
LINE
  8
0
 10
-18.4009
 20
1.33112
 11
-18.4712
 21
1.28955
  0
LINE
  8
0
 10
-18.4712
 20
1.28955
 11
-18.544
 21
1.25247
  0
LINE
  8
0
 10
-18.544
 20
1.25247
 11
-18.6189
 21
1.22003
  0
LINE
  8
0
 10
-18.6189
 20
1.22003
 11
-18.6958
 21
1.19237
  0
LINE
  8
0
 10
-18.6958
 20
1.19237
 11
-18.7742
 21
1.16959
  0
LINE
  8
0
 10
-18.7742
 20
1.16959
 11
-18.8539
 21
1.15176
  0
LINE
  8
0
 10
-18.8539
 20
1.15176
 11
-18.9346
 21
1.13899
  0
LINE
  8
0
 10
-18.9346
 20
1.13899
 11
-19.0159
 21
1.1313
  0
LINE
  8
0
 10
-19.0159
 20
1.1313
 11
-19.0975
 21
1.12874
  0
LINE
  8
0
 10
-19.0975
 20
1.12874
 11
-19.1791
 21
1.1313
  0
LINE
  8
0
 10
-0.605392
 20
1.1313
 11
-0.686691
 21
1.13899
  0
LINE
  8
0
 10
-0.686691
 20
1.13899
 11
-0.767349
 21
1.15176
  0
LINE
  8
0
 10
-0.767349
 20
1.15176
 11
-0.847061
 21
1.16959
  0
LINE
  8
0
 10
-0.847061
 20
1.16959
 11
-0.925476
 21
1.19237
  0
LINE
  8
0
 10
-0.925476
 20
1.19237
 11
-1.0023
 21
1.22003
  0
LINE
  8
0
 10
-1.0023
 20
1.22003
 11
-1.07726
 21
1.25247
  0
LINE
  8
0
 10
-1.07726
 20
1.25247
 11
-1.15002
 21
1.28955
  0
LINE
  8
0
 10
-1.15002
 20
1.28955
 11
-1.22032
 21
1.33112
  0
LINE
  8
0
 10
-1.22032
 20
1.33112
 11
-1.28786
 21
1.37701
  0
LINE
  8
0
 10
-1.28786
 20
1.37701
 11
-1.35239
 21
1.42708
  0
LINE
  8
0
 10
-1.35239
 20
1.42708
 11
-1.41365
 21
1.48108
  0
LINE
  8
0
 10
-1.41365
 20
1.48108
 11
-1.47141
 21
1.53883
  0
LINE
  8
0
 10
-1.47141
 20
1.53883
 11
-1.52541
 21
1.6001
  0
LINE
  8
0
 10
-1.52541
 20
1.6001
 11
-1.57547
 21
1.66463
  0
LINE
  8
0
 10
-1.57547
 20
1.66463
 11
-1.62137
 21
1.73216
  0
LINE
  8
0
 10
-1.62137
 20
1.73216
 11
-1.66295
 21
1.80246
  0
LINE
  8
0
 10
-1.66295
 20
1.80246
 11
-1.70001
 21
1.87523
  0
LINE
  8
0
 10
-1.70001
 20
1.87523
 11
-1.73245
 21
1.95018
  0
LINE
  8
0
 10
-1.73245
 20
1.95018
 11
-1.76012
 21
2.02702
  0
LINE
  8
0
 10
-1.76012
 20
2.02702
 11
-1.7829
 21
2.10544
  0
LINE
  8
0
 10
-1.7829
 20
2.10544
 11
-1.80072
 21
2.18515
  0
LINE
  8
0
 10
-1.80072
 20
2.18515
 11
-1.81349
 21
2.26581
  0
LINE
  8
0
 10
-1.81349
 20
2.26581
 11
-1.82118
 21
2.34712
  0
LINE
  8
0
 10
-1.82118
 20
2.34712
 11
-1.82375
 21
2.42874
  0
LINE
  8
0
 10
-1.82375
 20
2.42874
 11
-1.82118
 21
2.51038
  0
LINE
  8
0
 10
-1.82118
 20
2.51038
 11
-1.81349
 21
2.59167
  0
LINE
  8
0
 10
-1.81349
 20
2.59167
 11
-1.80072
 21
2.67233
  0
LINE
  8
0
 10
-1.80072
 20
2.67233
 11
-1.7829
 21
2.75204
  0
LINE
  8
0
 10
-1.7829
 20
2.75204
 11
-1.76012
 21
2.83046
  0
LINE
  8
0
 10
-1.76012
 20
2.83046
 11
-1.73245
 21
2.9073
  0
LINE
  8
0
 10
-1.73245
 20
2.9073
 11
-1.70001
 21
2.98225
  0
LINE
  8
0
 10
-1.70001
 20
2.98225
 11
-1.66295
 21
3.05502
  0
LINE
  8
0
 10
-1.66295
 20
3.05502
 11
-1.62137
 21
3.12532
  0
LINE
  8
0
 10
-1.62137
 20
3.12532
 11
-1.57547
 21
3.19286
  0
LINE
  8
0
 10
-1.57547
 20
3.19286
 11
-1.52541
 21
3.2574
  0
LINE
  8
0
 10
-1.52541
 20
3.2574
 11
-1.47141
 21
3.31865
  0
LINE
  8
0
 10
-1.47141
 20
3.31865
 11
-1.41365
 21
3.3764
  0
LINE
  8
0
 10
-1.41365
 20
3.3764
 11
-1.35239
 21
3.4304
  0
LINE
  8
0
 10
-1.35239
 20
3.4304
 11
-1.28786
 21
3.48047
  0
LINE
  8
0
 10
-1.28786
 20
3.48047
 11
-1.22032
 21
3.52637
  0
LINE
  8
0
 10
-1.22032
 20
3.52637
 11
-1.15002
 21
3.56795
  0
LINE
  8
0
 10
-1.15002
 20
3.56795
 11
-1.07726
 21
3.60501
  0
LINE
  8
0
 10
-1.07726
 20
3.60501
 11
-1.0023
 21
3.63745
  0
LINE
  8
0
 10
-1.0023
 20
3.63745
 11
-0.925476
 21
3.66512
  0
LINE
  8
0
 10
-0.925476
 20
3.66512
 11
-0.847061
 21
3.6879
  0
LINE
  8
0
 10
-0.847061
 20
3.6879
 11
-0.767349
 21
3.70572
  0
LINE
  8
0
 10
-0.767349
 20
3.70572
 11
-0.686691
 21
3.71849
  0
LINE
  8
0
 10
-0.686691
 20
3.71849
 11
-0.605392
 21
3.72618
  0
LINE
  8
0
 10
-0.605392
 20
3.72618
 11
-0.523758
 21
3.72874
  0
LINE
  8
0
 10
-0.523758
 20
3.72874
 11
-0.442123
 21
3.72618
  0
LINE
  8
0
 10
-0.442123
 20
3.72618
 11
-0.360825
 21
3.71849
  0
LINE
  8
0
 10
-0.360825
 20
3.71849
 11
-0.280167
 21
3.70572
  0
LINE
  8
0
 10
-0.280167
 20
3.70572
 11
-0.200455
 21
3.6879
  0
LINE
  8
0
 10
-0.200455
 20
3.6879
 11
-0.12204
 21
3.66512
  0
LINE
  8
0
 10
-0.12204
 20
3.66512
 11
-0.0451965
 21
3.63745
  0
LINE
  8
0
 10
-0.0451965
 20
3.63745
 11
0.0297546
 21
3.60501
  0
LINE
  8
0
 10
0.0297546
 20
3.60501
 11
0.102524
 21
3.56795
  0
LINE
  8
0
 10
0.102524
 20
3.56795
 11
0.172821
 21
3.52637
  0
LINE
  8
0
 10
0.172821
 20
3.52637
 11
0.240356
 21
3.48047
  0
LINE
  8
0
 10
0.240356
 20
3.48047
 11
0.304901
 21
3.4304
  0
LINE
  8
0
 10
0.304901
 20
3.4304
 11
0.36615
 21
3.3764
  0
LINE
  8
0
 10
0.36615
 20
3.3764
 11
0.423904
 21
3.31865
  0
LINE
  8
0
 10
0.423904
 20
3.31865
 11
0.477905
 21
3.2574
  0
LINE
  8
0
 10
0.477905
 20
3.2574
 11
0.527969
 21
3.19286
  0
LINE
  8
0
 10
0.527969
 20
3.19286
 11
0.573868
 21
3.12532
  0
LINE
  8
0
 10
0.573868
 20
3.12532
 11
0.615448
 21
3.05502
  0
LINE
  8
0
 10
0.615448
 20
3.05502
 11
0.652512
 21
2.98225
  0
LINE
  8
0
 10
0.652512
 20
2.98225
 11
0.684952
 21
2.9073
  0
LINE
  8
0
 10
0.684952
 20
2.9073
 11
0.712616
 21
2.83046
  0
LINE
  8
0
 10
0.712616
 20
2.83046
 11
0.735397
 21
2.75204
  0
LINE
  8
0
 10
0.735397
 20
2.75204
 11
0.75322
 21
2.67233
  0
LINE
  8
0
 10
0.75322
 20
2.67233
 11
0.765991
 21
2.59167
  0
LINE
  8
0
 10
0.765991
 20
2.59167
 11
0.773682
 21
2.51038
  0
LINE
  8
0
 10
0.773682
 20
2.51038
 11
0.776245
 21
2.42874
  0
LINE
  8
0
 10
0.776245
 20
2.42874
 11
0.773682
 21
2.34712
  0
LINE
  8
0
 10
0.773682
 20
2.34712
 11
0.765991
 21
2.26581
  0
LINE
  8
0
 10
0.765991
 20
2.26581
 11
0.75322
 21
2.18515
  0
LINE
  8
0
 10
0.75322
 20
2.18515
 11
0.735397
 21
2.10544
  0
LINE
  8
0
 10
0.735397
 20
2.10544
 11
0.712616
 21
2.02702
  0
LINE
  8
0
 10
0.712616
 20
2.02702
 11
0.684952
 21
1.95018
  0
LINE
  8
0
 10
0.684952
 20
1.95018
 11
0.652512
 21
1.87523
  0
LINE
  8
0
 10
0.652512
 20
1.87523
 11
0.615448
 21
1.80246
  0
LINE
  8
0
 10
0.615448
 20
1.80246
 11
0.573868
 21
1.73216
  0
LINE
  8
0
 10
0.573868
 20
1.73216
 11
0.527969
 21
1.66463
  0
LINE
  8
0
 10
0.527969
 20
1.66463
 11
0.477905
 21
1.6001
  0
LINE
  8
0
 10
0.477905
 20
1.6001
 11
0.423904
 21
1.53883
  0
LINE
  8
0
 10
0.423904
 20
1.53883
 11
0.36615
 21
1.48108
  0
LINE
  8
0
 10
0.36615
 20
1.48108
 11
0.304901
 21
1.42708
  0
LINE
  8
0
 10
0.304901
 20
1.42708
 11
0.240356
 21
1.37701
  0
LINE
  8
0
 10
0.240356
 20
1.37701
 11
0.172821
 21
1.33112
  0
LINE
  8
0
 10
0.172821
 20
1.33112
 11
0.102524
 21
1.28955
  0
LINE
  8
0
 10
0.102524
 20
1.28955
 11
0.0297546
 21
1.25247
  0
LINE
  8
0
 10
0.0297546
 20
1.25247
 11
-0.0451965
 21
1.22003
  0
LINE
  8
0
 10
-0.0451965
 20
1.22003
 11
-0.12204
 21
1.19237
  0
LINE
  8
0
 10
-0.12204
 20
1.19237
 11
-0.200455
 21
1.16959
  0
LINE
  8
0
 10
-0.200455
 20
1.16959
 11
-0.280167
 21
1.15176
  0
LINE
  8
0
 10
-0.280167
 20
1.15176
 11
-0.360825
 21
1.13899
  0
LINE
  8
0
 10
-0.360825
 20
1.13899
 11
-0.442123
 21
1.1313
  0
LINE
  8
0
 10
-0.442123
 20
1.1313
 11
-0.523758
 21
1.12874
  0
LINE
  8
0
 10
-0.523758
 20
1.12874
 11
-0.605392
 21
1.1313
  0
LINE
  8
0
 10
-37.8481
 20
-4.27242
 11
-37.9294
 21
-4.26472
  0
LINE
  8
0
 10
-37.9294
 20
-4.26472
 11
-38.0101
 21
-4.25195
  0
LINE
  8
0
 10
-38.0101
 20
-4.25195
 11
-38.0898
 21
-4.23415
  0
LINE
  8
0
 10
-38.0898
 20
-4.23415
 11
-38.1682
 21
-4.21135
  0
LINE
  8
0
 10
-38.1682
 20
-4.21135
 11
-38.2451
 21
-4.18369
  0
LINE
  8
0
 10
-38.2451
 20
-4.18369
 11
-38.32
 21
-4.15126
  0
LINE
  8
0
 10
-38.32
 20
-4.15126
 11
-38.3928
 21
-4.11418
  0
LINE
  8
0
 10
-38.3928
 20
-4.11418
 11
-38.4631
 21
-4.07262
  0
LINE
  8
0
 10
-38.4631
 20
-4.07262
 11
-38.5306
 21
-4.0267
  0
LINE
  8
0
 10
-38.5306
 20
-4.0267
 11
-38.5951
 21
-3.97665
  0
LINE
  8
0
 10
-38.5951
 20
-3.97665
 11
-38.6564
 21
-3.92264
  0
LINE
  8
0
 10
-38.6564
 20
-3.92264
 11
-38.7141
 21
-3.8649
  0
LINE
  8
0
 10
-38.7141
 20
-3.8649
 11
-38.7682
 21
-3.80363
  0
LINE
  8
0
 10
-38.7682
 20
-3.80363
 11
-38.8182
 21
-3.73911
  0
LINE
  8
0
 10
-38.8182
 20
-3.73911
 11
-38.8641
 21
-3.67155
  0
LINE
  8
0
 10
-38.8641
 20
-3.67155
 11
-38.9057
 21
-3.60126
  0
LINE
  8
0
 10
-38.9057
 20
-3.60126
 11
-38.9428
 21
-3.5285
  0
LINE
  8
0
 10
-38.9428
 20
-3.5285
 11
-38.9752
 21
-3.45355
  0
LINE
  8
0
 10
-38.9752
 20
-3.45355
 11
-39.0029
 21
-3.37671
  0
LINE
  8
0
 10
-39.0029
 20
-3.37671
 11
-39.0257
 21
-3.29828
  0
LINE
  8
0
 10
-39.0257
 20
-3.29828
 11
-39.0435
 21
-3.21858
  0
LINE
  8
0
 10
-39.0435
 20
-3.21858
 11
-39.0562
 21
-3.13791
  0
LINE
  8
0
 10
-39.0562
 20
-3.13791
 11
-39.0639
 21
-3.05661
  0
LINE
  8
0
 10
-39.0639
 20
-3.05661
 11
-39.0665
 21
-2.97499
  0
LINE
  8
0
 10
-39.0665
 20
-2.97499
 11
-39.0639
 21
-2.89336
  0
LINE
  8
0
 10
-39.0639
 20
-2.89336
 11
-39.0562
 21
-2.81206
  0
LINE
  8
0
 10
-39.0562
 20
-2.81206
 11
-39.0435
 21
-2.73138
  0
LINE
  8
0
 10
-39.0435
 20
-2.73138
 11
-39.0257
 21
-2.65169
  0
LINE
  8
0
 10
-39.0257
 20
-2.65169
 11
-39.0029
 21
-2.57326
  0
LINE
  8
0
 10
-39.0029
 20
-2.57326
 11
-38.9752
 21
-2.49641
  0
LINE
  8
0
 10
-38.9752
 20
-2.49641
 11
-38.9428
 21
-2.42146
  0
LINE
  8
0
 10
-38.9428
 20
-2.42146
 11
-38.9057
 21
-2.34871
  0
LINE
  8
0
 10
-38.9057
 20
-2.34871
 11
-38.8641
 21
-2.27841
  0
LINE
  8
0
 10
-38.8641
 20
-2.27841
 11
-38.8182
 21
-2.21086
  0
LINE
  8
0
 10
-38.8182
 20
-2.21086
 11
-38.7682
 21
-2.14633
  0
LINE
  8
0
 10
-38.7682
 20
-2.14633
 11
-38.7141
 21
-2.08507
  0
LINE
  8
0
 10
-38.7141
 20
-2.08507
 11
-38.6564
 21
-2.02733
  0
LINE
  8
0
 10
-38.6564
 20
-2.02733
 11
-38.5951
 21
-1.97331
  0
LINE
  8
0
 10
-38.5951
 20
-1.97331
 11
-38.5306
 21
-1.92326
  0
LINE
  8
0
 10
-38.5306
 20
-1.92326
 11
-38.4631
 21
-1.87735
  0
LINE
  8
0
 10
-38.4631
 20
-1.87735
 11
-38.3928
 21
-1.83578
  0
LINE
  8
0
 10
-38.3928
 20
-1.83578
 11
-38.32
 21
-1.79871
  0
LINE
  8
0
 10
-38.32
 20
-1.79871
 11
-38.2451
 21
-1.76628
  0
LINE
  8
0
 10
-38.2451
 20
-1.76628
 11
-38.1682
 21
-1.73862
  0
LINE
  8
0
 10
-38.1682
 20
-1.73862
 11
-38.0898
 21
-1.71582
  0
LINE
  8
0
 10
-38.0898
 20
-1.71582
 11
-38.0101
 21
-1.69801
  0
LINE
  8
0
 10
-38.0101
 20
-1.69801
 11
-37.9294
 21
-1.68524
  0
LINE
  8
0
 10
-37.9294
 20
-1.68524
 11
-37.8481
 21
-1.67755
  0
LINE
  8
0
 10
-37.8481
 20
-1.67755
 11
-37.7665
 21
-1.67499
  0
LINE
  8
0
 10
-37.7665
 20
-1.67499
 11
-37.6849
 21
-1.67755
  0
LINE
  8
0
 10
-37.6849
 20
-1.67755
 11
-37.6036
 21
-1.68524
  0
LINE
  8
0
 10
-37.6036
 20
-1.68524
 11
-37.5229
 21
-1.69801
  0
LINE
  8
0
 10
-37.5229
 20
-1.69801
 11
-37.4432
 21
-1.71582
  0
LINE
  8
0
 10
-37.4432
 20
-1.71582
 11
-37.3648
 21
-1.73862
  0
LINE
  8
0
 10
-37.3648
 20
-1.73862
 11
-37.2879
 21
-1.76628
  0
LINE
  8
0
 10
-37.2879
 20
-1.76628
 11
-37.213
 21
-1.79871
  0
LINE
  8
0
 10
-37.213
 20
-1.79871
 11
-37.1402
 21
-1.83578
  0
LINE
  8
0
 10
-37.1402
 20
-1.83578
 11
-37.0699
 21
-1.87735
  0
LINE
  8
0
 10
-37.0699
 20
-1.87735
 11
-37.0024
 21
-1.92326
  0
LINE
  8
0
 10
-37.0024
 20
-1.92326
 11
-36.9379
 21
-1.97331
  0
LINE
  8
0
 10
-36.9379
 20
-1.97331
 11
-36.8766
 21
-2.02733
  0
LINE
  8
0
 10
-36.8766
 20
-2.02733
 11
-36.8188
 21
-2.08507
  0
LINE
  8
0
 10
-36.8188
 20
-2.08507
 11
-36.7648
 21
-2.14633
  0
LINE
  8
0
 10
-36.7648
 20
-2.14633
 11
-36.7148
 21
-2.21086
  0
LINE
  8
0
 10
-36.7148
 20
-2.21086
 11
-36.6689
 21
-2.27841
  0
LINE
  8
0
 10
-36.6689
 20
-2.27841
 11
-36.6273
 21
-2.34871
  0
LINE
  8
0
 10
-36.6273
 20
-2.34871
 11
-36.5902
 21
-2.42146
  0
LINE
  8
0
 10
-36.5902
 20
-2.42146
 11
-36.5578
 21
-2.49641
  0
LINE
  8
0
 10
-36.5578
 20
-2.49641
 11
-36.5301
 21
-2.57326
  0
LINE
  8
0
 10
-36.5301
 20
-2.57326
 11
-36.5073
 21
-2.65169
  0
LINE
  8
0
 10
-36.5073
 20
-2.65169
 11
-36.4895
 21
-2.73138
  0
LINE
  8
0
 10
-36.4895
 20
-2.73138
 11
-36.4768
 21
-2.81206
  0
LINE
  8
0
 10
-36.4768
 20
-2.81206
 11
-36.4691
 21
-2.89336
  0
LINE
  8
0
 10
-36.4691
 20
-2.89336
 11
-36.4665
 21
-2.97499
  0
LINE
  8
0
 10
-36.4665
 20
-2.97499
 11
-36.4691
 21
-3.05661
  0
LINE
  8
0
 10
-36.4691
 20
-3.05661
 11
-36.4768
 21
-3.13791
  0
LINE
  8
0
 10
-36.4768
 20
-3.13791
 11
-36.4895
 21
-3.21858
  0
LINE
  8
0
 10
-36.4895
 20
-3.21858
 11
-36.5073
 21
-3.29828
  0
LINE
  8
0
 10
-36.5073
 20
-3.29828
 11
-36.5301
 21
-3.37671
  0
LINE
  8
0
 10
-36.5301
 20
-3.37671
 11
-36.5578
 21
-3.45355
  0
LINE
  8
0
 10
-36.5578
 20
-3.45355
 11
-36.5902
 21
-3.5285
  0
LINE
  8
0
 10
-36.5902
 20
-3.5285
 11
-36.6273
 21
-3.60126
  0
LINE
  8
0
 10
-36.6273
 20
-3.60126
 11
-36.6689
 21
-3.67155
  0
LINE
  8
0
 10
-36.6689
 20
-3.67155
 11
-36.7148
 21
-3.73911
  0
LINE
  8
0
 10
-36.7148
 20
-3.73911
 11
-36.7648
 21
-3.80363
  0
LINE
  8
0
 10
-36.7648
 20
-3.80363
 11
-36.8188
 21
-3.8649
  0
LINE
  8
0
 10
-36.8188
 20
-3.8649
 11
-36.8766
 21
-3.92264
  0
LINE
  8
0
 10
-36.8766
 20
-3.92264
 11
-36.9379
 21
-3.97665
  0
LINE
  8
0
 10
-36.9379
 20
-3.97665
 11
-37.0024
 21
-4.0267
  0
LINE
  8
0
 10
-37.0024
 20
-4.0267
 11
-37.0699
 21
-4.07262
  0
LINE
  8
0
 10
-37.0699
 20
-4.07262
 11
-37.1402
 21
-4.11418
  0
LINE
  8
0
 10
-37.1402
 20
-4.11418
 11
-37.213
 21
-4.15126
  0
LINE
  8
0
 10
-37.213
 20
-4.15126
 11
-37.2879
 21
-4.18369
  0
LINE
  8
0
 10
-37.2879
 20
-4.18369
 11
-37.3648
 21
-4.21135
  0
LINE
  8
0
 10
-37.3648
 20
-4.21135
 11
-37.4432
 21
-4.23415
  0
LINE
  8
0
 10
-37.4432
 20
-4.23415
 11
-37.5229
 21
-4.25195
  0
LINE
  8
0
 10
-37.5229
 20
-4.25195
 11
-37.6036
 21
-4.26472
  0
LINE
  8
0
 10
-37.6036
 20
-4.26472
 11
-37.6849
 21
-4.27242
  0
LINE
  8
0
 10
-37.6849
 20
-4.27242
 11
-37.7665
 21
-4.27498
  0
LINE
  8
0
 10
-37.7665
 20
-4.27498
 11
-37.8481
 21
-4.27242
  0
ENDSEC
  0
SECTION
  2
OBJECTS
  0
DICTIONARY
  0
ENDSEC
  0
EOF
