  0
SECTION
  2
BLOCKS
  0
ENDSEC
  0
SECTION
  2
ENTITIES
  0
LINE
  8
0
 10
-3.20894
 20
1.71669
 11
-3.24628
 21
1.95247
  0
LINE
  8
0
 10
-3.24628
 20
1.95247
 11
-3.26874
 21
2.19014
  0
LINE
  8
0
 10
-3.26874
 20
2.19014
 11
-3.27625
 21
2.42874
  0
LINE
  8
0
 10
-3.27625
 20
2.42874
 11
-3.26874
 21
2.66734
  0
LINE
  8
0
 10
-3.26874
 20
2.66734
 11
-3.24628
 21
2.90501
  0
LINE
  8
0
 10
-3.24628
 20
2.90501
 11
-3.20894
 21
3.14079
  0
LINE
  8
0
 10
-3.20894
 20
3.14079
 11
-3.15686
 21
3.37376
  0
LINE
  8
0
 10
-3.15686
 20
3.37376
 11
-3.09026
 21
3.60301
  0
LINE
  8
0
 10
-3.09026
 20
3.60301
 11
-3.0094
 21
3.82762
  0
LINE
  8
0
 10
-3.0094
 20
3.82762
 11
-2.91458
 21
4.04671
  0
LINE
  8
0
 10
-2.91458
 20
4.04671
 11
-2.80621
 21
4.2594
  0
LINE
  8
0
 10
-2.80621
 20
4.2594
 11
-2.68469
 21
4.46489
  0
LINE
  8
0
 10
-2.68469
 20
4.46489
 11
-2.55051
 21
4.66232
  0
LINE
  8
0
 10
-2.55051
 20
4.66232
 11
-2.40419
 21
4.85095
  0
LINE
  8
0
 10
-2.40419
 20
4.85095
 11
-2.24632
 21
5.03001
  0
LINE
  8
0
 10
-2.24632
 20
5.03001
 11
-2.07751
 21
5.19882
  0
LINE
  8
0
 10
-2.07751
 20
5.19882
 11
-1.89845
 21
5.35669
  0
LINE
  8
0
 10
-1.89845
 20
5.35669
 11
-1.70982
 21
5.50301
  0
LINE
  8
0
 10
-1.70982
 20
5.50301
 11
-1.51239
 21
5.63719
  0
LINE
  8
0
 10
-1.51239
 20
5.63719
 11
-1.3069
 21
5.75871
  0
LINE
  8
0
 10
-1.3069
 20
5.75871
 11
-1.09421
 21
5.86708
  0
LINE
  8
0
 10
-1.09421
 20
5.86708
 11
-0.875122
 21
5.9619
  0
LINE
  8
0
 10
-0.875122
 20
5.9619
 11
-0.650513
 21
6.04276
  0
LINE
  8
0
 10
-0.650513
 20
6.04276
 11
-0.421265
 21
6.10936
  0
LINE
  8
0
 10
-0.421265
 20
6.10936
 11
-0.188293
 21
6.16144
  0
LINE
  8
0
 10
-0.188293
 20
6.16144
 11
0.0474701
 21
6.19878
  0
LINE
  8
0
 10
0.0474701
 20
6.19878
 11
0.285141
 21
6.22124
  0
LINE
  8
0
 10
0.285141
 20
6.22124
 11
0.523743
 21
6.22874
  0
LINE
  8
0
 10
0.523743
 20
6.22874
 11
0.762344
 21
6.22124
  0
LINE
  8
0
 10
0.762344
 20
6.22124
 11
1.00002
 21
6.19878
  0
LINE
  8
0
 10
1.00002
 20
6.19878
 11
1.23579
 21
6.16144
  0
LINE
  8
0
 10
1.23579
 20
6.16144
 11
1.46877
 21
6.10936
  0
LINE
  8
0
 10
1.46877
 20
6.10936
 11
1.69801
 21
6.04276
  0
LINE
  8
0
 10
1.69801
 20
6.04276
 11
1.92262
 21
5.9619
  0
LINE
  8
0
 10
1.92262
 20
5.9619
 11
2.14171
 21
5.86708
  0
LINE
  8
0
 10
2.14171
 20
5.86708
 11
2.3544
 21
5.75871
  0
LINE
  8
0
 10
2.3544
 20
5.75871
 11
2.55989
 21
5.63719
  0
LINE
  8
0
 10
2.55989
 20
5.63719
 11
2.75732
 21
5.50301
  0
LINE
  8
0
 10
2.75732
 20
5.50301
 11
2.94595
 21
5.35669
  0
LINE
  8
0
 10
2.94595
 20
5.35669
 11
3.12502
 21
5.19882
  0
LINE
  8
0
 10
3.12502
 20
5.19882
 11
3.29382
 21
5.03001
  0
LINE
  8
0
 10
3.29382
 20
5.03001
 11
3.45169
 21
4.85095
  0
LINE
  8
0
 10
3.45169
 20
4.85095
 11
3.59801
 21
4.66232
  0
LINE
  8
0
 10
3.59801
 20
4.66232
 11
3.73219
 21
4.46489
  0
LINE
  8
0
 10
3.73219
 20
4.46489
 11
3.85371
 21
4.2594
  0
LINE
  8
0
 10
3.85371
 20
4.2594
 11
3.96208
 21
4.04671
  0
LINE
  8
0
 10
3.96208
 20
4.04671
 11
4.0569
 21
3.82762
  0
LINE
  8
0
 10
4.0569
 20
3.82762
 11
4.13776
 21
3.60301
  0
LINE
  8
0
 10
4.13776
 20
3.60301
 11
4.16043
 21
3.52499
  0
LINE
  8
0
 10
4.16043
 20
3.52499
 11
15.4608
 21
3.52499
  0
LINE
  8
0
 10
15.4608
 20
3.52499
 11
15.4835
 21
3.60301
  0
LINE
  8
0
 10
15.4835
 20
3.60301
 11
15.5643
 21
3.82762
  0
LINE
  8
0
 10
15.5643
 20
3.82762
 11
15.6591
 21
4.04671
  0
LINE
  8
0
 10
15.6591
 20
4.04671
 11
15.7675
 21
4.2594
  0
LINE
  8
0
 10
15.7675
 20
4.2594
 11
15.8891
 21
4.46489
  0
LINE
  8
0
 10
15.8891
 20
4.46489
 11
16.0232
 21
4.66232
  0
LINE
  8
0
 10
16.0232
 20
4.66232
 11
16.1695
 21
4.85095
  0
LINE
  8
0
 10
16.1695
 20
4.85095
 11
16.3274
 21
5.03001
  0
LINE
  8
0
 10
16.3274
 20
5.03001
 11
16.4962
 21
5.19882
  0
LINE
  8
0
 10
16.4962
 20
5.19882
 11
16.6753
 21
5.35669
  0
LINE
  8
0
 10
16.6753
 20
5.35669
 11
16.8639
 21
5.50301
  0
LINE
  8
0
 10
16.8639
 20
5.50301
 11
17.0614
 21
5.63719
  0
LINE
  8
0
 10
17.0614
 20
5.63719
 11
17.2668
 21
5.75871
  0
LINE
  8
0
 10
17.2668
 20
5.75871
 11
17.4795
 21
5.86708
  0
LINE
  8
0
 10
17.4795
 20
5.86708
 11
17.6986
 21
5.9619
  0
LINE
  8
0
 10
17.6986
 20
5.9619
 11
17.9232
 21
6.04276
  0
LINE
  8
0
 10
17.9232
 20
6.04276
 11
18.1525
 21
6.10936
  0
LINE
  8
0
 10
18.1525
 20
6.10936
 11
18.3854
 21
6.16144
  0
LINE
  8
0
 10
18.3854
 20
6.16144
 11
18.6212
 21
6.19878
  0
LINE
  8
0
 10
18.6212
 20
6.19878
 11
18.8589
 21
6.22124
  0
LINE
  8
0
 10
18.8589
 20
6.22124
 11
19.0975
 21
6.22874
  0
LINE
  8
0
 10
19.0975
 20
6.22874
 11
19.3361
 21
6.22124
  0
LINE
  8
0
 10
19.3361
 20
6.22124
 11
19.5738
 21
6.19878
  0
LINE
  8
0
 10
19.5738
 20
6.19878
 11
19.8095
 21
6.16144
  0
LINE
  8
0
 10
19.8095
 20
6.16144
 11
20.0425
 21
6.10936
  0
LINE
  8
0
 10
20.0425
 20
6.10936
 11
20.2718
 21
6.04276
  0
LINE
  8
0
 10
20.2718
 20
6.04276
 11
20.4964
 21
5.9619
  0
LINE
  8
0
 10
20.4964
 20
5.9619
 11
20.7155
 21
5.86708
  0
LINE
  8
0
 10
20.7155
 20
5.86708
 11
20.9282
 21
5.75871
  0
LINE
  8
0
 10
20.9282
 20
5.75871
 11
21.1336
 21
5.63719
  0
LINE
  8
0
 10
21.1336
 20
5.63719
 11
21.3311
 21
5.50301
  0
LINE
  8
0
 10
21.3311
 20
5.50301
 11
21.4252
 21
5.42999
  0
LINE
  8
0
 10
21.4252
 20
5.42999
 11
35.575
 21
5.42999
  0
LINE
  8
0
 10
35.575
 20
5.42999
 11
35.6378
 21
5.43198
  0
LINE
  8
0
 10
35.6378
 20
5.43198
 11
35.7003
 21
5.43788
  0
LINE
  8
0
 10
35.7003
 20
5.43788
 11
35.7624
 21
5.44771
  0
LINE
  8
0
 10
35.7624
 20
5.44771
 11
35.8237
 21
5.46141
  0
LINE
  8
0
 10
35.8237
 20
5.46141
 11
35.884
 21
5.47894
  0
LINE
  8
0
 10
35.884
 20
5.47894
 11
35.9431
 21
5.50023
  0
LINE
  8
0
 10
35.9431
 20
5.50023
 11
36.0008
 21
5.52518
  0
LINE
  8
0
 10
36.0008
 20
5.52518
 11
36.0567
 21
5.5537
  0
LINE
  8
0
 10
36.0567
 20
5.5537
 11
36.1108
 21
5.58568
  0
LINE
  8
0
 10
36.1108
 20
5.58568
 11
36.1628
 21
5.62099
  0
LINE
  8
0
 10
36.1628
 20
5.62099
 11
36.2124
 21
5.65948
  0
LINE
  8
0
 10
36.2124
 20
5.65948
 11
36.2595
 21
5.70103
  0
LINE
  8
0
 10
36.2595
 20
5.70103
 11
36.304
 21
5.74545
  0
LINE
  8
0
 10
36.304
 20
5.74545
 11
36.3455
 21
5.79257
  0
LINE
  8
0
 10
36.3455
 20
5.79257
 11
36.384
 21
5.84221
  0
LINE
  8
0
 10
36.384
 20
5.84221
 11
36.4193
 21
5.89418
  0
LINE
  8
0
 10
36.4193
 20
5.89418
 11
36.4513
 21
5.94824
  0
LINE
  8
0
 10
36.4513
 20
5.94824
 11
36.4798
 21
6.00423
  0
LINE
  8
0
 10
36.4798
 20
6.00423
 11
36.5048
 21
6.06187
  0
LINE
  8
0
 10
36.5048
 20
6.06187
 11
36.526
 21
6.12099
  0
LINE
  8
0
 10
36.526
 20
6.12099
 11
36.5436
 21
6.1813
  0
LINE
  8
0
 10
36.5436
 20
6.1813
 11
36.5573
 21
6.24261
  0
LINE
  8
0
 10
36.5573
 20
6.24261
 11
36.5671
 21
6.30467
  0
LINE
  8
0
 10
36.5671
 20
6.30467
 11
36.573
 21
6.3672
  0
LINE
  8
0
 10
36.573
 20
6.3672
 11
36.575
 21
6.42999
  0
LINE
  8
0
 10
36.575
 20
6.42999
 11
36.575
 21
18.43
  0
LINE
  8
0
 10
36.575
 20
18.43
 11
36.573
 21
18.4928
  0
LINE
  8
0
 10
36.573
 20
18.4928
 11
36.5671
 21
18.5553
  0
LINE
  8
0
 10
36.5671
 20
18.5553
 11
36.5573
 21
18.6174
  0
LINE
  8
0
 10
36.5573
 20
18.6174
 11
36.5436
 21
18.6787
  0
LINE
  8
0
 10
36.5436
 20
18.6787
 11
36.526
 21
18.739
  0
LINE
  8
0
 10
36.526
 20
18.739
 11
36.5048
 21
18.7981
  0
LINE
  8
0
 10
36.5048
 20
18.7981
 11
36.4798
 21
18.8558
  0
LINE
  8
0
 10
36.4798
 20
18.8558
 11
36.4513
 21
18.9117
  0
LINE
  8
0
 10
36.4513
 20
18.9117
 11
36.4193
 21
18.9658
  0
LINE
  8
0
 10
36.4193
 20
18.9658
 11
36.384
 21
19.0178
  0
LINE
  8
0
 10
36.384
 20
19.0178
 11
36.3455
 21
19.0674
  0
LINE
  8
0
 10
36.3455
 20
19.0674
 11
36.304
 21
19.1145
  0
LINE
  8
0
 10
36.304
 20
19.1145
 11
36.2595
 21
19.159
  0
LINE
  8
0
 10
36.2595
 20
19.159
 11
36.2124
 21
19.2005
  0
LINE
  8
0
 10
36.2124
 20
19.2005
 11
36.1628
 21
19.239
  0
LINE
  8
0
 10
36.1628
 20
19.239
 11
36.1108
 21
19.2743
  0
LINE
  8
0
 10
36.1108
 20
19.2743
 11
36.0567
 21
19.3063
  0
LINE
  8
0
 10
36.0567
 20
19.3063
 11
36.0008
 21
19.3348
  0
LINE
  8
0
 10
36.0008
 20
19.3348
 11
35.9431
 21
19.3598
  0
LINE
  8
0
 10
35.9431
 20
19.3598
 11
35.884
 21
19.381
  0
LINE
  8
0
 10
35.884
 20
19.381
 11
35.8237
 21
19.3986
  0
LINE
  8
0
 10
35.8237
 20
19.3986
 11
35.7624
 21
19.4123
  0
LINE
  8
0
 10
35.7624
 20
19.4123
 11
35.7003
 21
19.4221
  0
LINE
  8
0
 10
35.7003
 20
19.4221
 11
35.6378
 21
19.428
  0
LINE
  8
0
 10
35.6378
 20
19.428
 11
35.575
 21
19.43
  0
LINE
  8
0
 10
35.575
 20
19.43
 11
23.572
 21
19.43
  0
LINE
  8
0
 10
23.572
 20
19.43
 11
23.5092
 21
19.428
  0
LINE
  8
0
 10
23.5092
 20
19.428
 11
23.4467
 21
19.4221
  0
LINE
  8
0
 10
23.4467
 20
19.4221
 11
23.3846
 21
19.4123
  0
LINE
  8
0
 10
23.3846
 20
19.4123
 11
23.3233
 21
19.3986
  0
LINE
  8
0
 10
23.3233
 20
19.3986
 11
23.263
 21
19.381
  0
LINE
  8
0
 10
23.263
 20
19.381
 11
23.2039
 21
19.3598
  0
LINE
  8
0
 10
23.2039
 20
19.3598
 11
23.1462
 21
19.3348
  0
LINE
  8
0
 10
23.1462
 20
19.3348
 11
23.0902
 21
19.3063
  0
LINE
  8
0
 10
23.0902
 20
19.3063
 11
23.0362
 21
19.2743
  0
LINE
  8
0
 10
23.0362
 20
19.2743
 11
22.9842
 21
19.239
  0
LINE
  8
0
 10
22.9842
 20
19.239
 11
22.9346
 21
19.2005
  0
LINE
  8
0
 10
22.9346
 20
19.2005
 11
22.8875
 21
19.159
  0
LINE
  8
0
 10
22.8875
 20
19.159
 11
22.8618
 21
19.1333
  0
LINE
  8
0
 10
22.8618
 20
19.1333
 11
22.8675
 21
19.0975
  0
LINE
  8
0
 10
22.8675
 20
19.0975
 11
22.89
 21
18.8598
  0
LINE
  8
0
 10
22.89
 20
18.8598
 11
22.8975
 21
18.6212
  0
LINE
  8
0
 10
22.8975
 20
18.6212
 11
22.89
 21
18.3826
  0
LINE
  8
0
 10
22.89
 20
18.3826
 11
22.8675
 21
18.145
  0
LINE
  8
0
 10
22.8675
 20
18.145
 11
22.8302
 21
17.9092
  0
LINE
  8
0
 10
22.8302
 20
17.9092
 11
22.7781
 21
17.6762
  0
LINE
  8
0
 10
22.7781
 20
17.6762
 11
22.7115
 21
17.447
  0
LINE
  8
0
 10
22.7115
 20
17.447
 11
22.6306
 21
17.2224
  0
LINE
  8
0
 10
22.6306
 20
17.2224
 11
22.5358
 21
17.0033
  0
LINE
  8
0
 10
22.5358
 20
17.0033
 11
22.4275
 21
16.7906
  0
LINE
  8
0
 10
22.4275
 20
16.7906
 11
22.3059
 21
16.5851
  0
LINE
  8
0
 10
22.3059
 20
16.5851
 11
22.1718
 21
16.3877
  0
LINE
  8
0
 10
22.1718
 20
16.3877
 11
22.0254
 21
16.199
  0
LINE
  8
0
 10
22.0254
 20
16.199
 11
21.8676
 21
16.02
  0
LINE
  8
0
 10
21.8676
 20
16.02
 11
21.6988
 21
15.8512
  0
LINE
  8
0
 10
21.6988
 20
15.8512
 11
21.5197
 21
15.6933
  0
LINE
  8
0
 10
21.5197
 20
15.6933
 11
21.3311
 21
15.547
  0
LINE
  8
0
 10
21.3311
 20
15.547
 11
21.1336
 21
15.4128
  0
LINE
  8
0
 10
21.1336
 20
15.4128
 11
20.9282
 21
15.2913
  0
LINE
  8
0
 10
20.9282
 20
15.2913
 11
20.7155
 21
15.1829
  0
LINE
  8
0
 10
20.7155
 20
15.1829
 11
20.4964
 21
15.0881
  0
LINE
  8
0
 10
20.4964
 20
15.0881
 11
20.2718
 21
15.0072
  0
LINE
  8
0
 10
20.2718
 20
15.0072
 11
20.0425
 21
14.9406
  0
LINE
  8
0
 10
20.0425
 20
14.9406
 11
19.8095
 21
14.8885
  0
LINE
  8
0
 10
19.8095
 20
14.8885
 11
19.5738
 21
14.8512
  0
LINE
  8
0
 10
19.5738
 20
14.8512
 11
19.3361
 21
14.8287
  0
LINE
  8
0
 10
19.3361
 20
14.8287
 11
19.0975
 21
14.8212
  0
LINE
  8
0
 10
19.0975
 20
14.8212
 11
18.8589
 21
14.8287
  0
LINE
  8
0
 10
18.8589
 20
14.8287
 11
18.6212
 21
14.8512
  0
LINE
  8
0
 10
18.6212
 20
14.8512
 11
18.3854
 21
14.8885
  0
LINE
  8
0
 10
18.3854
 20
14.8885
 11
18.1525
 21
14.9406
  0
LINE
  8
0
 10
18.1525
 20
14.9406
 11
17.9232
 21
15.0072
  0
LINE
  8
0
 10
17.9232
 20
15.0072
 11
17.6986
 21
15.0881
  0
LINE
  8
0
 10
17.6986
 20
15.0881
 11
17.4795
 21
15.1829
  0
LINE
  8
0
 10
17.4795
 20
15.1829
 11
17.2668
 21
15.2913
  0
LINE
  8
0
 10
17.2668
 20
15.2913
 11
17.0614
 21
15.4128
  0
LINE
  8
0
 10
17.0614
 20
15.4128
 11
16.8639
 21
15.547
  0
LINE
  8
0
 10
16.8639
 20
15.547
 11
16.6753
 21
15.6933
  0
LINE
  8
0
 10
16.6753
 20
15.6933
 11
16.4962
 21
15.8512
  0
LINE
  8
0
 10
16.4962
 20
15.8512
 11
16.3274
 21
16.02
  0
LINE
  8
0
 10
16.3274
 20
16.02
 11
16.1695
 21
16.199
  0
LINE
  8
0
 10
16.1695
 20
16.199
 11
16.0232
 21
16.3877
  0
LINE
  8
0
 10
16.0232
 20
16.3877
 11
15.8891
 21
16.5851
  0
LINE
  8
0
 10
15.8891
 20
16.5851
 11
15.7675
 21
16.7906
  0
LINE
  8
0
 10
15.7675
 20
16.7906
 11
15.6591
 21
17.0033
  0
LINE
  8
0
 10
15.6591
 20
17.0033
 11
15.5643
 21
17.2224
  0
LINE
  8
0
 10
15.5643
 20
17.2224
 11
15.4835
 21
17.447
  0
LINE
  8
0
 10
15.4835
 20
17.447
 11
15.4608
 21
17.525
  0
LINE
  8
0
 10
15.4608
 20
17.525
 11
4.522
 21
17.525
  0
LINE
  8
0
 10
4.522
 20
17.525
 11
4.45921
 21
17.523
  0
LINE
  8
0
 10
4.45921
 20
17.523
 11
4.39668
 21
17.5171
  0
LINE
  8
0
 10
4.39668
 20
17.5171
 11
4.33463
 21
17.5073
  0
LINE
  8
0
 10
4.33463
 20
17.5073
 11
4.27332
 21
17.4936
  0
LINE
  8
0
 10
4.27332
 20
17.4936
 11
4.24377
 21
17.485
  0
LINE
  8
0
 10
4.24377
 20
17.485
 11
4.25644
 21
17.4283
  0
LINE
  8
0
 10
4.25644
 20
17.4283
 11
4.29378
 21
17.1925
  0
LINE
  8
0
 10
4.29378
 20
17.1925
 11
4.31624
 21
16.9548
  0
LINE
  8
0
 10
4.31624
 20
16.9548
 11
4.32375
 21
16.7162
  0
LINE
  8
0
 10
4.32375
 20
16.7162
 11
4.31624
 21
16.4776
  0
LINE
  8
0
 10
4.31624
 20
16.4776
 11
4.29378
 21
16.24
  0
LINE
  8
0
 10
4.29378
 20
16.24
 11
4.25644
 21
16.0042
  0
LINE
  8
0
 10
4.25644
 20
16.0042
 11
4.20436
 21
15.7712
  0
LINE
  8
0
 10
4.20436
 20
15.7712
 11
4.13776
 21
15.542
  0
LINE
  8
0
 10
4.13776
 20
15.542
 11
4.0569
 21
15.3174
  0
LINE
  8
0
 10
4.0569
 20
15.3174
 11
3.96208
 21
15.0983
  0
LINE
  8
0
 10
3.96208
 20
15.0983
 11
3.85371
 21
14.8856
  0
LINE
  8
0
 10
3.85371
 20
14.8856
 11
3.73219
 21
14.6801
  0
LINE
  8
0
 10
3.73219
 20
14.6801
 11
3.59801
 21
14.4827
  0
LINE
  8
0
 10
3.59801
 20
14.4827
 11
3.45169
 21
14.294
  0
LINE
  8
0
 10
3.45169
 20
14.294
 11
3.29382
 21
14.115
  0
LINE
  8
0
 10
3.29382
 20
14.115
 11
3.12502
 21
13.9462
  0
LINE
  8
0
 10
3.12502
 20
13.9462
 11
2.94595
 21
13.7883
  0
LINE
  8
0
 10
2.94595
 20
13.7883
 11
2.75732
 21
13.642
  0
LINE
  8
0
 10
2.75732
 20
13.642
 11
2.55989
 21
13.5078
  0
LINE
  8
0
 10
2.55989
 20
13.5078
 11
2.3544
 21
13.3863
  0
LINE
  8
0
 10
2.3544
 20
13.3863
 11
2.14171
 21
13.2779
  0
LINE
  8
0
 10
2.14171
 20
13.2779
 11
1.92262
 21
13.1831
  0
LINE
  8
0
 10
1.92262
 20
13.1831
 11
1.69801
 21
13.1022
  0
LINE
  8
0
 10
1.69801
 20
13.1022
 11
1.46877
 21
13.0356
  0
LINE
  8
0
 10
1.46877
 20
13.0356
 11
1.23579
 21
12.9836
  0
LINE
  8
0
 10
1.23579
 20
12.9836
 11
1.00002
 21
12.9462
  0
LINE
  8
0
 10
1.00002
 20
12.9462
 11
0.762344
 21
12.9237
  0
LINE
  8
0
 10
0.762344
 20
12.9237
 11
0.523743
 21
12.9162
  0
LINE
  8
0
 10
0.523743
 20
12.9162
 11
0.285141
 21
12.9237
  0
LINE
  8
0
 10
0.285141
 20
12.9237
 11
0.0474701
 21
12.9462
  0
LINE
  8
0
 10
0.0474701
 20
12.9462
 11
-0.188293
 21
12.9836
  0
LINE
  8
0
 10
-0.188293
 20
12.9836
 11
-0.421265
 21
13.0356
  0
LINE
  8
0
 10
-0.421265
 20
13.0356
 11
-0.650513
 21
13.1022
  0
LINE
  8
0
 10
-0.650513
 20
13.1022
 11
-0.875122
 21
13.1831
  0
LINE
  8
0
 10
-0.875122
 20
13.1831
 11
-1.09421
 21
13.2779
  0
LINE
  8
0
 10
-1.09421
 20
13.2779
 11
-1.3069
 21
13.3863
  0
LINE
  8
0
 10
-1.3069
 20
13.3863
 11
-1.51239
 21
13.5078
  0
LINE
  8
0
 10
-1.51239
 20
13.5078
 11
-1.70982
 21
13.642
  0
LINE
  8
0
 10
-1.70982
 20
13.642
 11
-1.89845
 21
13.7883
  0
LINE
  8
0
 10
-1.89845
 20
13.7883
 11
-2.07751
 21
13.9462
  0
LINE
  8
0
 10
-2.07751
 20
13.9462
 11
-2.24632
 21
14.115
  0
LINE
  8
0
 10
-2.24632
 20
14.115
 11
-2.40419
 21
14.294
  0
LINE
  8
0
 10
-2.40419
 20
14.294
 11
-2.55051
 21
14.4827
  0
LINE
  8
0
 10
-2.55051
 20
14.4827
 11
-2.68469
 21
14.6801
  0
LINE
  8
0
 10
-2.68469
 20
14.6801
 11
-2.80621
 21
14.8856
  0
LINE
  8
0
 10
-2.80621
 20
14.8856
 11
-2.91458
 21
15.0983
  0
LINE
  8
0
 10
-2.91458
 20
15.0983
 11
-3.0094
 21
15.3174
  0
LINE
  8
0
 10
-3.0094
 20
15.3174
 11
-3.09026
 21
15.542
  0
LINE
  8
0
 10
-3.09026
 20
15.542
 11
-3.11293
 21
15.62
  0
LINE
  8
0
 10
-3.11293
 20
15.62
 11
-14.525
 21
15.62
  0
LINE
  8
0
 10
-14.525
 20
15.62
 11
-14.5878
 21
15.618
  0
LINE
  8
0
 10
-14.5878
 20
15.618
 11
-14.6503
 21
15.6121
  0
LINE
  8
0
 10
-14.6503
 20
15.6121
 11
-14.7124
 21
15.6023
  0
LINE
  8
0
 10
-14.7124
 20
15.6023
 11
-14.7737
 21
15.5886
  0
LINE
  8
0
 10
-14.7737
 20
15.5886
 11
-14.834
 21
15.571
  0
LINE
  8
0
 10
-14.834
 20
15.571
 11
-14.8931
 21
15.5498
  0
LINE
  8
0
 10
-14.8931
 20
15.5498
 11
-14.9508
 21
15.5248
  0
LINE
  8
0
 10
-14.9508
 20
15.5248
 11
-15.0067
 21
15.4963
  0
LINE
  8
0
 10
-15.0067
 20
15.4963
 11
-15.0608
 21
15.4643
  0
LINE
  8
0
 10
-15.0608
 20
15.4643
 11
-15.1128
 21
15.429
  0
LINE
  8
0
 10
-15.1128
 20
15.429
 11
-15.1624
 21
15.3905
  0
LINE
  8
0
 10
-15.1624
 20
15.3905
 11
-15.2095
 21
15.349
  0
LINE
  8
0
 10
-15.2095
 20
15.349
 11
-15.254
 21
15.3045
  0
LINE
  8
0
 10
-15.254
 20
15.3045
 11
-15.2955
 21
15.2574
  0
LINE
  8
0
 10
-15.2955
 20
15.2574
 11
-15.334
 21
15.2078
  0
LINE
  8
0
 10
-15.334
 20
15.2078
 11
-15.3693
 21
15.1558
  0
LINE
  8
0
 10
-15.3693
 20
15.1558
 11
-15.4013
 21
15.1017
  0
LINE
  8
0
 10
-15.4013
 20
15.1017
 11
-15.4298
 21
15.0458
  0
LINE
  8
0
 10
-15.4298
 20
15.0458
 11
-15.4548
 21
14.9881
  0
LINE
  8
0
 10
-15.4548
 20
14.9881
 11
-15.476
 21
14.929
  0
LINE
  8
0
 10
-15.476
 20
14.929
 11
-15.4936
 21
14.8687
  0
LINE
  8
0
 10
-15.4936
 20
14.8687
 11
-15.5073
 21
14.8074
  0
LINE
  8
0
 10
-15.5073
 20
14.8074
 11
-15.5171
 21
14.7453
  0
LINE
  8
0
 10
-15.5171
 20
14.7453
 11
-15.523
 21
14.6828
  0
LINE
  8
0
 10
-15.523
 20
14.6828
 11
-15.525
 21
14.62
  0
LINE
  8
0
 10
-15.525
 20
14.62
 11
-15.525
 21
2.62
  0
LINE
  8
0
 10
-15.525
 20
2.62
 11
-15.523
 21
2.55721
  0
LINE
  8
0
 10
-15.523
 20
2.55721
 11
-15.5171
 21
2.49467
  0
LINE
  8
0
 10
-15.5171
 20
2.49467
 11
-15.5073
 21
2.43262
  0
LINE
  8
0
 10
-15.5073
 20
2.43262
 11
-15.4936
 21
2.37131
  0
LINE
  8
0
 10
-15.4936
 20
2.37131
 11
-15.476
 21
2.31099
  0
LINE
  8
0
 10
-15.476
 20
2.31099
 11
-15.4548
 21
2.25188
  0
LINE
  8
0
 10
-15.4548
 20
2.25188
 11
-15.4298
 21
2.19423
  0
LINE
  8
0
 10
-15.4298
 20
2.19423
 11
-15.4013
 21
2.13824
  0
LINE
  8
0
 10
-15.4013
 20
2.13824
 11
-15.3693
 21
2.08418
  0
LINE
  8
0
 10
-15.3693
 20
2.08418
 11
-15.334
 21
2.03221
  0
LINE
  8
0
 10
-15.334
 20
2.03221
 11
-15.2955
 21
1.98257
  0
LINE
  8
0
 10
-15.2955
 20
1.98257
 11
-15.254
 21
1.93546
  0
LINE
  8
0
 10
-15.254
 20
1.93546
 11
-15.2095
 21
1.89104
  0
LINE
  8
0
 10
-15.2095
 20
1.89104
 11
-15.1624
 21
1.84949
  0
LINE
  8
0
 10
-15.1624
 20
1.84949
 11
-15.1128
 21
1.81099
  0
LINE
  8
0
 10
-15.1128
 20
1.81099
 11
-15.0608
 21
1.77568
  0
LINE
  8
0
 10
-15.0608
 20
1.77568
 11
-15.0067
 21
1.7437
  0
LINE
  8
0
 10
-15.0067
 20
1.7437
 11
-14.9508
 21
1.71518
  0
LINE
  8
0
 10
-14.9508
 20
1.71518
 11
-14.8931
 21
1.69023
  0
LINE
  8
0
 10
-14.8931
 20
1.69023
 11
-14.834
 21
1.66895
  0
LINE
  8
0
 10
-14.834
 20
1.66895
 11
-14.7737
 21
1.65141
  0
LINE
  8
0
 10
-14.7737
 20
1.65141
 11
-14.7124
 21
1.63771
  0
LINE
  8
0
 10
-14.7124
 20
1.63771
 11
-14.6503
 21
1.62788
  0
LINE
  8
0
 10
-14.6503
 20
1.62788
 11
-14.5878
 21
1.62198
  0
LINE
  8
0
 10
-14.5878
 20
1.62198
 11
-14.525
 21
1.62
  0
LINE
  8
0
 10
-14.525
 20
1.62
 11
-3.18732
 21
1.62
  0
LINE
  8
0
 10
-3.18732
 20
1.62
 11
-3.20894
 21
1.71669
  0
ENDSEC
  0
SECTION
  2
OBJECTS
  0
DICTIONARY
  0
ENDSEC
  0
EOF
